<svg id="0x" width="24" height="24" viewBox="0 0 24 24" fill="none" xmlns="http://www.w3.org/2000/svg">
    <path d="M7.81282 18.6471C6.6531 19.5138 5.50559 20.3806 4.34588 21.2473C1.69074 19.0438 0 15.7173 0 12.0001C0 9.85767 0.561546 7.84343 1.55036 6.09775C3.36317 8.47822 5.15768 10.8282 6.9705 13.2025C6.36623 13.819 5.78026 14.4355 5.16989 15.0276C4.95626 15.2351 4.92574 15.3877 5.07223 15.6501C5.71312 16.816 6.25025 17.4202 7.81282 18.6471Z"
          fill="currentColor"/>
    <path d="M17.9634 1.58698C15.528 3.33266 13.1231 5.06002 10.6999 6.79959C10.1079 6.22584 9.50969 5.65819 8.92983 5.07833C8.76503 4.91353 8.65516 4.91963 8.45984 5.01729C7.20246 5.66429 6.20755 6.59817 5.39575 7.80061C4.51681 6.62869 3.65007 5.47508 2.78334 4.32147C4.9868 1.67854 8.29504 0 12 0C14.173 0 16.2055 0.573754 17.9634 1.58698Z"
          fill="currentColor"/>
    <path d="M23.9999 11.9999C23.9999 14.1057 23.4567 16.0894 22.5045 17.8107C20.7344 15.4729 18.9705 13.1413 17.1943 10.7914C17.7253 10.2359 18.2502 9.68658 18.7751 9.13724C19.178 8.71608 19.1841 8.70998 18.8911 8.19116C18.2502 7.04365 17.3713 6.11588 16.2299 5.37122C17.3896 4.49838 18.5371 3.64385 19.6846 2.78322C22.3214 4.98058 23.9999 8.29492 23.9999 11.9999Z"
          fill="currentColor"/>
    <path d="M21.2472 19.648C19.0438 22.3093 15.7172 24 12 24C9.85151 24 7.83117 23.4324 6.08549 22.4435C6.27471 22.2971 6.44562 22.1628 6.62263 22.0285C8.75284 20.4354 10.8892 18.8484 13.0133 17.2492C13.2025 17.1089 13.3001 17.1211 13.4649 17.2798C14.0082 17.8291 14.5758 18.354 15.113 18.9095C15.29 19.0926 15.4242 19.0865 15.6318 18.9766C16.7915 18.3601 17.7559 17.5239 18.5005 16.4374C18.5433 16.3703 18.5982 16.3093 18.6714 16.2055C19.526 17.353 20.3683 18.4761 21.2472 19.648Z"
          fill="currentColor"/>
</svg>
