<svg id="aave" width="24" height="25" viewBox="0 0 24 25" fill="none" xmlns="http://www.w3.org/2000/svg">
<path d="M3.25985 6.11432C3.2865 6.05633 3.31982 5.99835 3.33315 5.93392C3.45311 5.43137 3.68635 4.97392 3.88627 4.49714C3.91959 4.42627 3.95957 4.36828 3.99956 4.30385C4.17282 4.03325 4.31277 3.73043 4.52602 3.49204C4.79924 3.18278 5.05248 2.85419 5.33903 2.55781C6.19203 1.68157 7.1983 1.0115 8.36451 0.579824C8.95095 0.360764 9.55738 0.206133 10.1838 0.103046C10.7236 0.00640136 11.2634 0.0128443 11.8032 0.00640137C12.6228 -0.00648454 13.4025 0.212576 14.1756 0.431636C15.1152 0.689354 15.9482 1.15969 16.7212 1.72023C17.261 2.11325 17.7342 2.58358 18.154 3.09902C18.5139 3.53714 18.8204 4.00747 19.087 4.50358C19.3335 4.96747 19.5068 5.46358 19.6667 5.96613C19.9466 6.85526 19.9733 7.75727 19.9733 8.67217C19.9666 12.0741 19.9733 15.4759 19.9733 18.8778C19.9733 18.9873 19.96 19.0904 20 19.2C19.96 19.3159 19.98 19.4319 19.98 19.5543C19.98 20.6239 19.98 21.6998 19.98 22.7694C19.98 22.866 19.98 22.9626 19.98 23.0593C19.96 23.5941 19.7067 23.8775 19.1536 23.9806C19.1203 23.9871 19.1136 23.9935 19.0803 24C19.007 24.0128 18.9204 24.0064 18.8604 24C18.2873 23.8647 18.0674 23.3879 18.074 22.9498C18.0874 22.1122 18.074 21.2746 18.0674 20.437C18.0674 20.1149 17.9341 19.8636 17.6475 19.6832C17.0744 19.3224 16.2814 19.6639 16.2081 20.3275C16.1748 20.6174 16.1948 20.9073 16.1881 21.1973C16.1881 21.3777 16.1881 21.5645 16.1814 21.7449C16.1615 22.1766 15.8549 22.5181 15.4151 22.589C14.9553 22.6598 14.6021 22.4536 14.3755 22.0542C14.3222 21.9575 14.3288 21.848 14.3288 21.7385C14.3288 21.3712 14.3288 21.0104 14.3222 20.6432C14.3222 20.4499 14.3022 20.2566 14.2289 20.0762C14.0556 19.6832 13.6491 19.4899 13.156 19.5672C12.7428 19.6316 12.4629 19.9473 12.4429 20.3726C12.4362 20.4821 12.4296 20.5852 12.4363 20.6947C12.4762 21.1071 12.243 21.3777 11.9231 21.571C11.47 21.8416 10.6636 21.571 10.577 21.0104C10.537 20.7527 10.557 20.5014 10.4903 20.2437C10.3771 19.7863 10.0838 19.5543 9.5907 19.5608C9.09756 19.5672 8.75769 19.8249 8.67772 20.2759C8.62441 20.5659 8.65773 20.8558 8.65107 21.1457C8.6444 21.4163 8.6644 21.6805 8.60442 21.9447C8.47114 22.5245 7.66479 22.8145 7.17165 22.4601C6.89176 22.2604 6.75181 21.9962 6.75181 21.6612C6.75181 21.2295 6.74515 20.8043 6.73848 20.3726C6.73182 20.0569 6.57188 19.8249 6.29199 19.6639C5.69889 19.3159 4.89921 19.7283 4.88588 20.3919C4.87921 21.2746 4.86589 22.1637 4.86589 23.0528C4.86589 23.3557 4.7526 23.5812 4.51935 23.7809C4.22614 24.0451 3.55973 24.0193 3.2865 23.7745C3.13323 23.6327 3.01994 23.491 3.01328 23.2783C3.00661 23.1495 2.99995 23.0206 2.99995 22.8918C2.99995 18.0209 2.99995 13.1436 2.99329 8.27271C2.99329 7.56398 3.05993 6.8617 3.25318 6.17875C3.26651 6.15942 3.25985 6.13365 3.25985 6.11432ZM13.1027 7.65419C13.096 8.03432 13.2226 8.38224 13.4159 8.69795C13.6958 9.14895 14.1556 9.37446 14.6754 9.35513C15.4151 9.32291 15.8816 8.8719 16.0882 8.22117C16.2681 7.64774 16.1481 7.11942 15.8482 6.61687C15.4951 6.037 14.6287 5.80506 14.0156 6.11432C13.3626 6.44291 13.156 7.00345 13.1027 7.65419ZM9.91724 7.65419C9.84393 7.36425 9.83727 7.02922 9.65068 6.75217C9.56404 6.62976 9.51073 6.48801 9.39078 6.38492C8.69772 5.78573 7.81806 5.80506 7.20497 6.53311C6.79846 7.01633 6.75848 7.58976 6.90509 8.18251C6.99172 8.53043 7.1983 8.80103 7.47153 9.03298C7.89803 9.3809 8.53778 9.45821 9.05091 9.16184C9.63068 8.82036 9.83061 8.2856 9.91724 7.65419ZM11.5966 11.7261C11.8698 11.7197 12.1497 11.6488 12.4096 11.5135C12.6961 11.3589 12.8827 11.1334 12.956 10.8241C13.0094 10.5922 12.8827 10.4247 12.6295 10.4053C12.4962 10.3989 12.3629 10.4053 12.2297 10.4247C11.7765 10.4891 11.3234 10.4955 10.8702 10.4182C10.7169 10.3924 10.5637 10.3924 10.4104 10.4247C10.2571 10.4569 10.1838 10.5406 10.1771 10.6888C10.1638 10.953 10.2771 11.172 10.4837 11.3396C10.7969 11.5908 11.1634 11.7326 11.5966 11.7261Z" fill="currentColor"/>
</svg>
