<svg id="balancer" width="24" height="24" viewBox="0 0 24 24" fill="none" xmlns="http://www.w3.org/2000/svg">
<path d="M24 17.9754C24 20.1651 18.6272 21.9442 11.9901 21.9442C5.37284 21.9637 0 20.1846 0 17.9754C0 16.4114 2.72593 15.0624 6.67654 14.4172C8.25679 14.7691 10.0741 14.9646 12.0099 14.9646C13.9457 14.9646 15.7827 14.7691 17.3432 14.4172C21.2938 15.0624 24 16.4309 24 17.9754Z" fill="currentColor"/>
<path d="M12.0099 7.73122C16.0246 7.73122 19.2791 6.6721 19.2791 5.36561C19.2791 4.05912 16.0246 3 12.0099 3C7.99529 3 4.74078 4.05912 4.74078 5.36561C4.74078 6.6721 7.99529 7.73122 12.0099 7.73122Z" fill="currentColor"/>
<path d="M21.6296 10.8787C21.6296 12.6187 17.3234 14.0068 12.0098 14.0068C6.69625 14.0068 2.39008 12.5992 2.39008 10.8787C2.39008 9.6666 4.50366 8.61087 7.60489 8.08301C8.86909 8.39582 10.3901 8.57177 12.0098 8.57177C13.6296 8.57177 15.1308 8.39582 16.395 8.08301C19.4962 8.61087 21.6296 9.64705 21.6296 10.8787Z" fill="currentColor"/>
</svg>
