<svg id="bancor" width="24" height="24" viewBox="0 0 24 24" fill="none" xmlns="http://www.w3.org/2000/svg">
<path d="M20 13.1265C20 15.3506 20 17.4948 20 19.6826C17.5966 21.1072 15.1723 22.539 12.7061 23.9999C12.7061 21.7904 12.7061 19.6462 12.7061 17.4439C15.0954 16.0266 17.5197 14.5947 20 13.1265Z" fill="currentColor"/>
<path d="M18.1485 11.8982C16.353 12.974 14.5505 14.0424 12.7061 15.1472C12.7061 12.9303 12.7061 10.7789 12.7061 8.59116C14.4946 7.52272 16.2971 6.44701 18.1485 5.34222C18.1485 7.54452 18.1485 9.69595 18.1485 11.8982Z" fill="currentColor"/>
<path d="M10.4564 8.58397C10.4564 10.7572 10.4564 12.9086 10.4564 15.14C8.619 14.0425 6.81648 12.9668 5.00698 11.8911C5.00698 9.7251 5.00698 7.5664 5.00698 5.33503C6.84443 6.43255 8.65393 7.50826 10.4564 8.58397Z" fill="currentColor"/>
<path d="M5 14.1804C6.85142 15.2852 8.65394 16.3609 10.4565 17.4366C10.4565 19.6099 10.4565 21.7613 10.4565 23.9927C8.60503 22.8952 6.80252 21.8194 5 20.7437C5 18.5632 5 16.4118 5 14.1804Z" fill="currentColor"/>
<path d="M6.14575 3.27801C7.9832 2.15869 9.7438 1.09025 11.5323 0C13.3349 1.07571 15.1444 2.15869 17.0237 3.27801C15.1583 4.39734 13.3488 5.47305 11.5323 6.55603C9.75078 5.47305 7.97621 4.39734 6.14575 3.27801Z" fill="currentColor"/>
</svg>
