<svg id="blackholeswap" width="24" height="24" viewBox="0 0 24 24" fill="none" xmlns="http://www.w3.org/2000/svg">
    <path fill-rule="evenodd" clip-rule="evenodd" d="M12 24C18.6274 24 24 18.6274 24 12C24 5.37258 18.6274 0 12 0C5.37258 0 0 5.37258 0 12C0 18.6274 5.37258 24 12 24ZM11.4 22.2C17.3647 22.2 22.2 17.3647 22.2 11.4C22.2 5.43535 17.3647 0.600023 11.4 0.600023C5.43532 0.600023 0.6 5.43535 0.6 11.4C0.6 17.3647 5.43532 22.2 11.4 22.2Z" fill="currentColor"/>
    <path opacity="0.7" fill-rule="evenodd" clip-rule="evenodd" d="M11.4 22.4C17.4751 22.4 22.4 17.4752 22.4 11.4C22.4 5.32489 17.4751 0.400024 11.4 0.400024C5.32487 0.400024 0.4 5.32489 0.4 11.4C0.4 17.4752 5.32487 22.4 11.4 22.4ZM12 22C17.5228 22 22 17.5228 22 12C22 6.47712 17.5228 1.99996 12 1.99996C6.47715 1.99996 2 6.47712 2 12C2 17.5228 6.47715 22 12 22Z" fill="currentColor"/>
    <path opacity="0.3" fill-rule="evenodd" clip-rule="evenodd" d="M10.8 20.4001C16.1019 20.4001 20.4 16.1021 20.4 10.8001C20.4 7.50995 18.7448 4.60636 16.2217 2.87659C19.7451 4.45352 22.2 7.9901 22.2 12.1C22.2 17.6781 17.6781 22.2 12.1 22.2C7.99029 22.2 4.45387 19.7455 2.87681 16.2223C4.60662 18.7452 7.51004 20.4001 10.8 20.4001Z" fill="currentColor"/>
</svg>
