<svg id="chai" width="24" height="24" viewBox="0 0 24 24" fill="none" xmlns="http://www.w3.org/2000/svg">
<path d="M18.1396 16.98C18.1396 17.3128 18.1396 17.6455 18.1396 17.9783C15.4302 17.9783 12.7123 17.9783 9.99446 17.9783C9.99446 18.3194 9.99446 18.6356 9.99446 18.9767C13.4258 18.9767 16.8401 18.9767 20.2629 18.9767C20.6027 18.9767 20.9424 18.9767 21.2821 18.9767C21.5114 18.9767 21.7323 18.9767 21.9616 18.9767C21.9616 19.2928 21.9616 19.6173 21.9616 19.9334C21.5624 20 5.70532 20.0249 3.88774 19.9667C3.88774 19.6505 3.88774 19.3344 3.88774 18.9933C3.19978 18.9517 2.5288 18.9933 1.84934 18.9683C1.84934 18.6439 1.84934 18.3277 1.84934 17.9866C3.87075 17.9866 5.90066 17.9866 7.93907 17.9866C7.93907 17.6455 7.93907 17.3294 7.93907 16.9883C7.27659 16.9883 6.60561 16.9883 5.91765 16.9883C5.91765 16.6472 5.91765 16.3311 5.91765 15.9983C5.58641 15.9983 5.26366 15.9983 4.89845 15.9983C4.88146 15.757 4.88996 15.5241 4.88996 15.2995C4.88996 15.0665 4.88996 14.8336 4.88996 14.584C3.76034 14.584 2.64771 14.584 1.51809 14.584C1.45015 14.3926 1.51809 14.193 1.47563 13.9933C1.32275 13.9933 1.16987 13.9933 1 13.9933C1 11.9883 1 9.99995 1 8.00328C1.29727 8.00328 1.58604 8.00328 1.90879 8.00328C1.90879 7.80362 1.90879 7.62059 1.90879 7.4126C2.911 7.4126 3.87925 7.4126 4.88146 7.4126C4.88146 6.93007 4.88146 6.46418 4.88146 5.99829C6.58013 5.99829 8.2788 5.99829 9.97747 5.99829C9.97747 8.97666 9.97747 11.9467 9.97747 14.9251C9.97747 14.9334 9.98597 14.95 9.99446 14.9584C10.003 14.9667 10.0114 14.975 10.0454 15C10.3427 15 10.6654 15 10.9967 15C10.9967 15.3327 10.9967 15.6489 10.9967 15.99C11.3449 15.99 11.6761 15.99 12.0159 15.99C12.0159 16.3311 12.0159 16.6472 12.0159 16.98C14.0798 16.98 16.1097 16.98 18.1396 16.98ZM1.92578 13.4858C2.44387 13.4858 2.9195 13.4858 3.40362 13.4858C3.89623 13.4858 4.38885 13.4858 4.87297 13.4858C4.92393 12.2628 4.90694 8.84355 4.84749 8.51077C3.87075 8.51077 2.90251 8.51077 1.92578 8.51077C1.92578 10.1663 1.92578 11.8136 1.92578 13.4858Z" fill="currentColor" fill-opacity="0.8"/>
<path d="M18.1396 16.98C16.1097 16.98 14.0797 16.98 12.0329 16.98C12.0329 16.6472 12.0329 16.3311 12.0329 15.99C11.6846 15.99 11.3534 15.99 11.0136 15.99C11.0136 15.6489 11.0136 15.3328 11.0136 15C10.6824 15 10.3597 15 10.0624 15C10.0284 14.975 10.0199 14.9667 10.0114 14.9584C10.0029 14.9501 9.99445 14.9334 9.99445 14.9251C9.99445 11.9467 9.99445 8.97668 9.99445 5.99831C11.9734 5.99831 13.9608 5.99831 15.9398 5.99831C15.9398 7.99498 15.9398 9.99165 15.9398 11.9883C15.9398 12.3128 15.9398 12.6456 15.9398 12.9867C15.7444 12.9867 15.5746 12.9867 15.4047 12.9867C15.2433 12.9867 15.082 12.995 14.9291 12.995C14.9291 14.01 14.9291 14.9917 14.9291 15.9817C15.9313 15.9817 16.9165 15.9817 17.9018 15.9817C17.9103 15.9817 17.9272 15.9734 17.9357 15.965C17.9442 15.9567 17.9527 15.9484 17.9527 15.9484C17.9527 14.9501 17.9527 13.9767 17.9527 12.9783C17.7744 12.9783 17.6045 12.9783 17.4346 12.9783C17.2732 12.9783 17.1034 12.97 16.942 12.97C16.942 12.6206 16.942 12.2961 16.942 11.98C16.942 9.98333 16.942 7.98666 16.942 5.98999C18.3604 5.98999 19.7703 5.98999 21.1887 5.98999C21.1887 8.97668 21.1887 11.9634 21.1887 14.9584C20.8574 14.9584 20.5347 14.9584 20.178 14.9584C20.178 15.1331 20.1695 15.2912 20.1695 15.4492C20.1695 15.6156 20.1695 15.7737 20.1695 15.9567C19.8382 15.9567 19.5155 15.9567 19.1588 15.9567C19.1588 16.1314 19.1503 16.2895 19.1503 16.4476C19.1503 16.614 19.1503 16.772 19.1503 16.9634C18.8105 16.98 18.4708 16.98 18.1396 16.98ZM19.9911 8.26952C19.6769 8.26952 19.3456 8.26952 18.9974 8.26952C18.9974 9.61728 18.9974 10.965 18.9974 12.3211C19.3371 12.3211 19.6514 12.3211 19.9911 12.3211C19.9911 10.965 19.9911 9.6256 19.9911 8.26952Z" fill="currentColor"/>
<path d="M15.9313 5.99834C13.9524 5.99834 11.9649 5.99834 9.98597 5.99834C8.2873 5.99834 6.58863 5.99834 4.88996 5.99834C4.84749 5.99834 4.80503 5.99834 4.76256 5.99834C4.74557 5.97338 4.72009 5.95674 4.72009 5.93178C4.72009 5.63228 4.72009 5.32446 4.72009 5C8.46566 5 12.2027 5 15.9313 5C15.9313 5.33278 15.9313 5.66556 15.9313 5.99834Z" fill="currentColor"/>
<path d="M20.2629 18.9766C16.8401 18.9766 13.4258 18.9766 9.99445 18.9766C9.99445 18.6355 9.99445 18.3194 9.99445 17.9783C12.7123 17.9783 15.4302 17.9783 18.1396 17.9783C18.8445 17.9783 19.558 17.9783 20.2629 17.9783C20.2629 18.311 20.2629 18.6438 20.2629 18.9766Z" fill="currentColor"/>
<path d="M16.9505 5.99834C16.9505 5.66556 16.9505 5.33278 16.9505 5C18.4368 5 19.9232 5 21.401 5C21.4095 5 21.418 5.01664 21.4435 5.03328C21.4435 5.3411 21.4435 5.65724 21.4435 5.96506C21.367 6.02329 21.2736 5.9817 21.1972 5.99834C19.7788 5.99834 18.3689 5.99834 16.9505 5.99834Z" fill="currentColor"/>
<path d="M21.9616 18.9766C21.7323 18.9766 21.5115 18.9766 21.2822 18.9766C21.2822 18.6438 21.2822 18.311 21.2822 17.9783C22.174 17.9783 23.0658 17.9783 23.9916 17.9783C23.9916 18.1363 24.0001 18.2944 24.0001 18.4525C24.0001 18.6189 24.0001 18.7853 24.0001 18.9766C23.3121 18.9766 22.6326 18.9766 21.9616 18.9766Z" fill="currentColor"/>
</svg>
