<svg id="cofix" width="24" height="24" viewBox="0 0 24 24" fill="none" xmlns="http://www.w3.org/2000/svg">
<path d="M8.51136 8.64726L9.53058 11.7497L2.00584 2.14551L8.51136 8.64726Z" fill="currentColor"/>
<path d="M8.67441 8.47848L2.19801 2.00583L11.7321 9.53785L8.67441 8.47848Z" fill="currentColor"/>
<path d="M11.9185 9.84634L9.83927 11.9302L8.79675 8.7695L11.9185 9.84634Z" fill="currentColor"/>
<path d="M15.4945 15.3644L14.4694 12.2561L21.9942 21.8603L15.4945 15.3644Z" fill="currentColor"/>
<path d="M15.3313 15.5274L21.8019 22L12.2679 14.468L15.3313 15.5274Z" fill="currentColor"/>
<path d="M12.0815 14.1595L14.1665 12.0757L15.2091 15.2363L12.0815 14.1595Z" fill="currentColor"/>
<path d="M8.63948 15.475L11.7496 14.4563L2.13979 21.9767L8.63948 15.475Z" fill="currentColor"/>
<path d="M8.4764 15.312L2 21.7846L9.53056 12.2561L8.4764 15.312Z" fill="currentColor"/>
<path d="M9.84508 12.0699L11.9243 14.1478L8.7618 15.1898L9.84508 12.0699Z" fill="currentColor"/>
<path d="M15.3605 8.49593L12.2563 9.52037L21.8602 2L15.3605 8.49593Z" fill="currentColor"/>
<path d="M15.5236 8.65891L22 2.19208L14.4694 11.7206L15.5236 8.65891Z" fill="currentColor"/>
<path d="M14.1607 11.9069L12.0757 9.82304L15.2382 8.78114L14.1607 11.9069Z" fill="currentColor"/>
</svg>
