<svg id="compound" width="24" height="24" viewBox="0 0 24 24" fill="none" xmlns="http://www.w3.org/2000/svg">
<path d="M19.0424 20.1352C19.0095 19.6318 18.9766 19.3233 18.9766 18.9985C18.9766 16.7577 18.9437 14.533 18.9766 12.2922C18.9931 11.3016 18.5983 10.6359 17.7264 10.1325C15.3905 8.78472 13.1039 7.372 10.768 6.04047C10.2087 5.7157 10.0277 5.35846 10.0442 4.75765C10.0935 3.52355 10.0442 2.27321 10.0606 1.03911C10.0771 0.0810629 10.6035 -0.259938 11.4424 0.227206C14.3706 1.8835 17.2987 3.53979 20.1939 5.27727C20.5888 5.50461 20.9507 6.1379 20.9507 6.57633C21.0165 10.5547 21 14.5493 20.9671 18.5276C20.9671 18.8037 20.7204 19.1609 20.4736 19.3558C20.1117 19.648 19.6346 19.8267 19.0424 20.1352Z" fill="currentColor"/>
<path d="M14.8312 22.6199C14.8312 21.1259 14.7983 19.7944 14.8476 18.4629C14.8805 17.5048 14.4693 16.904 13.6632 16.4331C11.3766 15.1016 9.12296 13.7376 6.83638 12.4223C6.29353 12.1138 6.09612 11.7565 6.11257 11.1395C6.16193 9.79171 6.11258 8.44395 6.12903 7.09618C6.14548 6.17061 6.63898 5.84584 7.44504 6.30051C10.3896 7.97304 13.3507 9.66181 16.2459 11.4155C16.6572 11.6591 17.0026 12.3249 17.0191 12.812C17.1013 15.4751 17.0684 18.1381 17.0355 20.8012C17.0355 21.0935 16.8052 21.4669 16.5585 21.6456C16.0814 22.0028 15.5056 22.2464 14.8312 22.6199Z" fill="currentColor"/>
<path d="M12.9394 21.0609C12.9394 21.5968 12.9394 22.1327 12.9394 22.6685C12.9229 23.9513 12.2649 24.341 11.1627 23.6753C9.20517 22.5061 7.26404 21.3207 5.30646 20.1354C4.5333 19.6645 3.77659 19.2098 3.00343 18.7389C2.32898 18.3167 1.98352 17.7321 1.98352 16.9364C2.01642 15.7348 1.98352 14.517 2.01642 13.3153C2.03287 12.4385 2.54283 12.13 3.29954 12.5684C6.22768 14.2409 9.13936 15.9134 12.0675 17.6022C12.6597 17.9432 12.9558 18.4628 12.9558 19.1286C12.9394 19.7619 12.9394 20.4114 12.9394 21.0609Z" fill="currentColor"/>
</svg>
