<svg id="curve" width="26" height="24" viewBox="0 0 26 24" fill="none" xmlns="http://www.w3.org/2000/svg">
<path d="M24.9726 11.0133C24.7537 8.30538 23.0668 5.94161 19.9574 3.99444C17.3768 2.37331 14.2309 1.29557 11.7781 0.534816C9.17016 -0.271222 6.84493 -0.14443 5.03034 0.89708C3.27046 1.91142 2.0577 3.75897 1.5197 6.24048C0.407243 11.3937 1.28262 15.5054 2.22183 18.0593C3.37989 21.211 5.04858 23.1673 6.11545 23.6473C6.56226 23.8556 7.1732 24.0005 7.85709 24.0005C8.52274 24.0005 9.24311 23.8556 9.94524 23.4752C10.8844 22.959 12.0699 21.8178 12.5075 19.3001C13.6656 18.9016 17.6048 17.851 19.392 17.3801C20.2309 17.1537 20.8328 16.9997 21.0607 16.9273L21.1246 16.9092C21.6352 16.7642 22.7021 16.4563 23.5866 15.5869C24.6626 14.5182 25.1276 12.9876 24.9726 11.0133ZM20.7142 15.5144L20.6413 15.5326C20.4316 15.5959 19.8024 15.759 19.0091 15.9763C15.462 16.9182 13.6018 17.4344 12.6078 17.7424C12.6261 16.7461 12.6078 15.7499 12.4984 14.7446C12.389 13.7393 12.1884 12.7341 11.8692 11.765C12.5167 11.6744 13.1458 11.5658 13.7841 11.448C14.5866 11.2941 15.3799 11.122 16.1641 10.9137C16.9483 10.7054 17.7325 10.4609 18.4802 10.1167C18.8449 9.94463 19.2097 9.73633 19.5197 9.45557C19.6656 9.31067 19.8024 9.14765 19.8753 8.9484C19.9118 8.84878 19.93 8.74916 19.9209 8.64048C19.9209 8.54085 19.8936 8.44123 19.8571 8.34161C19.8753 8.44123 19.8936 8.54085 19.8844 8.63142C19.8753 8.73104 19.848 8.82161 19.8024 8.91217C19.7203 9.08425 19.5744 9.2201 19.4194 9.33783C19.1094 9.56425 18.7355 9.71821 18.3616 9.85406C17.6139 10.1076 16.8297 10.2526 16.0364 10.3703C15.2522 10.488 14.4498 10.5695 13.6565 10.6239C12.927 10.6782 12.1884 10.7144 11.468 10.7235V10.7144C11.2036 10.0805 10.9027 9.47368 10.5744 8.87595C10.4923 8.73104 10.4103 8.57708 10.3282 8.43217C10.2826 8.35972 10.2461 8.28727 10.2006 8.21482L10.082 7.99746C9.93612 7.70765 9.80846 7.40878 9.70815 7.0918C9.61697 6.78387 9.55314 6.45783 9.52578 6.1318C9.50755 5.80576 9.52578 5.47972 9.59873 5.15368C9.67168 4.8367 9.79022 4.51972 9.97259 4.23897C10.1458 3.95821 10.3738 3.70463 10.6747 3.53255C10.3647 3.67746 10.1185 3.92199 9.91788 4.19368C9.71727 4.46538 9.56226 4.78236 9.46195 5.1084C9.36165 5.43444 9.31606 5.77859 9.31606 6.12274C9.31606 6.46689 9.36165 6.81104 9.4346 7.14614C9.50755 7.48123 9.62609 7.80727 9.76286 8.12425C9.90876 8.44123 10.0455 8.7401 10.1732 9.04802C10.4376 9.66387 10.6747 10.2797 10.8571 10.9046C11.2401 12.1635 11.4133 13.4586 11.4224 14.7537C11.4316 15.9582 11.313 17.1627 11.1398 18.3673H11.1306L11.0942 18.639C10.8662 20.3869 10.2097 21.5914 9.21575 22.1439C8.34949 22.6148 7.30998 22.5424 6.70815 22.2707C6.17016 22.0261 4.70207 20.5409 3.58049 17.5069C2.70511 15.1431 1.88445 11.3031 2.93308 6.49406C3.39812 4.47444 4.37381 2.94387 5.75983 2.14689C6.56226 1.685 7.50147 1.44953 8.55922 1.44953C9.41636 1.44953 10.3465 1.6035 11.3404 1.91142C16.8024 3.605 23.1124 6.18614 23.5136 11.131C23.7963 14.6269 21.6352 15.2518 20.7142 15.5144Z" fill="currentColor"/>
<path d="M7.7386 11.1306C7.48328 10.9766 7.20973 10.8589 6.91793 10.7774C6.63526 10.7049 6.34347 10.6596 6.06079 10.6959C6.56231 10.9494 6.95441 11.2936 7.28268 11.683C7.60182 12.0634 7.84802 12.4891 8.03951 12.9328C8.42249 13.8294 8.59575 14.7985 8.69605 15.8128C8.75076 16.32 8.77812 16.8272 8.78723 17.3343C8.79635 17.8325 8.769 18.3306 8.69605 18.8106C8.6231 19.2906 8.49544 19.7615 8.26748 20.1872C8.14894 20.3955 8.01216 20.5947 7.82979 20.7758C7.7386 20.8664 7.6383 20.9479 7.53799 21.0294C7.42857 21.1109 7.31003 21.1743 7.18237 21.2377C7.31915 21.2468 7.46505 21.2468 7.61094 21.2287C7.75684 21.2015 7.90274 21.1743 8.03951 21.1109C8.32219 21.0023 8.58663 20.8302 8.81459 20.6309C9.27052 20.2143 9.58055 19.6619 9.79027 19.1094C10 18.5479 10.1094 17.9683 10.155 17.3887C10.2006 16.8091 10.1915 16.2385 10.1368 15.677C10.0821 15.1155 9.98176 14.5359 9.79939 13.9743C9.62614 13.4128 9.37082 12.8694 9.03343 12.3713C8.69605 11.8823 8.25836 11.4385 7.7386 11.1306Z" fill="currentColor"/>
</svg>
