<svg id="defiswap" width="24" height="24" viewBox="0 0 24 24" fill="none" xmlns="http://www.w3.org/2000/svg">
    <path fill-rule="evenodd" clip-rule="evenodd"
          d="M1 6.06498L12 0L23 5.97834V18.0217L12 24L1 18.0217V6.06498ZM16.3083 5.19855H7.6L6.68333 9.35739H17.3167L16.3083 5.19855ZM9.25 19.4079L11.175 17.6751V16.8953L9.25 15.1624V12.3899L6.68333 10.7437L3.75 12.8231L7.69167 19.4079H9.25ZM10.1667 12.3899L9.89167 14.9892H14.2L13.925 12.3899L14.8417 10.0505H9.25L10.1667 12.3899ZM14.8417 19.3213H16.4L20.3417 12.8231L17.4083 10.7437L14.8417 12.3032V15.0758L12.9167 16.8087V17.6751L14.8417 19.3213Z"
          fill="currentColor"/>
</svg>
