<svg id="dodo" width="24" height="24" viewBox="0 0 24 24" fill="none" xmlns="http://www.w3.org/2000/svg">
    <path fill-rule="evenodd" clip-rule="evenodd" d="M14.8292 6.99216C14.9725 6.84314 15.0442 6.69412 15.1158 6.47059C15.2591 6.09804 15.3307 5.8 15.3307 5.42745C15.4023 4.75686 15.2591 4.23529 14.9009 4.01176C14.5427 3.86275 14.0412 4.08627 13.683 4.60784V4.53333C13.683 3.11765 13.0383 2 12.3219 2C11.6055 2 10.9607 3.11765 10.9607 4.53333C10.9607 4.60784 10.9607 4.75686 10.9607 4.83137C10.5309 4.16078 9.88616 3.86275 9.45632 4.08627C8.88321 4.38431 8.88321 5.42745 9.31305 6.39608C9.38468 6.5451 9.52796 6.84314 9.67124 6.99216C3.79686 7.96078 0.429833 12.8784 0 21H3.29539C3.65358 14.2941 6.66241 10.4941 12.0353 10.6431C16.9784 10.7176 20.7753 14.1451 20.7036 21H23.999C24.0706 12.9529 20.2738 8.25882 14.8292 6.99216Z" fill="currentColor"/>
    <path fill-rule="evenodd" clip-rule="evenodd" d="M9.31305 14.5922C8.88321 14.5922 8.59666 14.9647 8.59666 15.4118V17.498C8.59666 17.9451 8.88321 18.3176 9.31305 18.3176C9.74288 18.3176 10.0294 17.9451 10.0294 17.498V15.4118C10.0294 14.9647 9.67124 14.5922 9.31305 14.5922Z" fill="currentColor"/>
    <path fill-rule="evenodd" clip-rule="evenodd" d="M15.0442 14.5922C14.6143 14.5922 14.3278 14.9647 14.3278 15.4118V17.498C14.3278 17.9451 14.6143 18.3176 15.0442 18.3176C15.474 18.3176 15.7605 17.9451 15.7605 17.498V15.4118C15.7605 14.9647 15.4023 14.5922 15.0442 14.5922Z" fill="currentColor"/>
</svg>
