<svg id="kyber" width="24" height="24" viewBox="0 0 24 24" fill="none" xmlns="http://www.w3.org/2000/svg">
<path d="M10.6936 12.0031L19.6593 17.1317C19.9742 17.3104 20.3652 17.083 20.3652 16.7255V7.27517C20.3652 6.91232 19.9742 6.69028 19.6593 6.86899L10.6936 12.0031Z" fill="currentColor"/>
<path d="M19.4601 4.59764L13.3361 0.0963759C13.0516 -0.11311 12.6445 0.03729 12.5719 0.370319L10.3354 10.3881L19.4044 5.37113C19.7055 5.20462 19.7334 4.80176 19.4601 4.59764Z" fill="currentColor"/>
<path d="M13.3303 23.906L19.4596 19.4037C19.7329 19.1995 19.705 18.7966 19.4094 18.63L10.3354 13.6119L12.5718 23.632C12.6387 23.9651 13.0514 24.1101 13.3303 23.906Z" fill="currentColor"/>
<path d="M8.36421 11.8236L10.6823 0.928451C10.7736 0.500233 10.2906 0.191266 9.94719 0.456869L4.01235 5.03175C3.70649 5.26483 3.52941 5.63342 3.52941 6.01828V17.6235C3.52941 18.0084 3.70649 18.377 4.01235 18.61L9.94719 23.1849C10.2906 23.4505 10.7736 23.1416 10.6823 22.7133L8.36421 11.8236Z" fill="currentColor"/>
</svg>
