<svg id="luaswap" width="24" height="24" viewBox="0 0 24 24" fill="none" xmlns="http://www.w3.org/2000/svg">
<path fill-rule="evenodd" clip-rule="evenodd" d="M20.7437 20.2211C22.7538 18.0704 24 15.1759 24 12C24 7.27638 21.2864 3.21608 17.3266 1.24623C17.2424 1.20524 17.1576 1.16503 17.0723 1.12564C17.1576 1.16505 17.2423 1.20526 17.3266 1.24624C17.0653 4.32162 15.4974 5.28644 15.4974 5.28644C13.9168 3.84586 14.4473 1.68831 14.9676 0.379906C14.025 0.119986 13.0225 0 12 0C5.36683 0 0 5.36683 0 12C0 18.6332 5.36683 24 12 24C12.2412 24 12.4623 24 12.7034 23.9799C12.0602 23.7186 11.3969 23.3166 10.8743 22.7136C9.1055 20.6432 9.0854 18.8945 9.1658 18.1709V16.4623C9.1658 16.3618 9.2663 16.2613 9.3668 16.2613C9.46731 16.2613 9.56781 16.3618 9.56781 16.4623V17.8292C10.2512 17.8895 11.8392 18.2513 13.1859 19.9397C14.3115 21.3467 14.7135 22.794 14.8542 23.6583C14.8542 23.6583 14.8543 23.6583 14.8543 23.6583C15.0955 23.598 15.3367 23.5377 15.5779 23.4573C15.6181 22.4925 15.9196 21.0854 16.9648 19.6985C18.412 17.789 20.0804 17.2663 20.804 17.1256V15.8995C20.804 15.7789 20.8844 15.6985 21.005 15.6985C21.1256 15.6985 21.206 15.7789 21.206 15.8995V17.4271C21.2462 17.9498 21.2261 18.995 20.7437 20.2211C20.7437 20.2211 20.7437 20.2211 20.7437 20.2211C20.7437 20.2211 20.7437 20.2211 20.7437 20.2211ZM18.0703 7.43718C18.5527 6.43216 18.6532 5.54774 18.6331 4.90452C18.6532 4.88442 18.6532 4.84422 18.6532 4.82412V3.01507C18.6532 2.89447 18.5728 2.81407 18.4522 2.81407C18.3316 2.81407 18.2512 2.89447 18.2512 3.01507V4.0201C17.7487 4.1608 16.6231 4.64321 15.819 6.11055C14.7537 8.0603 15.1155 9.54774 15.1155 9.54774C15.1155 9.54774 17.1457 9.32663 18.0703 7.43718ZM14.5326 9.68844C14.5326 9.68844 12.8241 8.96482 12.2613 6.93467C11.8593 5.50753 12.3015 4.34171 12.5829 3.79899V2.51256C12.5829 2.39196 12.6633 2.31156 12.7839 2.31156C12.9045 2.31156 12.9849 2.39196 12.9849 2.51256V3.53769C13.3869 3.85929 14.3316 4.72362 14.7739 6.25125C15.3367 8.1809 14.5326 9.68844 14.5326 9.68844ZM18.2915 12.1005C19.2764 10.6935 19.2764 9.32666 19.196 8.70355V7.21611C19.196 7.09551 19.1156 7.0151 18.995 7.0151C18.8744 7.0151 18.794 7.09551 18.794 7.21611V8.40204C18.191 8.56284 16.8844 9.06536 16.0804 10.4724C15.0151 12.3618 15.196 14.0302 15.196 14.0302C15.196 14.0302 16.9447 14.0302 18.2915 12.1005ZM14.814 14.1709C14.814 14.1709 12.9648 14.191 11.7185 12.1809C10.8542 10.7739 10.8542 9.52766 10.8944 8.88444V7.3568C10.8944 7.2362 10.9748 7.1558 11.0954 7.1558C11.216 7.1558 11.2964 7.2362 11.2964 7.3568V8.52263C11.8592 8.70353 13.005 9.18595 13.8894 10.4523C15.1557 12.2814 14.814 14.1709 14.814 14.1709ZM18.9346 16.9045C20.1607 14.995 20.02 13.2663 19.9396 12.7437V11.4774C19.9396 11.3568 19.8592 11.2764 19.7386 11.2764C19.618 11.2764 19.5376 11.3568 19.5376 11.4774V12.6432C18.8341 12.8241 17.3065 13.4071 16.4422 14.9749C15.2763 17.0854 15.3567 19.0352 15.3567 19.0352C15.3567 19.0352 17.4673 19.196 18.9346 16.9045ZM10.5929 11.6784V12.8643C11.1557 12.9246 12.422 13.2663 13.6482 14.8945C15.4572 17.2663 14.9748 19.1759 14.9748 19.1759C14.9748 19.1759 13.1256 19.4975 11.3366 17.1457C9.98988 15.3568 10.0703 13.8091 10.1909 13.1658V11.6784C10.1909 11.5578 10.2713 11.4774 10.3919 11.4774C10.5125 11.4774 10.5929 11.5578 10.5929 11.6784Z" fill="currentColor"/>
</svg>
