<svg id="miniswap" width="24" height="24" viewBox="0 0 24 24" fill="none" xmlns="http://www.w3.org/2000/svg">
<path d="M23.1688 10.1912L19.797 6.86632C19.7736 6.8429 19.7502 6.81949 19.7268 6.80778C18.6029 5.73071 16.8351 5.74241 15.7229 6.8429L12 10.5658L8.26534 6.83119C7.17656 5.75412 5.43217 5.719 4.30827 6.76095C4.26144 6.78436 4.22632 6.81949 4.17949 6.86632L0.819486 10.2029C-0.281002 11.3268 -0.269295 13.1297 0.854608 14.2302C1.9668 15.319 3.73461 15.319 4.8468 14.2302L6.23997 12.8605L9.95119 16.5834C11.0049 17.637 12.6907 17.6956 13.8263 16.7356C13.9083 16.7005 13.9785 16.6536 14.037 16.5834L17.7483 12.8722L19.1297 14.2302C20.2419 15.3424 22.0449 15.3424 23.157 14.2302C24.2692 13.118 24.281 11.3034 23.1688 10.1912ZM16.7649 7.87314C17.3268 7.35802 18.1931 7.39314 18.7083 7.9551C19.1883 8.48192 19.1883 9.28973 18.7083 9.82827L14.7161 13.8322C14.5873 13.3522 14.3297 12.919 13.9785 12.5678L13.0302 11.6195L16.7649 7.87314ZM3.80485 13.1883C3.26631 13.7268 2.39997 13.7268 1.86144 13.1883C1.60388 12.9307 1.45168 12.5795 1.45168 12.2166C1.45168 11.8536 1.59217 11.5024 1.84973 11.2449L3.50046 9.60583C3.62924 10.0858 3.8868 10.519 4.22631 10.8702L5.18632 11.8302L3.80485 13.1883ZM10.9931 15.5414L5.27997 9.82827C4.75314 9.27802 4.76485 8.39997 5.3151 7.87314C5.85363 7.36973 6.68485 7.35802 7.22339 7.87314L12.9483 13.598C13.4868 14.1366 13.4868 15.0029 12.9483 15.5531C12.4097 16.08 11.5317 16.08 10.9931 15.5414ZM22.1268 13.1883C21.5883 13.7268 20.7102 13.7268 20.1717 13.1883L18.7902 11.8302L19.7502 10.8702C20.1014 10.519 20.3473 10.0975 20.4761 9.61753L22.1151 11.2331C22.6653 11.7834 22.6653 12.6497 22.1268 13.1883Z" fill="currentColor"/>
</svg>
