<svg id="mooniswap" width="24" height="24" viewBox="0 0 24 24" fill="none" xmlns="http://www.w3.org/2000/svg">
<path d="M13.265 13.1753C13.1015 12.8806 12.8275 12.4672 12.467 12.1678C12.3708 12.2533 12.3131 12.4387 12.2939 12.5527C12.2483 12.8384 12.3951 12.8786 12.6698 12.9539C12.8293 12.9976 13.0319 13.0531 13.265 13.1753Z" fill="currentColor"/>
<path fill-rule="evenodd" clip-rule="evenodd" d="M3.79262 8.78816C4.56733 4.13055 8.45082 0.504332 13.2734 0.0484078C12.9108 0.0163667 12.5436 0 12.1726 0C5.91254 0 0.756179 4.65852 0.0760783 10.6508C0.0258122 11.0937 0 11.5439 0 12C0 12.7192 0.0641784 13.4236 0.187201 14.108C0.205596 14.2104 0.225307 14.3122 0.246316 14.4137C0.294414 14.6459 0.349316 14.8756 0.410806 15.1027C0.453988 15.2622 0.50042 15.4204 0.550027 15.5772C0.615432 15.7839 0.686357 15.9883 0.762631 16.1901C0.791801 16.2672 0.821753 16.344 0.852479 16.4204C2.27116 19.9482 5.33761 22.6552 9.11572 23.6185C10.0925 23.8675 11.1169 24 12.1726 24C12.5305 24 12.8848 23.9848 13.2349 23.9549C18.4862 23.5074 22.7837 19.773 24 14.8493C22.3228 18.4778 18.6116 21 14.3028 21C12.6046 21 10.9992 20.6082 9.57463 19.9113C9.59497 19.5151 9.60989 19.1346 9.62369 18.7826L9.62372 18.782C9.65284 18.0396 9.67699 17.4237 9.73648 17.0532C9.94799 15.8319 10.3374 14.9859 10.5152 14.6485C10.937 15.1267 11.2036 15.3152 11.3973 15.4523C11.6098 15.6026 11.7346 15.6909 11.8805 16.0315C11.9521 16.203 12.0207 16.5147 12.0886 16.8232C12.1712 17.1985 12.2527 17.5688 12.3372 17.6758C12.491 17.8706 13.6399 18.555 14.111 18.5455C14.2649 18.5312 14.4187 18.498 14.5629 18.4409C14.7889 18.3554 15.0052 18.2556 15.2167 18.1368C15.2744 18.1035 15.3321 18.0702 15.3801 18.0417C15.6782 17.8611 16.4425 17.2956 16.4329 16.8014L16.4329 16.7999C16.4281 16.5046 16.4177 15.8693 15.9378 15.4802C15.8945 15.3804 15.8464 15.2568 15.7936 15.1095C15.6734 14.7768 15.5388 14.3396 15.4282 13.9072C15.3465 13.603 15.284 13.2941 15.2407 12.9804C15.2187 12.8208 15.3075 12.5072 15.3931 12.2051C15.4756 11.9138 15.5551 11.6333 15.5292 11.5119C15.4763 11.3409 15.409 11.1745 15.3321 11.0129C15.2495 10.8334 15.1599 10.6293 15.0753 10.4369L15.034 10.3429C14.9763 10.2098 14.9283 10.0862 14.8898 9.98168L16.3175 6.72154L14.9186 8.03795C14.9331 7.49142 14.9042 5.97066 13.7361 5.48592C13.7553 5.5572 13.7649 6.08947 13.7168 6.72154C13.4621 5.42889 11.5296 4.72553 10.3758 5.30532C10.4576 5.33859 10.8998 5.66651 11.0152 5.99442C10.6354 5.86611 10.1691 5.73304 9.67879 5.71878C9.0827 5.69977 8.39527 5.76155 7.87128 6.07046C7.4146 6.33659 7.10213 6.78807 6.881 7.26806C6.30894 7.69102 5.68881 7.4439 5.78976 6.64075C5.53481 6.6455 5.31657 6.73978 5.1339 6.88779C6.78703 4.3678 9.66263 2.7 12.9334 2.7C18.0595 2.7 22.215 6.7966 22.215 11.85C22.215 15.14 20.4537 18.0244 17.8099 19.6368C21.2939 18.1746 23.7366 14.7685 23.7366 10.8C23.7366 5.49807 19.3767 1.2 13.9985 1.2C10.0169 1.2 6.59336 3.5557 5.08386 6.93044C4.57249 7.38845 4.36033 8.27166 4.41971 8.70328L4.4166 8.70405C4.36837 8.71603 4.11807 8.77815 3.79262 8.78816ZM3.65469 10.2522C3.6625 9.91974 3.68598 9.59115 3.72443 9.26707C3.93088 9.23587 4.13313 9.18171 4.32731 9.12971C4.49297 9.08535 4.65276 9.04256 4.80428 9.01694C5.06145 8.97348 5.31662 8.99361 5.57161 9.01373C5.87429 9.0376 6.17673 9.06146 6.482 8.97892C6.82812 8.88863 7.14539 8.69853 7.38575 8.4324C7.45305 8.36111 7.51555 8.28507 7.56843 8.20903C7.47709 8.28032 7.38095 8.34685 7.27999 8.40388C6.99156 8.57497 6.66467 8.68427 6.32817 8.72705C6.08781 8.75556 5.84744 8.72705 5.60709 8.69853C5.38115 8.66051 5.15521 8.65101 4.92927 8.66526C4.88601 8.27557 4.96773 7.88587 5.16482 7.54845C5.25616 7.39638 5.36192 7.25856 5.4821 7.13024C5.47729 7.26331 5.51094 7.39638 5.58305 7.51043C5.86668 7.97142 6.482 7.99042 6.91465 7.7433C7.12246 7.62377 7.28944 7.46094 7.45468 7.29979C7.7099 7.0509 7.96099 6.80604 8.352 6.73104C9.09782 6.58654 9.67417 6.82623 10.1129 7.0087C10.237 7.06027 10.35 7.10728 10.4528 7.13975C9.78936 6.69777 8.93848 6.26531 8.14048 6.46016C8.60678 6.19877 9.17403 6.14175 9.69802 6.14175C11.3647 6.14575 11.9983 6.77538 12.2538 7.02934C12.3012 7.07644 12.3356 7.11062 12.3612 7.12549C12.2458 6.94015 12.116 6.76431 11.967 6.60273C11.8276 6.27006 11.5151 5.77581 11.1017 5.47166C13.3515 5.48116 13.8274 7.42964 13.3803 8.47517C14.0293 8.19003 14.0533 6.49342 14.0245 6.14175C14.6591 6.74055 14.5821 8.08072 14.2841 8.63675L13.015 9.8201L12.991 9.84386C12.9765 9.86762 12.9621 9.90088 12.9573 9.9294L12.8467 9.77732L12.6977 9.57297C12.6112 9.26882 12.3997 9.00268 12.193 8.8316C11.9577 8.62985 11.6241 8.5253 11.3059 8.4256C10.987 8.32568 10.6837 8.23063 10.5104 8.04745C10.3854 8.37537 10.3566 8.80308 10.4239 9.17377C10.4239 9.19278 10.4287 9.21654 10.4335 9.23555C10.2268 9.29733 10.0297 9.44466 9.86146 9.63C9.45766 10.072 9.20288 10.7516 9.37594 11.1318C8.58275 11.0082 8.94329 9.4399 8.9481 9.43515C8.94329 9.43515 6.97233 10.5234 6.6166 10.8038C6.13588 11.184 5.69362 11.7638 5.71765 12.3911C5.46287 12.1012 5.65035 10.9607 5.86187 10.5995C5.09752 11.032 4.84755 12.125 4.83313 12.5004C4.66423 12.1108 4.73856 11.7009 4.80672 11.3251C4.82586 11.2195 4.84452 11.1167 4.85716 11.0177C4.18637 11.9704 4.03548 12.6844 4.01221 12.7946L4.0111 12.7998C3.99521 12.8901 3.98261 12.982 3.9743 13.0746C3.76366 12.2508 3.65178 11.3883 3.65178 10.5C3.65178 10.476 3.65186 10.452 3.65202 10.4281C3.8923 10.3405 4.1374 10.2633 4.37925 10.1871L4.45816 10.1623C4.19105 10.1774 3.9199 10.2031 3.65469 10.2522ZM14.76 8.64625L15.5003 7.90963L14.1351 10.704L14.1255 10.723C13.9524 10.7706 13.7168 10.6898 13.539 10.5567C13.3707 10.4332 13.2602 10.2573 13.3178 10.091L13.6303 9.78208C13.6544 9.86762 13.6976 9.94841 13.7601 10.0149C13.8803 10.1433 14.0678 10.2193 14.3322 10.1575C14.2697 10.148 14.212 10.1338 14.1543 10.11C13.9187 10.0149 13.8226 9.80584 13.7745 9.63475L14.2168 9.19278C14.2985 9.36862 14.4764 9.51594 14.7071 9.44941C14.5245 9.42089 14.4091 9.22605 14.337 9.06922L14.6831 8.72229C14.7408 8.79833 14.8369 8.8316 14.9331 8.81259C14.8513 8.79833 14.7985 8.71754 14.76 8.64625ZM12.193 13.0042C12.0487 12.8854 12.0343 12.7048 12.0632 12.5147C12.0968 12.3436 12.1593 12.1535 12.2795 12.0252C12.1016 11.9016 11.8949 11.8161 11.6786 11.7828C12.217 11.6545 12.5775 11.8541 12.9861 12.2486C13.2409 12.4957 13.5438 13.1087 13.6063 13.2893C13.6784 13.5032 14.1831 13.3274 14.1831 13.3274C14.0774 13.4604 13.8611 13.6268 13.6303 13.6315C13.4883 13.6354 13.4596 13.5721 13.4087 13.46C13.3976 13.4355 13.3854 13.4086 13.3707 13.3796C13.1382 13.2741 12.895 13.2194 12.6853 13.1723C12.4702 13.124 12.2903 13.0836 12.193 13.0042ZM15.0677 16.6873L15.0244 16.6398C14.9763 16.2073 14.8994 15.9697 14.6687 15.9412C14.6687 15.9412 14.7215 15.7558 14.9379 15.8604C15.1399 15.9536 15.1029 16.3287 15.0737 16.6256L15.0702 16.6613L15.0677 16.6873ZM15.2407 16.7538C15.2888 16.3546 15.183 15.523 14.7985 15.5182C14.5485 15.5135 14.4187 15.5895 14.361 15.6418L14.3177 15.694C14.3129 15.656 14.3129 15.618 14.3226 15.58C14.3261 15.2236 14.1766 14.8949 14.0265 14.5645C13.9704 14.4412 13.9142 14.3176 13.8659 14.1923C14.1543 14.506 14.3947 14.8576 14.5821 15.2331C14.6879 15.1713 14.8225 15.1713 14.9715 15.2806C15.433 15.618 15.4282 16.4592 15.2407 16.7538ZM14.385 17.5712C13.9572 17.4002 13.0342 17.0247 12.9813 16.8014C12.9477 16.6303 13.0006 16.4544 13.1208 16.3309C13.2313 16.5685 13.4236 16.7016 13.7024 16.8584C13.7024 16.8584 13.3419 16.4877 13.3323 16.1978C13.3659 16.1883 13.3996 16.1835 13.4332 16.1835C13.5682 16.1878 13.6488 16.3866 13.7515 16.6401C13.8793 16.9553 14.0414 17.3553 14.385 17.5712ZM13.0823 13.4889C12.7842 13.603 12.342 13.5412 12.1064 13.4224C11.7988 13.2656 11.669 12.9091 11.6546 12.567C11.6942 12.633 11.7291 12.6989 11.7629 12.7627C11.8725 12.9699 11.9714 13.1566 12.1882 13.2656C12.3784 13.3614 12.6491 13.4095 12.8741 13.4495C12.9504 13.4631 13.0214 13.4757 13.0823 13.4889ZM6.66717 15.4249C6.6419 15.6298 6.62725 15.8806 6.61416 16.1049C6.60235 16.3073 6.59179 16.4881 6.57583 16.594C6.37874 16.2756 6.29221 15.9002 6.32586 15.5295C6.50853 13.4907 8.18144 12.1458 8.25836 12.0935C7.1527 13.5382 6.76331 14.674 6.66717 15.4249Z" fill="currentColor"/>
<path d="M19.4762 11.85C19.4762 15.3256 17.5105 18.3485 14.6153 19.8974C18.2703 19.0759 20.9977 15.852 20.9977 12C20.9977 8.47951 18.7195 5.48358 15.5371 4.36688C17.9198 6.02314 19.4762 8.75739 19.4762 11.85Z" fill="currentColor"/>
<path d="M16.7373 10.8C17.0031 11.062 17.0416 11.7 17.0416 11.7C17.0416 11.7 17.0802 11.062 17.346 10.8C17.6117 10.538 18.2589 10.5 18.2589 10.5C18.2589 10.5 17.6117 10.462 17.346 10.2C17.0802 9.93803 17.0416 9.3 17.0416 9.3C17.0416 9.3 17.0031 9.93803 16.7373 10.2C16.4716 10.462 15.8244 10.5 15.8244 10.5C15.8244 10.5 16.4716 10.538 16.7373 10.8Z" fill="currentColor"/>
<path d="M10.7271 18.525C10.9264 18.7215 10.9553 19.2 10.9553 19.2C10.9553 19.2 10.9843 18.7215 11.1836 18.525C11.3829 18.3285 11.8683 18.3 11.8683 18.3C11.8683 18.3 11.3829 18.2715 11.1836 18.075C10.9843 17.8785 10.9553 17.4 10.9553 17.4C10.9553 17.4 10.9264 17.8785 10.7271 18.075C10.5278 18.2715 10.0424 18.3 10.0424 18.3C10.0424 18.3 10.5278 18.3285 10.7271 18.525Z" fill="currentColor"/>
<path d="M17.8024 13.05C17.9353 13.181 17.9546 13.5 17.9546 13.5C17.9546 13.5 17.9739 13.181 18.1067 13.05C18.2396 12.919 18.5632 12.9 18.5632 12.9C18.5632 12.9 18.2396 12.881 18.1067 12.75C17.9739 12.619 17.9546 12.3 17.9546 12.3C17.9546 12.3 17.9353 12.619 17.8024 12.75C17.6696 12.881 17.346 12.9 17.346 12.9C17.346 12.9 17.6696 12.919 17.8024 13.05Z" fill="currentColor"/>
</svg>
