<svg width="24" height="24" viewBox="0 0 24 24" fill="none" xmlns="http://www.w3.org/2000/svg">
<path d="M18.5454 11.9939C18.5454 8.56087 15.9052 5.74496 12.5454 5.46756V0C18.9197 0.285256 24 5.54617 24 11.9939C24 15.0436 22.8636 17.8276 20.9913 19.9453L17.121 16.0729C18.0126 14.9539 18.5454 13.5361 18.5454 11.9939Z" fill="#FFCB32"/>
<path d="M20.2323 20.7294L16.3723 16.8674C15.2133 17.9091 13.6806 18.5427 12 18.5427C10.3194 18.5427 8.78674 17.9091 7.62768 16.8674L3.7677 20.7294C5.91643 22.7571 8.81314 24 12 24C15.1869 24 18.0836 22.7572 20.2323 20.7294Z" fill="#FF8F37"/>
<path d="M3.00866 19.9453C1.1364 17.8276 0 15.0436 0 11.9939C0 5.54617 5.0803 0.285256 11.4545 0V5.46756C8.09479 5.74496 5.45455 8.56087 5.45455 11.9939C5.45455 13.5361 5.9874 14.9539 6.87897 16.0729L3.00866 19.9453Z" fill="#5BB299"/>
</svg>
