<svg id="sakeswap" width="24" height="24" viewBox="0 0 24 24" fill="none" xmlns="http://www.w3.org/2000/svg">
<path d="M24 12C24 13.3846 23.7692 14.6923 23.3077 15.9231C21.7692 20.2308 17.9231 23.4615 13.2308 23.9231C12.8462 23.9231 12.3846 24 12 24C5.38462 24 0 18.6154 0 12C0 5.38462 5.38462 0 12 0C18.6154 0 24 5.38462 24 12Z" fill="#4BC2DE"/>
<path d="M23.3077 15.9231C21.7692 20.2308 17.9231 23.4616 13.2308 23.9231L7.5 18L9.76922 14.1539L13.1538 5.69232L23.3077 15.9231Z" fill="#13A6CB"/>
<path d="M7.17673 16.5398C7.55173 14.2148 8.22673 12.0398 9.20173 9.93977C9.42673 9.48977 9.42673 9.03977 9.27673 8.58977L8.45173 6.18977C8.37673 5.88977 8.52673 5.58977 8.75173 5.51477C8.82673 5.51477 8.82673 5.51477 8.90173 5.51477H12.5767C12.8767 5.51477 13.1017 5.73977 13.1017 6.03977C13.1017 6.11477 13.1017 6.18977 13.1017 6.18977L12.2767 8.58977C12.1267 9.03977 12.1267 9.56477 12.3517 9.93977C13.3267 12.0398 14.0767 14.2898 14.3767 16.5398C14.5267 17.3648 13.9267 18.1148 13.1017 18.2648C13.0267 18.2648 12.9517 18.2648 12.8767 18.2648H8.52673C7.70173 18.2648 7.02673 17.5898 7.02673 16.7648C7.17673 16.6898 7.17673 16.6148 7.17673 16.5398Z" fill="white"/>
<path d="M14.5267 16.5398C14.1517 14.2148 13.4767 12.0398 12.5017 9.93977C12.2767 9.48977 12.2767 9.03977 12.4267 8.58977L13.2517 6.18977C13.3267 5.88977 13.1767 5.58977 12.9517 5.51477C12.8767 5.51477 12.8767 5.51477 12.8017 5.51477H11.0017V18.2655H13.1093C13.9343 18.2655 14.6767 17.6648 14.6767 16.8398C14.6017 16.6898 14.5267 16.6148 14.5267 16.5398Z" fill="#D0D1D3"/>
<path d="M15.2768 18.3397H13.8518C13.3268 18.3397 12.8768 17.8147 12.6518 17.0647L11.9768 14.7397H17.0768L16.4018 17.0647C16.1768 17.8147 15.7268 18.3397 15.2768 18.3397Z" fill="#D72449"/>
<path d="M14.5267 14.7397V18.3397H15.2017C15.7267 18.3397 16.1767 17.8147 16.4017 17.0647L17.0767 14.7397L14.5267 14.7397Z" fill="#A11D38"/>
</svg>
