<svg id="sakeswap" width="24" height="24" viewBox="0 0 24 24" fill="none" xmlns="http://www.w3.org/2000/svg">
<path fill-rule="evenodd" clip-rule="evenodd" d="M23.3077 15.9231C23.7692 14.6923 24 13.3846 24 12C24 5.38461 18.6154 0 12 0C5.38461 0 0 5.38461 0 12C0 18.6154 5.38461 24 12 24C12.1923 24 12.4038 23.9808 12.6154 23.9615C12.8269 23.9423 13.0385 23.9231 13.2308 23.9231C17.9231 23.4615 21.7692 20.2308 23.3077 15.9231ZM8.08399 9.16034C6.72663 12.0839 5.78692 15.1119 5.26486 18.3486C5.26486 18.4531 5.26486 18.5575 5.05603 18.6619C5.05603 19.8104 5.99574 20.7501 7.14428 20.7501H13.2002H13.5134C13.6461 20.726 13.7745 20.6908 13.8976 20.6455C14.1025 20.7804 14.3247 20.8545 14.5575 20.8545H16.5414C17.1679 20.8545 17.7943 20.1236 18.1076 19.0795L19.0473 15.8427H14.8257C14.2907 13.5579 13.4641 11.303 12.4693 9.16034C12.1561 8.63828 12.1561 7.90739 12.3649 7.28091L13.5134 3.93971V3.73089C13.5134 3.31324 13.2002 3 12.7826 3H7.66634H7.45752C7.14428 3.10441 6.93546 3.52206 7.03987 3.93971L8.18841 7.28091C8.39723 7.90739 8.39723 8.53386 8.08399 9.16034Z" fill="currentColor"/>
<path opacity="0.2" d="M16.5415 20.8545H14.5577C13.8268 20.8545 13.2003 20.1236 12.8871 19.0795L11.9474 15.8427H19.0474L18.1077 19.0795C17.7945 20.1236 17.168 20.8545 16.5415 20.8545Z" fill="currentColor"/>
</svg>
