<svg id="sushiswap" width="24" height="24" viewBox="0 0 24 24" fill="none" xmlns="http://www.w3.org/2000/svg">
<path d="M23.9822 8.05969C23.9644 9.66444 24.2133 11.3405 23.1111 12.7491C22.9155 12.9988 23.1644 13.1949 23.2888 13.3732C23.7511 14.0864 23.9822 14.871 23.9822 15.709C23.9822 16.7967 23.9644 17.9022 23.9644 18.9899C23.9466 20.1845 23.4311 21.1652 22.6133 21.9854C20.0177 24.5887 14.7555 24.66 12.0711 22.1637C11.4311 21.5753 10.9333 20.8799 10.7022 20.024C10.6133 19.6674 10.4533 19.5604 10.0977 19.6674C8.88883 20.024 7.76884 19.7387 6.68439 19.186C5.3155 18.4906 3.92884 17.8487 2.57773 17.1176C0.835503 16.2261 -0.0356082 14.764 -5.2613e-05 12.7491C0.0177252 11.4832 -5.2613e-05 10.1994 -5.2613e-05 8.93339C-5.2613e-05 7.82789 0.46217 7.00768 1.4755 6.50843C5.59995 4.42225 9.74217 2.35389 13.8844 0.285544C14.6488 -0.106729 15.4133 -0.0710677 16.1777 0.303375C18.3288 1.37321 20.4977 2.46088 22.6488 3.54855C23.5199 3.97648 23.9999 4.67187 23.9822 5.67039C23.9822 6.45493 23.9822 7.25731 23.9822 8.05969ZM1.7955 9.78926C1.38661 10.7878 1.61773 11.8398 1.58217 12.874C1.54661 14.2112 2.15106 15.1919 3.35995 15.7982C4.49773 16.3688 5.65328 16.8858 6.7555 17.5277C8.26661 18.4193 9.70661 18.4728 11.2533 17.5634C11.8399 17.2068 12.1066 16.9037 12.0355 16.2261C11.8577 14.55 12.7288 13.4624 14.1333 12.767C15.9466 11.8576 17.8488 11.715 19.6977 12.4995C20.6577 12.9096 21.2266 12.6422 21.7244 11.9468C22.8977 10.3598 22.5244 8.61244 22.1511 6.86504C22.7022 5.50991 22.6311 5.34944 21.3866 4.72537C19.5199 3.78034 17.6355 2.85315 15.7866 1.87247C15.2355 1.58718 14.7911 1.56935 14.2222 1.87247C10.3644 3.83384 6.47106 5.77737 2.5955 7.70308C1.43995 8.27366 1.36884 8.50545 1.7955 9.78926ZM17.2444 12.7491C16.0355 12.8383 14.8799 13.0701 13.8844 13.7833C12.4444 14.8175 12.3911 16.4757 13.7422 17.6169C15.5022 19.0968 19.0222 19.079 20.7644 17.5991C22.0444 16.5114 22.0088 14.9066 20.6933 13.8725C19.6799 13.0701 18.4711 12.8383 17.2444 12.7491Z" fill="currentColor"/>
<path opacity="0.8" d="M1.79556 9.78897C1.35112 8.50517 1.44001 8.27337 2.59556 7.68496C6.47112 5.74142 10.3645 3.81572 14.2222 1.85435C14.7911 1.56906 15.2356 1.56906 15.7867 1.85435C17.6356 2.83503 19.52 3.76222 21.3867 4.70725C22.6311 5.33132 22.7022 5.49179 22.1511 6.84692C18.0445 8.89744 13.92 10.948 9.81334 13.0163C9.42223 13.2124 9.03112 13.4442 8.5689 13.1946C6.3289 12.0535 4.07112 10.9301 1.79556 9.78897Z" fill="currentColor"/>
<path d="M17.1733 14.2644C17.7422 14.2288 18.2756 14.3179 18.7733 14.6389C19.7867 15.2808 19.7511 16.3863 18.6667 16.939C18.2222 17.1708 17.7245 17.2778 17.2089 17.1887C17.1911 16.208 17.1911 15.2451 17.1733 14.2644Z" fill="currentColor"/>
<path opacity="0.8" d="M17.1733 14.2644C17.1733 15.2451 17.1911 16.2079 17.2089 17.1886C15.9467 17.1708 15.1111 16.6537 15.04 15.8513C14.9689 14.9955 15.68 14.4784 17.1733 14.2644Z" fill="currentColor"/>
</svg>
