<svg id="swerve" width="24" height="25" viewBox="0 0 24 25" fill="none" xmlns="http://www.w3.org/2000/svg">
    <path d="M16.0401 17.2307C16.0732 17.2385 16.1063 17.2543 16.2055 17.2938C16.0897 17.491 15.974 17.6804 15.8416 17.9092C15.7837 17.7671 15.7589 17.6961 15.7259 17.5936C14.0885 19.2583 12.203 20.4733 9.76339 20.8204C9.59799 21.0886 9.40779 21.3963 9.20932 21.7119C9.2424 21.7593 9.27548 21.8066 9.31682 21.8618C9.22586 22.1695 8.85372 22.3746 8.95296 22.7691C8.71314 23.0295 8.65525 23.3451 8.6966 23.6527C8.56428 23.779 8.45677 23.8815 8.33273 24.0078C8.01848 23.8342 7.68769 23.7632 7.37344 24.0157C7.07573 23.8263 7.05919 23.5423 6.95995 23.2819C6.86072 23.0452 6.6457 22.8559 6.47204 22.635C6.47204 22.6271 6.47204 22.6034 6.47204 22.5877C6.47204 22.2247 6.38934 21.8382 6.49685 21.5147C6.59609 21.2149 6.65397 20.8914 6.76975 20.6074C6.94341 20.1656 6.8938 19.8737 6.48858 19.5896C6.29838 19.4634 6.19914 19.2109 6.08336 18.9979C5.81046 18.493 5.51275 17.9959 5.30601 17.4673C5.02484 16.7573 4.90906 16.4101 5.14889 15.6527C5.20677 15.4713 5.23158 15.2662 5.2812 15.0689C5.40525 14.5088 5.71123 14.0669 6.13298 13.6882C6.6209 13.6882 6.70359 13.7277 7.12535 14.1143C7.12535 14.2405 7.12535 14.3668 7.12535 14.4851C7.48922 14.777 8.15079 14.6429 8.26657 15.2819C8.20868 15.4239 8.14252 15.5975 8.05156 15.8263C8.20041 15.8105 8.34927 15.7948 8.56428 15.7711C8.55601 15.7632 8.6139 15.8184 8.68006 15.8737C8.4485 16.1735 8.64698 16.5048 8.54774 16.8125C9.16797 16.9703 9.66415 16.7099 10.1438 16.5206C10.6813 16.2997 11.2106 16.0472 11.7068 15.7159C12.3187 15.3056 12.6495 14.706 13.0134 14.1143C13.0713 14.0196 13.0217 13.8618 13.0217 13.7356C12.8563 13.5857 12.7239 13.4437 12.451 13.3884C12.112 13.3174 11.7977 13.0729 11.4918 12.8756C11.1527 12.6547 10.764 12.5285 10.4332 12.276C9.77993 11.779 9.15143 11.274 8.79583 10.5167C8.4485 9.78293 8.22522 9.00975 7.91924 8.26024C7.9854 7.79476 7.80347 7.32139 8.02675 6.84013C8.22522 6.4062 8.47331 6.07484 8.91161 5.86971C8.9695 5.84604 9.01084 5.78293 9.05219 5.73559C9.55665 5.16754 10.21 4.83618 10.9294 4.60738C11.1775 4.52849 11.3925 4.35492 11.6241 4.23658C11.9301 4.0709 12.2195 3.9131 12.5668 3.82632C12.848 3.75531 13.0795 3.53441 13.2201 3.22671C13.5178 2.60344 13.8404 1.98017 14.2125 1.39634C14.5764 0.820403 15.0064 0.291804 15.8499 0.0235594C16.0566 -0.000109271 16.4122 -0.00799882 16.743 0.276025C16.6769 0.323362 16.6273 0.394368 16.5611 0.402257C16.2965 0.457484 16.0318 0.504822 15.9161 0.796735C15.9161 0.796735 15.9078 0.788845 15.8995 0.780956C15.8664 0.812514 15.8251 0.844072 15.792 0.867741C15.8086 0.88352 15.8168 0.891409 15.8334 0.907188C15.8664 0.87563 15.8913 0.836182 15.9161 0.796735C15.9988 0.788845 16.0815 0.788845 16.1724 0.788845C16.1311 0.851961 16.0897 0.922967 16.0236 1.04131C16.4371 0.993973 16.7513 0.646833 17.2061 0.828293C17.2144 0.986084 17.2227 1.19121 17.2309 1.38056C17.3219 1.41212 17.3963 1.43579 17.479 1.46735C17.3467 2.09851 16.7265 2.54821 16.8423 3.26616C16.5528 3.53441 16.2551 3.80265 16.3047 4.25236C16.6438 4.68628 17.0242 5.09654 17.3219 5.55413C17.5948 5.98806 17.785 6.46932 18.0083 6.92691C17.9008 7.25038 17.7933 7.56596 17.6775 7.90521C17.661 7.88943 17.6196 7.85788 17.57 7.82632C17.2558 8.07089 16.9332 8.32336 16.5776 8.59949C16.4619 8.50482 16.3544 8.41803 16.222 8.31547C16.1145 8.31547 15.9905 8.31547 15.8664 8.31547C15.4778 8.07878 15.453 7.67642 15.3289 7.26616C15.0726 7.30561 14.8162 7.33717 14.5185 7.3845C14.5019 7.34506 14.4606 7.25827 14.3944 7.13993C13.7659 7.44762 13.1044 7.70798 12.5172 8.07878C12.0706 8.36281 11.5579 8.63105 11.3594 9.19121C11.6158 9.00186 11.8639 8.80462 12.1285 8.62316C12.1864 8.58372 12.2857 8.5916 12.3684 8.57582C12.0706 8.8993 11.7647 9.22277 11.4339 9.58569C11.7729 9.79871 12.1037 10.0591 12.4759 10.2247C13.2698 10.5955 14.014 11.0453 14.5929 11.7001C15.1139 12.2997 15.6184 12.9072 15.9326 13.6409C16.0732 13.9644 16.1724 14.3036 16.3047 14.635C16.3544 14.7612 16.4371 14.8796 16.5528 15.0926C16.5528 15.3608 16.5528 15.7395 16.5528 16.1498C16.3709 16.4654 16.1145 16.8046 16.0401 17.2307C16.0401 17.2307 16.0318 17.2228 16.0236 17.2149C15.9905 17.2464 15.9491 17.278 15.9161 17.3017C15.9326 17.3174 15.9409 17.3253 15.9574 17.3411C15.9822 17.3017 16.0153 17.2701 16.0401 17.2307ZM14.0388 6.39831C13.4848 6.66656 12.9555 6.85591 12.4924 7.1636C12.021 7.47129 11.4173 7.65275 11.2023 8.26024C11.6406 7.97622 12.0789 7.72375 12.5586 7.51863C13.1457 7.26616 13.6998 6.9348 14.2704 6.64289C14.3779 6.58766 14.4854 6.52454 14.7004 6.39831C14.3614 6.39831 14.1712 6.39831 14.0388 6.39831ZM14.2952 17.9249C13.3442 18.4614 12.5255 18.919 11.7068 19.3766C11.6985 19.3845 11.7068 19.4161 11.7068 19.495C12.3022 19.6133 12.7157 19.1715 13.1953 18.99C13.6336 18.8243 13.9809 18.4851 14.2952 17.9249ZM13.1374 4.89141C12.9472 4.89141 12.7901 4.82829 12.5916 4.93086C11.8887 5.31744 11.1527 5.65669 10.4415 6.01961C10.3671 6.05906 10.3175 6.13796 10.2596 6.20107C10.2182 6.24841 10.1851 6.29575 10.1521 6.34308C11.1527 5.84604 12.2195 5.53046 13.1374 4.89141ZM10.2844 17.8539C11.4587 17.6409 12.2857 17.1912 12.7157 16.5837C12.6247 16.5837 12.5007 16.5443 12.4593 16.5916C11.8474 17.1202 11.0535 17.3411 10.2844 17.8539ZM10.8136 6.57977C11.5662 6.21685 12.327 5.85393 13.0795 5.48312C13.1044 5.47523 13.1044 5.4279 13.1292 5.38056C12.972 5.38056 12.8232 5.38056 12.7157 5.38056C12.0706 5.8066 11.3181 6.01961 10.8136 6.57977ZM11.6241 17.8697C11.7812 17.8066 11.9466 17.7435 12.0955 17.6646C12.236 17.5857 12.3684 17.491 12.5089 17.3963C12.7322 17.2464 12.7653 17.207 12.8232 17.0571C12.3601 17.2701 11.9466 17.491 11.6241 17.8697Z" fill="currentColor"/>
</svg>
