<svg id="weth" width="24" height="24" viewBox="0 0 24 24" fill="none" xmlns="http://www.w3.org/2000/svg">
<path d="M14.0562 5.71191C10.0308 5.71191 6.76697 8.98206 6.76697 13.0152C6.76697 17.0484 10.0308 20.3185 14.0562 20.3185C18.0816 20.3185 21.3454 17.0484 21.3454 13.0152C21.3454 8.98206 18.0598 5.71191 14.0562 5.71191ZM14.0562 19.2503C10.64 19.2503 7.85491 16.4598 7.85491 13.037C7.85491 9.61428 10.64 6.82376 14.0562 6.82376C17.4723 6.82376 20.2574 9.59248 20.2574 13.0152C20.2574 16.438 17.4723 19.2503 14.0562 19.2503Z" fill="currentColor"/>
<path d="M20.4316 5.38587L20.4098 5.36407C20.0399 5.03705 19.6265 4.75364 19.1913 4.49203L15.1659 1.6143C14.3173 1.00388 13.4034 0.567859 12.4678 0.328049C11.5104 0.0882384 10.5095 -0.0207663 9.50861 0.0228355C4.33001 0.240845 0.152312 4.47023 0 9.68065C0 9.81146 0 9.96407 0 10.0949C0.0217588 12.929 1.37081 15.6323 3.67724 17.4636L7.24569 20.2977C7.63735 20.6683 8.07253 21.0171 8.52947 21.3224L8.55122 21.3442C10.1179 22.3906 12.0109 23.001 14.0345 23.001C19.5177 23.001 24 18.5318 24 13.0162C24 9.96407 22.6074 7.21715 20.4316 5.38587ZM9.55213 1.09108C10.4442 1.06928 11.3364 1.15648 12.1849 1.37449C12.99 1.5925 13.7733 1.96312 14.5349 2.50814L15.4488 3.16217C14.9918 3.09677 14.5349 3.05317 14.0562 3.05317C9.46509 3.05317 5.59202 6.1707 4.4388 10.4219L1.26201 8.19819C2.06709 4.29582 5.46147 1.28729 9.55213 1.09108ZM1.08794 10.0731C1.08794 9.94227 1.08794 9.83326 1.08794 9.70246C1.08794 9.61525 1.08794 9.50625 1.1097 9.41904L4.19946 11.5773C4.13418 12.057 4.09066 12.5366 4.09066 13.038C4.09066 13.1252 4.09066 13.1906 4.09066 13.2778L1.15322 11.0323C1.1097 10.7271 1.08794 10.4001 1.08794 10.0731ZM1.56664 12.711L4.24297 14.7385C4.39529 15.5669 4.63463 16.3517 4.96102 17.093L4.35177 16.6134C3.04624 15.5669 2.08885 14.1934 1.56664 12.711ZM14.0562 21.911C12.2502 21.911 10.5748 21.366 9.18223 20.4503L7.96374 19.4693C6.26655 17.856 5.20036 15.5669 5.20036 13.038C5.1786 8.13279 9.16047 4.14321 14.0562 4.14321C15.7099 4.14321 17.2765 4.60103 18.6038 5.40767L19.7353 6.2143C21.6718 7.84938 22.9121 10.2911 22.9121 13.0162C22.9121 17.9214 18.9302 21.911 14.0562 21.911Z" fill="currentColor"/>
<path d="M10.0526 11.293H12.3155V12.0778H10.9012V12.6664H12.2285V13.4295H10.9012V14.1489H12.359V14.9773H10.0526V11.293Z" fill="currentColor"/>
<path d="M12.6201 11.293H15.1877V12.2086H14.3173V14.9773H13.4905V12.1868H12.6201V11.293Z" fill="currentColor"/>
<path d="M15.5793 11.293H16.4279V12.5792H17.3636V11.293H18.2122V14.9773H17.3636V13.4949H16.4279V14.9773H15.5793V11.293Z" fill="currentColor"/>
</svg>
