<svg id="yearn" width="24" height="24" viewBox="0 0 24 24" fill="none" xmlns="http://www.w3.org/2000/svg">
<path d="M14.8518 3.03282C13.1685 1.43858 10.4392 1.43858 8.7558 3.03282C7.07243 4.62707 7.07243 7.21185 8.7558 8.8061C9.25982 9.28344 9.85426 9.71511 10.5106 10.1366V12.3245C9.41426 11.6773 8.29224 10.9652 7.38412 10.1052C4.9432 7.79346 4.9432 4.04546 7.38412 1.73377C9.82505 -0.577923 13.7826 -0.577923 16.2235 1.73377C17.9817 3.39892 18.4735 5.80929 17.6988 7.89129L19.449 7.40025L20 9.16172L14.9512 10.5782L13.0976 5.96853L14.9104 5.31472L15.7845 7.48844C16.4346 6.00743 16.1237 4.23739 14.8518 3.03282Z" fill="currentColor"/>
<path d="M16.2235 13.8948C15.3154 13.0348 14.1933 12.3227 13.097 11.6755V13.8634C13.7533 14.2849 14.3478 14.7165 14.8518 15.1939C16.5352 16.7881 16.5352 19.3729 14.8518 20.9672C13.1685 22.5614 10.4392 22.5614 8.7558 20.9672C7.70617 19.9731 7.31101 18.5939 7.57033 17.3099L7.76665 18.4328L9.68044 18.1327L8.8654 13.4708L4 14.3234L4.35295 16.1299L6.01747 15.8382C5.09365 17.979 5.5492 20.5284 7.38412 22.2662C9.82505 24.5779 13.7826 24.5779 16.2235 22.2662C18.6644 19.9545 18.6644 16.2065 16.2235 13.8948Z" fill="currentColor"/>
<path d="M12.7738 4.80824V19.3942H10.8339V4.80824H12.7738Z" fill="currentColor"/>
</svg>
