<svg width="354" height="144" viewBox="0 0 354 144" fill="none" xmlns="http://www.w3.org/2000/svg">
<path d="M29.8358 137.632C23.6477 137.632 18.1998 136.083 13.6433 132.984C7.46546 128.814 3.49546 122.139 2.16359 113.703C0.911114 105.778 2.02528 96.4197 5.37801 86.6408C8.73074 76.8618 14.2657 66.8867 21.3887 57.7197C31.9258 44.1656 45.0191 33.4932 58.2534 27.6677C65.3507 24.551 72.1023 22.981 78.3313 22.981C84.5194 22.981 89.9673 24.5303 94.5238 27.629C99.024 30.6683 102.384 35.0916 104.377 40.5582C104.757 39.8445 105.072 39.0978 105.32 38.3272L107.369 31.6702L108.555 38.5363C111.001 52.7205 107.159 65.6162 102.881 74.7547C104 74.0809 105.048 73.2954 106.011 72.4101L111.047 67.6407L108.719 74.1996C104.943 84.8306 98.5912 94.4753 89.8136 102.924C91.7756 102.744 93.7887 102.39 95.3767 101.726L101.762 99.0613L97.2798 104.365C86.4455 117.194 71.4645 123.802 60.7199 127.089C57.2729 129.316 53.66 131.27 49.9138 132.935C42.8164 136.039 36.0623 137.632 29.8358 137.632ZM78.3108 34.0613C73.639 34.0613 68.3756 35.3344 62.6665 37.8469C51.0715 42.9494 39.4944 52.4417 30.0638 64.5704C17.4981 80.7326 10.9744 98.8986 13.0388 111.957C13.8892 117.346 16.1559 121.318 19.7725 123.76C22.4951 125.596 25.8863 126.529 29.8563 126.529C34.5281 126.529 39.7915 125.255 45.5007 122.743C57.0956 117.64 68.6727 108.148 78.1034 96.0194C90.6691 79.8547 97.1927 61.699 95.1283 48.6329C94.2779 43.2437 92.0112 39.2723 88.3947 36.8295C85.672 34.9935 82.2808 34.0613 78.3108 34.0613Z" fill="#56A4CB"/>
<path d="M97.9307 61.0692C101.44 56.3257 102.754 50.056 103.478 45.9089C100.705 49.3562 98.571 50.8694 98.571 50.8694C98.8912 53.9991 99.0832 57.0668 97.9307 61.0692Z" fill="#277DAD"/>
<path d="M51.6738 35.0142C80.8982 16.3524 99.4343 36.3647 99.7237 41.3148C98.5378 33.5036 93.0643 28.0163 86.574 24.9306C80.9366 21.9894 63.9937 26.0796 63.9937 26.0796L51.6738 35.0142Z" fill="#DDEDF5"/>
<path d="M41.7487 131.833C36.5185 135.342 23.397 133.942 20.7461 132.984C20.7461 129.627 21.8244 126.048 21.8244 126.048H28.2635C28.2635 126.048 28.1815 128.69 34.969 127.012C38.6367 128.907 41.7487 131.833 41.7487 131.833Z" fill="#277DAD"/>
<path d="M2.65039 103.418C8.55929 82.9201 28.7756 43.51 67.2897 26.2091C61.1759 23.5984 35.0712 37.8859 21.3939 57.7123C4.57136 82.1144 4.57136 88.1827 2.65039 103.418Z" fill="#DDEDF5"/>
<path d="M86.5713 83.8365C86.5713 83.8365 93.0719 81.6287 97.0726 78.5843C100.146 73.4017 105.356 60.9683 105.356 50.0945C97.841 67.7776 92.5493 69.8305 92.5493 69.8305C89.7601 78.326 88.7074 79.5913 86.5713 83.8365Z" fill="#277DAD"/>
<path d="M90.6693 106.73C78.6312 116.174 70.4171 119.957 59.7929 123.515L52.9798 127.303L51.3867 120.675C51.3867 120.675 77.0637 106.958 85.6005 85.471C89.7344 87.4515 100.838 82.158 103.478 78.3259C98.3557 87.622 80.9389 106.56 80.9389 106.56L90.6693 106.73Z" fill="#277DAD"/>
<path d="M78.3314 24.6467C84.12 24.6467 89.2989 26.0979 93.5967 29.0003C98.7373 32.4709 102.244 37.8213 103.842 44.5635C105.123 42.7559 106.316 40.7159 106.915 38.7999C109.502 53.8001 104.948 67.3775 99.8361 77.1151C99.6491 77.5825 99.457 78.0524 99.2598 78.5198C102.077 77.2287 105.076 75.5735 107.151 73.6136C102.42 86.9379 94.0885 97.1377 85.3186 104.748H85.9052C88.8891 104.748 93.0563 104.489 96.0146 103.255C85.6516 115.521 71.4262 122.067 60.0182 125.535C56.5858 127.765 52.9846 129.72 49.2479 131.381C42.3324 134.423 35.7704 135.944 29.841 135.944C24.0525 135.944 18.8736 134.492 14.5757 131.59C8.79231 127.686 5.07075 121.408 3.81828 113.439C2.60935 105.786 3.69789 96.7091 6.96611 87.191C10.2446 77.6083 15.6924 67.7777 22.7053 58.758C33.0734 45.4182 45.9387 34.9266 58.9245 29.2095C65.84 26.1676 72.402 24.6467 78.3314 24.6467ZM29.8564 128.207C34.6972 128.207 40.2245 126.895 46.1667 124.28C58.0101 119.069 69.8151 109.401 79.4149 97.0551C92.2546 80.5288 98.9063 61.8825 96.7727 48.3697C95.8456 42.5003 93.338 38.1492 89.3219 35.4353C86.3022 33.3979 82.5729 32.3831 78.3084 32.3831C73.465 32.3831 67.9403 33.6948 61.9981 36.3081C50.1546 41.5216 38.3471 51.1895 28.7499 63.5351C15.9101 80.0614 9.25846 98.7077 11.392 112.221C12.3192 118.09 14.8267 122.441 18.8428 125.155C21.86 127.192 25.5918 128.207 29.8564 128.207V128.207ZM78.3314 21.3027C71.8718 21.3027 64.8949 22.9321 57.5849 26.147C44.1023 32.0861 30.781 42.9315 20.0774 56.7C12.8468 65.996 7.21967 76.1752 3.81059 86.0935C0.363091 96.1307 -0.769001 105.77 0.511646 113.966C1.92036 122.883 6.14649 129.942 12.7085 134.366C17.5442 137.632 23.3046 139.288 29.8282 139.288C36.2852 139.288 43.2648 137.658 50.5747 134.443C54.3311 132.777 57.9557 130.823 61.4166 128.6C67.899 126.627 74.1467 123.943 80.0475 120.595C93.0435 113.137 97.8331 107.864 106.959 96.1074L94.8774 100.076C107.036 86.7494 110.104 78.6696 114 63.4086L107.018 69.1257C114.745 50.9545 109.623 31.1359 107.984 27.1127C106.913 30.2966 105.166 34.7691 104.247 36.1221C102.179 32.1322 99.1553 28.7257 95.4511 26.2115C90.6154 22.945 84.855 21.2898 78.3314 21.2898V21.3027ZM29.8564 124.85C26.2219 124.85 23.1407 124.014 20.6998 122.366C17.4828 120.192 15.4594 116.603 14.6833 111.694C12.6906 99.0718 19.0861 81.4145 31.3727 65.6061C40.6369 53.6917 51.986 44.3801 63.3325 39.3861C68.829 36.9665 73.8697 35.74 78.3109 35.74C81.9454 35.74 85.0241 36.5766 87.4676 38.2241C90.6845 40.3983 92.708 43.9876 93.484 48.8965C95.4767 61.5184 89.0812 79.1757 76.7947 94.9842C67.5305 106.904 56.1814 116.2 44.8348 121.204C39.3357 123.624 34.2977 124.85 29.8564 124.85V124.85Z" fill="#083751"/>
<path d="M29.8567 124.85C26.2222 124.85 23.1409 124.013 20.7 122.366C17.483 120.192 15.4596 116.602 14.6836 111.694C12.6909 99.0716 19.0864 81.4143 31.3729 65.6059C40.6371 53.6914 51.9862 44.3799 63.3328 39.3859C68.8293 36.9663 73.8699 35.7397 78.3112 35.7397C81.9457 35.7397 85.0244 36.5764 87.4678 38.2239C90.6848 40.3981 92.7082 43.9874 93.4843 48.8962C95.477 61.5182 89.0814 79.1755 76.7949 94.9839C67.5307 106.904 56.1816 116.2 44.8351 121.204C39.336 123.623 34.2979 124.85 29.8567 124.85V124.85Z" fill="#083751"/>
<path d="M13.0035 5.64383C12.8524 7.5676 12.983 16.7784 16.4305 18.3458C14.0408 12.6649 16.5791 2.07777 28.5608 2.02612C26.3683 3.67359 24.6881 6.37719 23.9505 8.18217C23.1577 9.05371 22.4564 10.0056 21.8579 11.0226C22.721 10.5062 25.5231 5.70839 36.0372 5.67482C38.829 5.67482 41.8616 5.9821 44.3358 7.40233C40.0841 6.34103 35.5557 8.69345 32.0262 11.0872C34.5132 10.2815 38.1323 7.86713 43.2242 8.87162C46.6461 9.54559 48.0522 12.7243 50.8773 14.364C53.1825 15.7042 56.4558 15.6035 57.9644 13.1039C58.3406 12.4832 58.5284 11.7651 58.5049 11.0381C59.1517 11.7275 59.7172 12.4901 60.1902 13.3105C61.2393 15.1419 61.6774 17.2645 61.4401 19.3658C58.948 19.1257 56.4943 19.9933 53.9944 19.7015C51.5737 19.3769 49.2861 18.3951 47.3761 16.8611C48.7355 18.9139 50.7878 20.3994 53.1518 21.0417C56.1587 21.8551 59.0863 20.7189 62.0907 21.256C65.5203 21.8654 69.8412 24.1197 73.7548 21.4962C74.4477 21.0202 75.0297 20.3982 75.4606 19.6731C76.0851 21.4068 76.1336 23.2982 75.5989 25.0622C75.3224 26.0541 74.8068 26.9616 74.098 27.7039C73.4551 28.3468 72.6688 28.5663 71.9312 29.0105C69.4518 27.9776 66.678 27.629 63.9912 27.4611C66.4065 28.2358 68.8807 29.0105 71.1628 30.1131C73.4449 31.2157 74.9868 32.9535 76.585 34.8902C77.9144 36.5015 79.4639 37.9682 81.5463 38.4666C82.9765 38.81 84.4741 38.7365 85.8646 38.2549C86.236 40.3594 84.3022 43.7912 81.6052 44.2456C82.9103 45.0849 84.3157 45.7539 85.7878 46.2365C84.7633 47.1661 82.3172 47.8608 80.7446 47.9434C84.5251 49.942 86.4281 55.2666 86.341 59.5893C85.734 58.2697 85.0373 56.7488 83.4544 55.5971C83.9001 57.4434 83.8181 59.6977 83.48 61.7945C82.7321 61.0766 79.8942 57.761 78.6853 56.1575C79.2718 54.3112 79.1694 53.0381 78.7647 51.1583C78.2524 54.257 76.0523 57.8127 74.9228 59.2381C75.435 57.3092 75.2352 55.233 74.9228 53.2989C74.5403 51.1191 73.9095 48.991 73.0428 46.957C71.1756 42.3632 71.1756 42.3632 69.562 38.3633C68.6271 42.1824 67.8254 43.9642 66.5832 45.5109C66.6473 44.2874 66.5647 43.0606 66.3373 41.8571C66.2502 41.3561 65.4742 37.4389 61.8397 32.1789C62.1547 34.6165 63.1203 37.5112 61.9754 40.238C61.9011 38.1929 60.5616 32.2718 56.5019 29.9091C57.6392 31.8819 58.6381 38.0612 57.2703 39.6467C57.401 36.2381 55.0471 33.0956 52.4807 31.0323C50.5802 29.5037 40.0431 23.5749 40.0584 23.6007C40.0738 23.6265 42.0127 32.1479 37.7738 32.8218C39.0698 29.8755 35.8118 23.6756 32.1389 22.5342C32.5692 20.4555 32.454 17.9559 31.7419 16.0786C29.9183 18.0747 25.2977 18.1599 22.7953 20.3496C21.7196 21.2844 20.5747 22.7098 20.1111 24.365L18.7229 26.2965C18.694 26.1304 18.633 25.9716 18.5436 25.8291L11.6306 19.2031C10.0555 16.1819 9.62515 8.8897 13.0035 5.64383Z" fill="#E61C3F"/>
<path d="M5.15234 15.281L9.07625 19.2731C8.86366 19.6579 8.57936 20.0865 8.1593 20.1847C8.40462 20.2421 8.66116 20.2271 8.89825 20.1415C9.13534 20.0559 9.34296 19.9032 9.4963 19.7018L11.3507 21.5894C10.9742 22.4441 10.3543 23.4925 9.39128 23.6552C10.6233 24.0115 11.5658 23.2214 12.0038 22.2556L14.3653 24.6571C14.0528 25.7907 13.369 27.2393 11.3993 27.4975C13.538 28.014 14.7495 26.7668 15.1465 25.4473L16.8114 27.1412C17.3569 28.9488 14.2834 31.0507 12.4572 30.5678L5.15234 15.281Z" fill="white"/>
<path d="M20.3262 127.466C20.0291 131.453 18.9149 138.923 14.7528 140.803C13.4722 140.287 12.3503 138.567 11.459 136.54C11.92 133.568 13.2519 132.667 15.8132 130.722C17.2962 129.599 18.3156 127.624 18.9431 126.048C19.5322 126.673 20.0368 127.179 20.3262 127.466Z" fill="#9EA7AC"/>
<path d="M47.98 118.782C48.4334 119.872 49.043 121.364 49.6551 122.932C50.0393 123.918 50.4235 124.936 50.7693 125.912C51.6837 128.476 52.347 130.73 52.0499 131.249C51.7528 131.768 50.0572 131.951 47.8033 131.766C46.4509 129.821 46.4919 128.375 46.7788 125.997C46.8172 125.666 46.8633 125.315 46.9094 124.943C46.9991 124.031 46.9315 123.11 46.7096 122.222C46.3623 120.844 45.8461 119.515 45.1729 118.266C46.1251 118.329 47.067 118.502 47.98 118.782V118.782Z" fill="#9EA7AC"/>
<path d="M88.7067 75.2894C85.5245 82.2156 81.546 88.7409 76.8531 94.731C75.1012 96.9931 73.2801 99.157 71.3898 101.223C72.0097 96.4973 70.6573 91.5342 67.658 89.1947C70.4396 95.1907 69.7071 100.242 67.3686 104.061C63.8776 109.718 57.3514 112.153 53.4224 112.068C50.4446 111.977 47.5376 111.131 44.9701 109.607C44.9701 109.607 34.0641 106.904 33.3495 109.396C32.6349 111.887 36.4077 118.265 36.4077 118.265C36.4077 118.265 39.0125 118.142 39.2456 120.032C40.2877 119.161 41.5431 118.589 42.8801 118.377C43.9153 119.071 44.6892 120.096 45.0777 121.287C45.7846 123.515 45.029 125.986 44.6269 127.766C44.5451 128.095 44.4819 128.428 44.4374 128.765C44.384 129.168 44.4005 129.578 44.486 129.976C44.6013 130.485 44.8202 130.964 45.1289 131.383C44.2462 131.212 43.3739 130.989 42.5164 130.717C41.5858 130.425 40.6789 130.06 39.804 129.627C38.4373 128.986 37.2245 128.054 36.2489 126.895C32.2405 127.172 30.8702 128.037 29.6433 125.782C29.2756 125.056 28.9738 124.297 28.7417 123.515C27.1486 118.542 23.5628 113.486 22.0977 111.43C20.6327 109.375 22.4871 105.052 25.9935 103.498C29.4999 101.943 43.756 98.2609 45.864 95.4231C47.9719 92.5852 47.0114 86.5402 57.2541 82.6901C54.3265 81.7321 45.8589 85.9798 43.756 93.4941C39.7835 96.1177 29.6279 99.0924 26.8643 99.9187C22.2975 101.282 19.7337 104.613 18.9935 106.72C16.737 107.526 13.0564 108.809 13.0231 110.594C12.9847 112.59 14.3934 115.477 14.3037 119.613C14.3037 120.264 14.9543 121.354 15.8584 122.526C16.427 123.267 17.093 124.042 17.741 124.76C17.589 126.151 16.9421 127.44 15.9199 128.388C15.1884 129.08 14.3816 129.686 13.5149 130.195C12.6568 130.727 11.85 131.164 11.2968 131.582C10.8178 131.947 10.4396 132.43 10.198 132.984C9.78581 131.589 9.50791 130.157 9.36812 128.708C7.16285 125.669 6.3586 124.835 5.95135 123.544C5.91926 123.428 5.89782 123.309 5.88732 123.19C5.88732 123.19 5.88732 123.19 5.88732 123.19C5.7234 121.671 6.11271 117.129 6.3586 114.503C6.66339 114.467 7.30628 114.906 8.54082 115.608L8.79695 115.763L8.46654 115.247C6.67364 112.474 4.64253 109.416 5.53642 106.64C6.01795 105.148 6.95794 104.316 8.44605 103.42C8.45443 103.413 8.46394 103.407 8.47423 103.402C9.0454 103.054 9.70109 102.695 10.4439 102.281C13.123 100.786 23.9163 97.2694 25.3199 94.3876C26.1184 92.7869 27.0096 91.2349 27.9887 89.7396C28.2186 91.8426 28.6702 93.9149 29.336 95.9214C29.1772 81.4609 34.3868 72.4024 36.4384 69.3941C36.6752 72.2811 36.6794 75.1827 36.4512 78.0704C39.3148 75.3617 39.4966 63.424 35.8468 53.7432C35.5428 52.9359 35.2107 52.1466 34.8504 51.3753C34.4662 50.5516 34.0513 49.7537 33.6056 48.9893C34.3297 47.4054 34.646 45.6629 34.5251 43.923C34.4699 43.1009 34.3273 42.2872 34.1 41.4957C33.7137 40.0661 33.0252 38.7377 32.0817 37.6017C32.4864 39.4325 32.8501 41.0128 32.8936 42.5802C32.9298 43.6778 32.7809 44.7737 32.4531 45.8209C32.3608 46.1127 32.2533 46.4071 32.1303 46.7092C32.1508 46.5001 32.1662 46.2935 32.1713 46.0869C32.2015 45.2116 32.1154 44.3362 31.9152 43.484C31.7985 42.9849 31.6444 42.4955 31.4542 42.0199C31.426 41.9528 31.3235 42.0018 31.3389 42.069C31.4705 42.6396 31.5485 43.2214 31.572 43.8068C31.6132 44.8765 31.4993 45.9465 31.2339 46.9829C31.1202 47.4444 30.9826 47.8995 30.8215 48.3464C30.5839 49.0055 30.3129 49.6519 30.0096 50.283C27.9938 52.7775 24.782 53.5599 23.1299 56.5217C22.9763 56.4572 22.8021 56.3849 22.6177 56.31C21.9956 56.064 21.356 55.8655 20.7044 55.7161C19.5441 55.4578 18.2481 55.3649 17.1801 55.7987C16.6278 55.9724 16.1034 56.2255 15.6228 56.5501C15.1844 56.8358 14.8179 57.2204 14.5522 57.6734C15.1797 56.9633 17.1135 56.3823 18.6502 56.4055C19.0756 56.4491 19.482 56.6049 19.8284 56.8574C20.3333 57.2286 20.7225 57.7375 20.9503 58.3241C20.9503 58.3654 20.9298 58.3913 20.9272 58.4067C20.9387 58.3876 20.949 58.3678 20.958 58.3474V58.368C21.3089 59.2279 21.5086 60.4674 21.3575 62.2543C20.9247 64.0386 20.5123 65.6344 19.913 66.3626C18.7706 67.7673 15.0235 70.019 13.0103 70.4141C12.8585 70.4508 12.7045 70.4775 12.5492 70.4942C12.0145 70.5247 11.4788 70.4556 10.9689 70.2902C10.7922 70.2411 10.6129 70.1791 10.4336 70.1094C10.78 69.8333 11.1399 69.5747 11.5119 69.3348C11.9056 69.0783 12.3145 68.8464 12.7362 68.6401C13.2297 68.4009 13.695 68.1702 14.1321 67.9481C17.3107 66.3574 18.9986 65.2987 19.5262 64.3175C20.0103 63.4163 19.6466 62.1639 18.891 61.0768C18.5486 60.5741 18.1383 60.1222 17.6718 59.734C17.448 59.5471 17.2089 59.3796 16.9572 59.2331C17.3205 59.1339 17.7012 59.118 18.0714 59.1866C18.4038 59.243 18.7329 59.3171 19.0575 59.4087C18.8654 59.1917 17.8895 58.9542 17.6078 58.7889C16.6857 58.2415 15.8661 58.4765 15.2386 59.1892C14.419 60.1188 13.2946 63.4137 11.3787 65.6706C10.0725 67.2199 7.60083 67.7854 6.16138 67.9946C4.11234 66.533 2.8317 64.5292 2.66521 62.9386C2.47824 61.0458 2.92134 58.492 4.82438 57.3145C6.26383 53.8336 8.81488 44.3026 8.97624 42.8204C9.1376 41.3382 7.3447 37.3667 7.50606 35.5101C7.62388 34.1931 9.5218 31.048 10.0289 30.2268L10.6564 31.6858C10.6718 31.7013 10.7358 31.7762 10.846 31.8769C9.91111 34.2009 9.82147 37.1524 10.3978 39.4971C10.5335 38.0123 10.6539 36.5456 11.0663 35.1073C11.3224 34.1957 11.6528 33.3152 11.973 32.4321C12.8822 32.6309 14.3114 32.494 16.4168 31.1616C17.329 30.6314 18.057 29.8308 18.5017 28.8686L20.0385 27.0946C20.1455 27.5278 20.3055 27.9458 20.5149 28.3392C20.5149 27.1979 21.2833 25.2948 22.1771 23.8694C23.842 21.1735 27.0359 20.3653 29.0645 19.366C28.2551 20.1251 27.4099 20.843 26.6236 21.6254C24.9613 23.2729 23.9547 25.2405 24.2211 27.611C25.1406 25.0804 26.5877 23.2212 28.647 21.5273C29.1592 21.0986 29.9276 20.528 30.5808 19.8695C30.299 21.7442 30.0685 23.6189 28.8519 25.2354C27.4124 27.1643 24.9357 29.0442 27.1614 31.5412C26.5467 29.8757 28.7802 28.285 29.7227 27.2444C30.551 26.3257 31.2079 25.2637 31.6616 24.1095C35.7597 26.5807 38.4619 32.8194 34.3894 33.9633C36.1311 34.9652 43.4461 35.5385 42.3653 27.1901C44.4143 28.4812 46.5991 29.5555 48.7685 30.782L48.9401 30.8776C49.5871 31.2431 50.2154 31.6412 50.8227 32.0706C52.8128 33.4805 54.0473 34.911 54.7799 36.2667C55.1883 37.0028 55.473 37.8021 55.6225 38.632C56.0067 40.7933 55.2486 42.415 54.8721 42.7636C56.875 42.7119 59.2263 41.2426 59.3338 36.6953C59.3338 36.5197 59.3338 36.339 59.3338 36.1556L59.3492 36.1944C59.3979 36.339 59.444 36.4784 59.4926 36.6179C60.9936 41.2401 61.0089 43.8636 61.0089 43.8636C62.2896 42.7094 63.729 41.2117 63.9185 38.3815C64.0082 38.8541 65.3375 43.5279 65.025 48.2508C65.9394 47.9384 68.306 47.4064 69.6661 43.7319C70.0938 45.023 71.4334 47.7705 72.2889 50.8098C72.8575 52.8265 73.2826 54.9827 73.193 57.0898C73.047 60.5526 71.4001 62.2543 71.2695 62.6468C71.3873 62.6648 75.2164 62.9773 77.5651 58.9723C79.8395 63.1064 83.3613 69.3967 88.7067 75.2894Z" fill="#E5ECEF"/>
<path d="M17.042 43.874C17.9231 42.2782 19.383 40.0368 21.2886 38.3945C21.8009 38.8464 22.1031 39.8587 22.2056 40.4991C22.6102 42.947 20.4459 42.0742 17.042 43.874Z" fill="#FFCE55"/>
<path d="M2.22229 65.415C2.22229 65.415 2.67308 61.3066 6.37415 60.377C5.89006 58.4352 7.32182 54.8381 9.88312 55.5818C10.4415 50.5465 11.8066 44.22 11.8066 44.22C11.8066 44.22 14.5421 45.0592 14.8802 43.5744C15.2183 42.0896 16.417 37.3771 20.7148 36.086C17.0496 36.086 14.9698 39.6314 13.5637 42.0845C11.4711 42.0199 9.78835 39.9541 10.4492 36.7263C11.11 33.4986 11.4737 31.3682 11.4737 31.3682L9.89336 29.4961C9.89336 29.4961 5.97202 33.4443 6.63028 36.086C7.28853 38.7276 9.0507 41.9967 8.16705 43.8688C7.28341 45.7409 3.9947 56.3255 3.9947 56.3255C1.22851 59.716 0.982624 62.1149 2.22229 65.415Z" fill="white"/>
<path d="M60.1074 83.8364C57.0133 83.8364 48.392 89.9899 48.392 96.4016C43.6408 98.4674 31.8486 102.816 31.8486 102.816L49.9442 99.8024C49.9442 99.8024 55.1718 101.997 58.6756 99.8024C62.1795 97.6075 61.3086 93.3261 61.3086 93.3261C57.0005 97.091 50.0569 89.5173 60.1074 83.8364Z" fill="white"/>
<path d="M43.8125 41.7617C49.6881 47.4581 61.9029 61.1982 57.0134 73.3347C55.492 64.6635 50.0569 52.1604 43.8125 41.7617Z" fill="white"/>
<path d="M3.6748 66.5356C3.6748 66.5356 5.12194 67.6537 6.40258 66.5356C8.31075 64.8701 6.72787 60.5758 7.93936 59.4758C9.15085 58.3758 11.6379 58.6159 11.8914 59.0471C11.2332 57.2396 10.6723 55.259 11.1 54.4843C11.5277 53.7097 13.0543 49.0616 16.2226 46.9958C14.8702 49.356 12.519 55.1092 13.5537 57.6682C14.5142 56.3255 18.9529 55.0679 20.9174 57.0149C22.8819 58.9619 23.0126 64.4027 20.9174 67.0185C18.8223 69.6343 13.3437 72.387 11.8914 71.9996C7.5859 70.2695 5.68798 68.8467 3.6748 66.5356Z" fill="#9EA7AC"/>
<path d="M13.5566 57.6684C16.4816 53.1289 19.65 55.0656 22.265 49.0619C22.6028 49.9336 22.6028 50.9015 22.265 51.7732C26.6653 49.8391 32.5717 41.4236 30.579 33.5039C32.3719 35.9983 33.9727 43.8328 32.9482 47.5125C31.9237 51.1922 27.3133 53.7744 26.4169 55.2592C25.5204 56.744 22.452 59.068 22.452 59.068C20.9255 56.3308 16.6071 56.9712 13.5566 57.6684Z" fill="#9EA7AC"/>
<path d="M15.2002 45.4465C15.2002 45.4465 19.9847 45.9913 22.441 44.7364C24.8973 43.4814 26.2138 39.3782 26.2138 37.958C25.4992 39.8947 23.0762 41.2194 23.0762 41.2194C22.1992 42.1249 21.1249 42.8119 19.9386 43.2258C18.0125 43.8739 15.9686 44.4781 15.9686 44.4781L15.2002 45.4465Z" fill="#9EA7AC"/>
<path d="M13.5558 27.0481C13.5558 27.0481 14.7391 25.8525 14.4676 24.2231C14.0373 25.5633 13.1204 25.8215 12.7106 25.8215C12.3008 25.8215 10.6923 23.2393 10.6923 23.2393C10.6923 23.2393 12.4314 21.5815 11.8935 20.4763C11.3531 21.6047 9.88293 22.6066 9.88293 22.6066L8.15918 20.2C8.15918 20.2 10.2082 19.2497 9.88293 18.3459C9.24517 18.3459 16.5423 24.9177 16.5423 24.9177L18.0099 27.3192C18.0099 27.3192 18.0099 28.7394 15.8123 30.1235C14.1065 28.1739 13.5558 27.0481 13.5558 27.0481Z" fill="#9EA7AC"/>
<path d="M33.5138 44.0265C35.778 42.8077 30.5684 35.3709 30.5684 33.5039C38.8926 41.1344 46.0642 53.3871 42.8626 64.0027C42.0942 61.8078 39.9171 57.325 39.9171 57.325C39.9171 57.325 43.6361 67.5248 37.5504 74.4969C38.1242 65.4591 34.3975 51.8455 32.6174 50.0948C34.2182 47.293 33.5138 44.0265 33.5138 44.0265Z" fill="#9EA7AC"/>
<path d="M54.7239 82.7727C50.6258 82.4164 43.3748 85.3421 41.4539 91.1521C41.5717 89.0037 41.2208 86.548 43.8922 83.8366C40.3064 83.8366 35.6961 89.0011 35.6961 93.3263C29.6745 96.1668 11.3638 104.967 9.88847 106.258C8.41316 107.549 8.65136 108.915 11.1076 114.821C9.56831 119.169 7.29132 121.744 13.0619 126.787C15.4388 128.853 16.5504 129.111 16.5504 129.111L19.0092 124.019C19.0092 124.019 13.1977 113.135 14.8727 110.39C18.8248 107.678 20.3257 107.291 20.3257 107.291C20.3257 107.291 21.7319 103.03 28.9035 100.965C36.0751 98.8988 45.1831 94.6381 45.1831 94.6381C47.0887 85.0838 52.9797 83.8779 54.7239 82.7727Z" fill="#9EA7AC"/>
<path d="M70.0127 102.385C70.0127 102.385 71.0372 90.7647 65.5356 85.9875C66.9391 88.9571 67.5846 94.8963 65.5356 97.8658C65.5635 95.2251 64.6552 92.661 62.9743 90.6356C62.9743 90.6356 65.7507 101.094 57.9823 103.611C51.8582 104.967 49.3994 102.127 49.3994 102.127C42.8681 104.451 33.5194 105.354 30.83 106C29.0371 110.131 29.0371 118.472 35.2508 124.409C34.7938 122.945 34.4294 121.454 34.1597 119.944C34.1597 119.944 36.1396 123.172 38.2834 122.655C40.4272 122.139 43.4777 119.198 46.9482 123.833C45.5703 119.04 43.9515 117.233 43.9515 117.233L39.5333 117.491L36.4597 115.812L34.2826 110.002L43.9515 110.906C43.9515 110.906 53.4847 116.347 59.5114 112.714C65.5381 109.08 70.0127 102.385 70.0127 102.385Z" fill="#9EA7AC"/>
<path d="M16.1688 60.2299C16.3486 60.2262 16.5281 60.2488 16.7015 60.297C16.6452 61.8799 14.7396 63.8915 14.7396 63.8915C16.2379 63.0368 17.2548 62.3112 17.849 61.0278C18.163 61.3645 18.3931 61.7717 18.5205 62.2157C18.6478 62.6597 18.6688 63.1279 18.5815 63.5816C18.3049 64.7927 13.3898 66.8352 11.1025 67.7777C14.3887 65.6319 14.5552 60.2738 16.1688 60.2299Z" fill="white"/>
<path d="M80.0015 59.5172L77.9524 56.3256C77.9524 56.3256 75.2375 60.4236 73.4702 61.1983C75.0684 54.2262 72.0615 46.0793 69.5002 41.7618C69.277 42.8802 68.8042 43.9327 68.1177 44.8396C67.4312 45.7464 66.549 46.4839 65.5378 46.996C65.5378 46.996 65.6096 42.4668 64.5902 38.8516C64.3318 37.8399 63.9141 36.8766 63.3531 35.9983C63.2536 37.2589 63.0077 38.5035 62.6205 39.7063C62.4051 40.4347 62.0914 41.1298 61.6882 41.7721C61.6882 41.7721 61.5397 41.1911 61.3015 40.3364C61.0453 39.4404 60.7021 38.2396 60.3205 37.088C59.7929 35.4818 59.2038 33.9738 58.7427 33.5141C58.6787 34.436 58.9476 36.1377 58.6685 37.9039C58.5055 39.1319 57.992 40.2856 57.1906 41.2247L57.0164 40.982C56.9203 40.3124 56.7878 39.6486 56.6194 38.9936C56.143 37.106 55.1646 34.3456 53.3154 32.8479C53.1207 32.6904 52.9004 32.5226 52.6597 32.3521C51.7939 31.7298 50.6644 31.03 49.4632 30.3277C46.0054 28.3161 41.9406 26.3123 41.7588 26.2219C44.0051 27.6552 46.0888 29.3325 47.9725 31.2237C48.7631 32.0302 49.495 32.8932 50.1624 33.8059C52.1525 36.5483 52.926 39.0505 53.0823 41.0827C53.1501 41.9326 53.1062 42.7878 52.9516 43.6262C50.6029 41.5991 47.7317 39.4223 45.57 38.7406C46.7303 39.8406 49.4119 43.0478 51.8938 46.118L51.8554 46.1568C51.9655 46.2549 52.0706 46.3633 52.1781 46.4666C53.3999 47.9747 54.5627 49.431 55.4617 50.5621C60.1694 57.9756 62.5258 69.2884 59.7698 75.7956C62.6513 75.3437 65.8068 70.2077 65.4687 65.854C65.2126 62.4971 63.8807 58.3268 63.079 56.0416C79.8068 72.6221 81.2181 84.3351 81.6689 85.479C79.3996 82.3029 71.3904 74.7447 71.1394 74.5097C71.2828 74.7679 77.5939 85.9464 79.7069 91.0618C83.9561 85.0194 87.3447 78.7988 89.7369 72.7615L80.0015 59.5172Z" fill="#9EA7AC"/>
<path d="M26.8541 29.7594C28.7905 29.2636 31.4004 28.3392 32.0407 26.9189C33.5775 27.5645 37.0353 30.9162 36.0748 33.5036C38.0419 31.1099 36.2387 25.1888 31.5464 23.2393C31.5464 22.2064 31.0803 18.333 31.0803 18.333C31.0803 18.333 21.6035 25.0107 24.8051 30.6399C25.3174 28.1584 27.1103 25.6278 27.1103 25.6278L26.8541 29.7594Z" fill="#9EA7AC"/>
<path d="M10.7949 19.5027C10.7949 19.5027 10.4286 12.9103 12.1472 10.7593C12.1472 12.7373 13.2102 16.4608 16.4297 18.3433C14.3243 13.8579 13.8684 3.75366 13.8684 3.75366C8.63059 8.50497 8.22079 13.1349 10.7949 19.5027Z" fill="#F0ABAB"/>
<path d="M15.1109 16.3525C15.1109 16.3525 13.6766 5.68014 21.8241 2.83969C29.9716 -0.00077018 30.5683 1.11734 30.5683 1.11734C30.5683 1.11734 22.7948 8.90794 20.7074 12.9956C20.7074 10.8446 21.5065 6.74661 24.1446 4.73246C19.6495 5.24891 15.5464 11.7226 15.1109 16.3525Z" fill="#F0ABAB"/>
<path d="M24.6982 8.0688C28.2636 7.19084 34.987 6.39035 39.9584 8.17726C34.3236 9.21015 30.8658 11.405 29.7363 13.2978C35.4352 10.7156 42.3251 9.85054 45.6676 12.5671C49.01 15.2836 52.8827 20.572 58.6712 15.2836C58.6712 17.2151 59.1989 18.6766 58.6712 20.3138C61.7883 21.2201 62.9255 20.3138 62.9255 20.3138C62.9255 20.3138 63.2636 11.9628 58.2307 9.89702C58.1795 12.7039 55.0701 14.545 52.5088 13.8556C49.9475 13.1661 45.5702 8.26247 45.5702 8.26247C45.5702 8.26247 45.2424 3.55248 34.321 4.47433C28.2636 4.35555 24.6982 8.0688 24.6982 8.0688Z" fill="#F0ABAB"/>
<path d="M47.3828 16.874C48.4073 19.3581 50.4564 22.9449 54.0908 23.5878C57.7253 24.2308 61.0627 22.5265 62.9375 23.5878C64.8124 24.6491 70.5318 26.5884 73.1827 24.2282C74.1227 25.3102 71.7305 29.2687 69.7685 28.8401C64.3898 27.4405 65.6961 27.5206 60.2917 27.4612C66.152 29.4366 70.6906 32.1918 72.2274 34.6011C73.7641 37.0103 76.0924 41.7616 81.448 41.2193C80.8512 42.6912 79.8267 43.4349 77.2654 43.2257C78.0338 44.4988 80.1674 46.2857 82.2164 46.2857C81.0254 46.9958 77.8622 46.9958 77.8622 46.9958C77.8622 46.9958 83.0078 52.1602 83.6661 55.9897C85.2259 60.1884 86.8523 60.9682 86.8523 60.9682C86.8523 60.9682 88.7912 53.3868 84.0093 48.6303C87.7667 46.9958 88.279 46.3502 88.279 46.3502L83.5841 43.8739C83.5841 43.8739 89.3701 40.6538 86.9138 36.9251C82.5596 37.958 81.2354 37.9735 78.3079 35.7398C75.3803 33.5062 73.0828 30.1106 73.0828 30.1106C73.0828 30.1106 79.6551 26.8544 75.3906 18.333C72.1454 21.2896 70.104 21.93 65.4886 20.7164C60.8731 19.5027 55.1563 21.2922 53.7886 20.7164C52.4209 20.1406 47.3828 16.874 47.3828 16.874Z" fill="#F0ABAB"/>
<path d="M31.4213 92.7868C30.5684 87.1058 32.3792 78.3882 34.9687 74.4968C34.9687 77.4664 36.8615 81.9414 36.8615 81.9414C36.8615 81.9414 43.7437 73.7454 42.8626 67.7778C45.1831 73.3348 40.8904 82.2874 37.0741 85.9877C33.2578 89.6881 31.4213 92.7868 31.4213 92.7868Z" fill="white"/>
<path d="M28.0071 104.192C25.4996 104.45 22.2647 108.195 23.3968 110.777C24.5288 113.359 28.0071 118.782 28.0071 118.782L25.6328 111.487C25.6328 111.487 28.0071 109.938 28.0071 107.936C28.0071 105.935 30.512 103.934 28.0071 104.192Z" fill="white"/>
<path d="M51.8525 46.1489C57.7435 54.0067 59.8105 60.1653 60.3176 64.24C60.5737 66.3472 60.6352 69.3684 60.8171 70.6053C61.8689 68.8702 62.3319 66.8371 62.1361 64.8133C61.1552 53.7304 52.2495 46.4278 51.8525 46.1489Z" fill="#083751"/>
<path d="M8.1311 58.4507C6.96571 58.9955 7.27563 61.2911 7.44212 62.9489L7.66495 62.6907C7.93388 60.3383 8.33345 59.042 9.56799 58.9C9.56799 58.8897 9.29905 57.9058 8.1311 58.4507Z" fill="#083751"/>
<path d="M22.7951 44.3517C21.4274 45.0437 19.3041 45.2735 18.0234 45.5731C19.6242 46.2057 21.9704 45.8623 23.2305 45.2012C24.8826 44.3517 25.569 42.4021 25.6433 40.5532C24.7417 42.0897 24.296 43.5873 22.7951 44.3517Z" fill="#082E44"/>
<path d="M84.7014 64.3123C84.9063 63.5867 85.4185 62.5047 85.1701 60.5293C85.7611 61.6582 86.1291 62.8922 86.2535 64.1625C91.0252 58.3215 86.3304 49.9602 85.6619 49.3741C87.4881 48.8576 88.7354 47.3625 90.0161 45.2425C88.2232 45.2993 87.1679 45.1934 85.5697 44.6202C88.8071 42.9211 88.0951 38.2782 87.4881 35.6882C85.5748 37.0258 82.4116 36.6772 80.3856 35.43C77.9447 33.922 77.5528 32.0292 74.5766 30.1468C75.4631 29.8037 76.2264 29.1989 76.7665 28.4115C77.3576 27.5314 77.7429 26.5275 77.8935 25.4755C78.375 22.5421 77.5169 18.9709 75.6549 16.6313C72.0307 21.5789 64.7182 19.6861 64.2033 19.5596C64.649 16.3447 62.3362 8.456 56.8985 8.35787C57.4364 12.7296 54.1375 14.0672 51.0742 11.7793C49.8934 9.17127 48.2311 6.7259 45.803 5.26694C43.0112 3.5859 39.3486 3.2528 36.1649 3.35609C33.5626 3.43097 31.0576 4.14625 29.0317 4.85895C29.6566 3.07462 32.0156 1.2903 32.4382 1.11471C26.2911 -2.03303 15.987 1.78609 14.6474 8.79943C14.3913 5.37539 14.4528 2.46522 14.5475 2.09854C8.32617 4.72725 8.16993 13.0007 8.2442 15.9548L0.785718 8.79427L8.38764 26.4955C8.19042 27.061 7.92404 27.7349 7.61925 28.4476C7.10699 29.6406 6.5307 30.9472 6.03637 32.086C5.62121 32.9608 5.26607 33.8632 4.97343 34.787C4.68145 36.1324 6.73048 41.0541 6.51021 42.7765C6.28185 44.475 5.95256 46.1582 5.52411 47.817C4.94014 50.1746 4.21529 52.5321 3.58009 54.3423C3.30347 55.1324 3.03966 55.8193 2.8117 56.3538C0.25553 58.4635 0.199182 61.9237 0.168446 63.5428C0.117221 66.2386 4.19992 69.3089 5.78792 70.285C6.04405 70.4399 6.34116 70.6155 6.66645 70.8014C7.78217 71.441 8.944 71.9952 10.1421 72.4592C10.9107 72.772 11.723 72.9619 12.5497 73.0222C15.047 73.0712 21.1839 69.3631 22.006 68.3018C22.8282 67.2405 23.5812 61.4331 24.4444 59.3725C25.9248 55.8271 27.0057 57.3067 31.7287 51.8608C32.6687 53.689 34.7613 58.2931 35.8831 64.9165C30.0536 70.5639 27.979 77.9516 27.7715 84.5131C27.176 85.1025 26.6182 85.7296 26.1015 86.3904C24.8586 87.9427 23.8012 89.6371 22.9512 91.4386C21.8319 93.835 19.0196 95.3998 15.9358 96.7038C14.9804 97.1066 13.9969 97.4785 13.0313 97.8581C11.6072 98.4081 10.2138 98.94 8.99723 99.5081C4.92733 101.411 3.24968 103.789 2.56582 106.501C2.03051 108.631 3.18565 111.745 3.70559 112.985C3.41104 115.386 2.63497 122.317 3.29066 124.047C4.08979 126.154 4.28188 126.611 7.07113 130.028C8.0726 135.308 10.6288 142.36 15.7001 144C20.1465 143.292 22.9204 131.515 22.9973 126.913L22.6336 126.118C22.6336 126.118 17.4546 120.414 17.2215 118.498C16.9885 116.582 17.2779 115.206 15.8282 110.934C16.8633 110.459 17.9392 110.08 19.0426 109.801C19.1886 111.051 19.7367 113.129 21.5578 115.74C24.6134 120.112 26.5114 128.336 28.5373 129.627C30.5633 130.918 34.4283 129.738 34.4283 129.738C34.4283 129.738 45.0474 139.114 55.0493 133.909C55.436 131.489 54.5857 127.68 53.4946 124.295C53.1539 123.234 52.7851 122.216 52.4265 121.292C51.5531 119.05 50.7207 117.385 50.3775 117.083C50.3775 117.083 47.4217 115.234 40.8392 116.592C40.4038 116.135 38.4931 115.694 37.7657 115.59C37.1612 114.41 36.0137 111.141 36.5747 110.8C37.174 110.436 40.5088 111.058 42.7218 111.549C45.1806 112.091 48.0006 115.244 53.2589 115.342C58.8938 115.451 67.2154 111.384 69.851 106.305C72.8144 100.606 71.8078 92.4044 67.6765 89.1766C70.4555 95.1726 69.7255 100.223 67.387 104.043C63.8934 109.711 57.3673 112.143 53.4382 112.068C50.4605 111.979 47.5533 111.133 44.986 109.61C44.986 109.61 34.0646 106.904 33.3474 109.395C33.0273 110.527 33.6241 112.445 34.372 114.211C34.9745 115.603 35.6587 116.956 36.421 118.265C36.421 118.265 39.0258 118.136 39.2589 120.029C39.9 119.488 40.6287 119.063 41.413 118.772C41.8922 118.593 42.387 118.46 42.8908 118.374C43.8677 119.036 44.6118 119.992 45.0167 121.106C45.4624 122.363 45.4188 123.714 45.2216 124.979C44.9936 126.449 44.5531 127.799 44.4353 128.762C44.3137 129.693 44.5623 130.634 45.1268 131.381C41.81 130.725 38.1576 129.315 36.2468 126.898C31.2574 127.239 30.343 128.491 28.7422 123.515C27.1414 118.539 23.5633 113.486 22.0982 111.43C21.6715 110.767 21.5027 109.968 21.6244 109.186C21.7759 108.064 22.2058 106.998 22.8743 106.088C23.6628 104.954 24.7407 104.056 25.994 103.49C29.5029 101.941 43.7565 98.2506 45.8619 95.4153C47.9673 92.58 47.0094 86.5324 57.252 82.6797C54.3244 81.7217 45.8594 85.9695 43.7565 93.4864C39.7814 96.1073 29.6284 99.0846 26.8648 99.9084C24.484 100.6 22.3504 101.967 20.7177 103.846C19.9955 104.672 19.4225 105.62 19.0247 106.645C19.0247 106.674 19.0016 106.702 18.994 106.731C16.7349 107.534 13.0543 108.822 13.021 110.604C12.9826 112.6 14.3913 115.487 14.3017 119.624C14.2812 120.688 16.069 122.919 17.7389 124.773C17.3701 128.739 13.062 130.27 11.3101 131.595C10.8275 131.955 10.4441 132.433 10.1959 132.984C9.78314 131.589 9.50607 130.157 9.36861 128.708C7.16334 125.669 6.35653 124.835 5.94929 123.544C5.64705 122.583 6.0876 117.382 6.35653 114.506C6.68438 114.467 7.39898 114.973 8.81025 115.763C6.95587 112.866 4.60973 109.594 5.54716 106.645C6.21822 104.58 7.77037 103.782 10.4546 102.287C11.2409 101.848 12.729 101.233 14.4733 100.515C15.3928 100.136 16.3814 99.725 17.3778 99.2938C20.9252 97.7651 24.5494 95.9808 25.3332 94.3876C26.5216 91.9499 27.3822 90.7724 27.9995 89.7395C28.231 91.8417 28.6835 93.9131 29.3493 95.9188C29.1879 81.4583 34.3976 72.3973 36.4543 69.3915C36.6866 72.278 36.6866 75.1788 36.4543 78.0653C39.8173 74.8917 39.4894 59.0213 33.6087 48.9867C35.7858 44.2096 33.7291 39.4325 32.0719 37.5991C32.8198 40.9921 33.432 43.5382 32.118 46.7066C32.2751 45.1124 32.0439 43.5036 31.4444 42.0199C31.4188 41.9476 31.3138 41.9966 31.3291 42.0663C31.8184 44.176 31.5392 46.3167 30.8169 48.3438C30.5787 48.9996 30.3046 49.6504 30.0024 50.2804C27.9867 52.7749 24.7774 53.5599 23.1253 56.5191C21.8831 55.982 19.1399 54.9956 17.1678 55.7961C16.6198 55.9717 16.0997 56.2256 15.6233 56.5501C15.1836 56.8351 14.8161 57.2197 14.5501 57.6734C15.1802 56.9633 17.1114 56.3822 18.6482 56.4055C18.9043 56.4236 20.2285 56.6069 20.9533 58.3267C20.9533 58.3628 20.9354 58.3938 20.9329 58.4067L20.9636 58.3447C21.317 59.2072 21.5194 60.4544 21.3683 62.2517C20.9457 64.0257 20.5359 65.6292 19.9339 66.3652C18.7916 67.7699 15.047 70.0242 13.0338 70.4141C12.1612 70.5581 11.2658 70.4461 10.4546 70.0913C11.1663 69.5136 11.9394 69.0173 12.7598 68.6117C16.8578 66.6208 18.9581 65.4046 19.5523 64.289C20.3617 62.7759 18.7839 60.2711 16.991 59.2253C17.7082 59.0032 18.5073 59.2537 19.0913 59.4009C18.2742 58.4739 15.9306 57.9574 15.0444 58.8225C12.8827 60.9321 12.9058 65.6266 9.18932 67.1863C8.22724 67.5775 7.22059 67.8464 6.19261 67.9868L6.17212 67.9713C4.09747 66.5227 2.81682 64.5266 2.66827 62.9411C2.50178 61.2627 2.83731 59.0678 4.23578 57.7767C4.41754 57.6065 4.61575 57.4551 4.82744 57.3248C5.28591 56.2144 5.85196 54.4843 6.43337 52.5967C7.64999 48.5736 8.86916 43.8403 8.9793 42.8333C9.14066 41.3537 7.34519 37.3796 7.51168 35.5204C7.5962 34.534 8.68219 32.525 9.43777 31.2313C9.6939 30.8001 9.90392 30.4566 10.032 30.2397L10.3573 30.986L10.6595 31.6858C10.7186 31.7526 10.7819 31.8156 10.849 31.8743C9.91161 34.1983 9.82452 37.1524 10.4008 39.497C10.5366 38.0122 10.6569 36.5481 11.0668 35.1072C11.3229 34.1957 11.6507 33.3177 11.976 32.432C12.8853 32.6309 14.3145 32.494 16.4199 31.1642C17.3079 30.6404 18.0212 29.8619 18.4689 28.9279C18.4763 28.9077 18.4849 28.8879 18.4945 28.8686L20.0313 27.0946C20.1358 27.5281 20.2951 27.9464 20.5051 28.3392C20.5051 27.4561 20.9687 26.1185 21.5911 24.8997C21.773 24.5407 21.9702 24.1921 22.17 23.8668C23.8425 21.1735 27.0339 20.3627 29.0624 19.3659C28.2582 20.1225 27.4078 20.8404 26.624 21.6202C25.886 22.3291 25.2743 23.1606 24.8158 24.0785C24.3065 25.1304 24.0955 26.3038 24.2062 27.469V27.6084C24.2267 27.5568 24.2472 27.5025 24.2651 27.4509C24.7774 26.0687 25.5216 24.7855 26.4652 23.6576C27.1198 22.8799 27.8453 22.1658 28.6321 21.5247C29.1444 21.096 29.9127 20.5254 30.5659 19.8695C30.4466 20.841 30.2644 21.8037 30.0203 22.7512C29.7836 23.6454 29.3831 24.487 28.8396 25.2328C28.5066 25.6769 28.1224 26.1159 27.751 26.5626C26.5088 28.0577 25.433 29.6148 27.1466 31.5412C26.5344 29.8756 28.7678 28.2824 29.7078 27.2392C30.1183 26.7908 30.4853 26.304 30.8041 25.7854C31.133 25.2517 31.415 24.6901 31.6467 24.1069C32.168 24.4239 32.6585 24.7896 33.1118 25.1992C36.3109 28.0655 37.9347 32.9614 34.3745 33.9607C36.1188 34.96 43.4338 35.5333 42.3504 27.1875C44.4609 28.5019 46.7046 29.6097 48.9303 30.8749C58.005 36.0394 55.6281 42.0328 54.8623 42.7765C56.9421 42.7248 59.3958 41.1393 59.3241 36.1634C59.3241 36.1763 59.3369 36.1918 59.342 36.2073C60.9838 41.0877 60.9992 43.8713 60.9992 43.8713C62.2952 42.7196 63.7218 41.2194 63.9088 38.3918C64.001 38.8644 65.3278 43.5356 65.0178 48.2611C65.9297 47.9513 68.2963 47.4167 69.6563 43.7422C70.0841 45.0333 71.4262 47.7808 72.2817 50.8201C72.8503 52.8368 73.2729 54.993 73.1858 57.1001C73.0372 60.5629 71.3929 62.2646 71.2623 62.6571C71.3801 62.6751 75.2118 62.9876 77.5554 58.9851C79.8605 63.1838 83.4668 69.6239 88.9685 75.6044C89.1478 75.8006 89.4218 76.0847 89.7369 76.3997C90.1236 75.1344 90.5258 73.8743 90.9535 72.6219C88.9685 70.7911 86.7274 68.1108 84.7014 64.3123ZM45.1832 118.265C46.132 118.33 47.0704 118.503 47.9801 118.782C48.4335 119.872 49.043 121.364 49.6552 122.932C50.0394 123.918 50.4236 124.935 50.7694 125.911C51.6837 128.476 52.3471 130.73 52.05 131.249C51.7529 131.768 50.0573 131.951 47.8034 131.765C46.451 129.821 46.492 128.375 46.7789 125.997C46.8173 125.666 46.8634 125.315 46.9095 124.943C46.9991 124.031 46.9316 123.11 46.7097 122.221C46.3657 120.844 45.8529 119.515 45.1832 118.265V118.265ZM15.8051 130.722C17.2881 129.599 18.3075 127.623 18.935 126.048C19.5318 126.673 20.0364 127.179 20.3258 127.466C20.0287 131.453 18.9146 138.923 14.7525 140.803C13.4718 140.287 12.35 138.567 11.4586 136.54C11.9197 133.568 13.2464 132.667 15.8051 130.722ZM16.1688 60.2272C16.3487 60.2235 16.5282 60.2462 16.7016 60.2943C16.6452 61.8772 14.7396 63.8888 14.7396 63.8888C16.238 63.0341 17.2548 62.3085 17.8491 61.0251C18.1631 61.3619 18.3932 61.769 18.5206 62.213C18.6479 62.657 18.6688 63.1252 18.5816 63.5789C18.305 64.79 13.3898 66.8325 11.1026 67.7751C14.3887 65.6318 14.5552 60.2737 16.1688 60.2298V60.2272ZM15.5951 29.6535C14.6602 30.3792 13.3975 30.8156 12.4627 30.5677L12.414 30.4618L11.0335 27.5774L5.14248 15.2808L9.07663 19.273C8.86404 19.6577 8.5823 20.0864 8.15968 20.1871C8.40563 20.2438 8.66256 20.2282 8.89999 20.1422C9.13742 20.0561 9.34539 19.9032 9.49924 19.7016L11.3536 21.5918C10.9745 22.444 10.3521 23.4923 9.39166 23.6576C10.6236 24.014 11.5662 23.2238 12.0042 22.258L14.3657 24.6621C14.1096 25.5917 13.5973 26.7279 12.3423 27.2443C12.0405 27.3711 11.7237 27.4579 11.3997 27.5025C12.8033 27.8382 13.8099 27.4173 14.4477 26.7279C14.7703 26.3645 15.0083 25.9331 15.1443 25.4652L15.9972 26.3302L16.8092 27.1591C17.0781 28.019 16.4839 28.9693 15.5951 29.6561V29.6535ZM83.4694 61.8049C82.7215 61.0897 79.8836 57.7689 78.6747 56.1679C79.2612 54.3216 79.1562 53.046 78.7541 51.1661C78.2418 54.2648 76.0442 57.8231 74.9121 59.2511C75.4244 57.3196 75.2246 55.2435 74.9121 53.2991C74.5309 51.1192 73.9009 48.991 73.0347 46.9571C71.1675 42.3607 71.1675 42.3607 69.5539 38.3634C68.619 42.1825 67.8199 43.9643 66.5751 45.5085C66.6418 44.2861 66.5618 43.0602 66.3369 41.8572C66.2473 41.3537 65.4763 37.439 61.8367 32.1764C62.1569 34.6166 63.1174 37.5087 61.975 40.2381C61.8982 38.193 60.5612 32.2719 56.5041 29.9092C57.6387 31.882 58.6377 38.0639 57.2725 39.6468C57.4057 36.2382 55.0518 33.0982 52.4854 31.0299C50.5901 29.5038 40.099 23.6034 40.0632 23.6034C40.0811 23.6292 42.0174 32.148 37.7785 32.8219C38.6877 30.7562 37.3507 27.0739 35.2018 24.675C34.2951 23.6602 33.2424 22.8674 32.1513 22.5343C32.1744 22.4233 32.1949 22.3123 32.2128 22.1986C32.5662 20.1897 32.4279 17.8553 31.7543 16.0865C29.9179 18.0748 25.2999 18.16 22.7949 20.3498C21.7038 21.2871 20.5615 22.7228 20.0979 24.3651L19.2987 25.4781L18.7097 26.2966C18.6807 26.1305 18.6198 25.9718 18.5304 25.8293L18.4023 25.7053L11.6302 19.2033C10.055 16.182 9.62474 8.88981 13.0031 5.64394C12.852 7.56771 12.9826 16.7837 16.4301 18.333C14.0404 12.6521 16.5787 2.07788 28.5629 2.01332C26.3679 3.66337 24.6877 6.36439 23.9526 8.17195C23.1605 9.04472 22.4585 9.99643 21.8575 11.0124C22.7232 10.496 25.5253 5.69559 36.0394 5.6646C38.8312 5.6646 41.8637 5.97189 44.338 7.39212C40.0862 6.33082 35.5553 8.68323 32.0258 11.077C34.5154 10.2713 38.1319 7.85692 43.2264 8.86141C46.6482 9.53537 48.0544 12.7141 50.8795 14.3564C53.1847 15.694 56.458 15.5959 57.9666 13.0963C58.3408 12.4747 58.5285 11.7572 58.507 11.0305C59.1534 11.7225 59.7181 12.4876 60.1898 13.3106C61.2384 15.1422 61.6773 17.2644 61.4423 19.3659C60.2393 19.2896 59.0317 19.3467 57.8411 19.5364C56.5604 19.6939 55.2798 19.8488 53.9992 19.7016C52.2034 19.4756 50.4738 18.8759 48.9201 17.9405C48.3855 17.6199 47.8721 17.2645 47.3833 16.8767C47.6759 17.3026 47.9968 17.7081 48.3438 18.0903C49.629 19.5305 51.3035 20.5608 53.1616 21.0547C56.166 21.8707 59.0961 20.7345 62.098 21.269C64.0369 21.6125 66.2575 22.4827 68.5294 22.7022C70.2813 22.87 72.0614 22.6505 73.7647 21.5092C74.4549 21.031 75.0357 20.4094 75.4679 19.6861C76.0617 21.3325 76.136 23.1238 75.6805 24.8144L75.6037 25.0727C75.3333 26.0263 74.8436 26.9021 74.1745 27.6291L74.1002 27.7065C73.4522 28.3495 72.6684 28.569 71.9308 29.0132C69.4514 27.9803 66.6776 27.6291 63.9908 27.4638C66.4035 28.2385 68.8777 29.0132 71.1624 30.1132C73.4471 31.2132 74.9838 32.9536 76.5821 34.8903C77.9114 36.5068 79.461 37.9709 81.5433 38.4693C82.9737 38.8114 84.4709 38.738 85.8616 38.2576C86.2356 40.3621 84.2993 43.7939 81.6022 44.2483C82.9076 45.0871 84.3129 45.756 85.7848 46.2392C84.7603 47.1714 82.3143 47.8635 80.7391 47.9461C84.5221 49.9447 86.4226 55.2693 86.338 59.5945C85.7336 58.2724 85.0343 56.7541 83.4489 55.5998C83.8997 57.4668 83.8177 59.7237 83.4796 61.8075L83.4694 61.8049Z" fill="#083751"/>
<path d="M23.4555 40.2822C23.2864 39.3474 22.9432 38.3146 22.2926 37.6174C23.2468 36.9345 24.344 36.4821 25.4994 36.2952C22.641 35.6032 20.72 36.6929 18.5429 38.8258C17.1829 40.1583 15.5641 43.5074 15.2337 44.4887C14.8418 45.6507 12.1602 44.7004 12.1602 44.7004C12.7185 45.4131 13.8788 46.3221 15.1133 46.3453C16.038 46.3634 16.061 45.8624 16.4862 44.9741C19.0039 43.8095 21.7266 43.7941 22.7562 42.9445C23.5425 42.2964 23.6271 41.3151 23.4555 40.2822ZM17.0522 43.8715C17.9333 42.2757 19.3933 40.0343 21.2989 38.392C21.8111 38.8439 22.1133 39.8561 22.2158 40.4965C22.6102 42.9471 20.4459 42.0743 17.042 43.8741L17.0522 43.8715Z" fill="#083751"/>
<path d="M7.97055 55.3028C5.50658 57.1233 5.5322 61.7041 6.54903 63.3077C6.28009 61.1438 6.85126 56.6275 8.90286 56.5939C10.245 56.5655 10.9237 56.9787 11.2362 57.2679L11.4616 57.539C11.4902 57.3297 11.4798 57.1169 11.4309 56.9115C11.4052 54.2622 12.9292 51.8788 13.8692 49.3792C12.3427 51.0772 11.0583 52.9814 10.0529 55.0368C9.47659 54.7244 8.7543 54.7244 7.97055 55.3028Z" fill="#083751"/>
<path d="M126 33H141V93H156V18H141C132.75 18 126 24.75 126 33Z" fill="white"/>
<path d="M171 93H186V63C186 54.75 179.25 48 171 48V93Z" fill="white"/>
<path d="M201 48V93H216V63H231V78C231 86.25 237.75 93 246 93V63C246 54.75 239.25 48 231 48H201Z" fill="white"/>
<path d="M336 48H321V33C321 24.75 314.25 18 306 18V78H276V63H291V48H276C267.75 48 261 54.75 261 63V78C261 86.25 267.75 93 276 93H321V63H336V78C336 86.25 342.75 93 351 93V63C351 54.75 344.25 48 336 48Z" fill="white"/>
<path d="M171 33H186C186 24.75 179.25 18 171 18V33Z" fill="white"/>
<path d="M147.216 119.817H141V108.183H147.067V110.094H142.842V112.986H146.617V114.898H142.842V117.906H147.216V119.817Z" fill="#5599FF"/>
<path d="M174.466 108.183H176.623L173.088 113.884L176.758 119.817H174.601L171.89 115.446L169.194 119.817H167.037L170.707 113.884L167.201 108.183H169.358L171.935 112.388L174.466 108.183Z" fill="#5599FF"/>
<path d="M203.808 117.158L204.512 118.687C204.183 119.075 203.708 119.391 203.089 119.634C202.48 119.878 201.836 120 201.157 120C199.559 120 198.256 119.452 197.247 118.355C196.249 117.258 195.749 115.806 195.749 114C195.749 112.271 196.224 110.837 197.172 109.695C198.111 108.565 199.424 108 201.112 108C202.45 108 203.513 108.393 204.302 109.18L203.478 110.693C202.769 110.172 201.981 109.911 201.112 109.911C200.113 109.911 199.294 110.283 198.655 111.025C198.016 111.767 197.697 112.759 197.697 114C197.697 115.219 198.031 116.205 198.7 116.958C199.379 117.712 200.253 118.089 201.321 118.089C202.24 118.089 203.069 117.778 203.808 117.158Z" fill="#5599FF"/>
<path d="M233.531 119.817H231.703V114.848H226.91V119.817H225.068V108.183H226.91V112.936H231.703V108.183H233.531V119.817Z" fill="#5599FF"/>
<path d="M255.667 119.817H253.809L258.243 108.15H259.861L264.295 119.817H262.332L261.239 116.842H256.76L255.667 119.817ZM260.535 114.931L259.007 110.792L257.464 114.931H260.535Z" fill="#5599FF"/>
<path d="M293.547 108.183V119.817H292.079L286.312 111.756V119.817H284.589V108.183H286.057L291.824 116.277V108.183H293.547Z" fill="#5599FF"/>
<path d="M322.067 115.463H319.535V113.551H323.789V118.371C323.34 118.87 322.741 119.269 321.992 119.568C321.243 119.856 320.534 120 319.865 120C318.167 120 316.829 119.457 315.851 118.371C314.882 117.296 314.398 115.839 314.398 114C314.398 112.294 314.877 110.87 315.836 109.729C316.794 108.576 318.057 108 319.625 108C320.963 108 322.087 108.393 322.996 109.18L322.217 110.809C321.957 110.532 321.612 110.316 321.183 110.161C320.754 109.994 320.309 109.911 319.85 109.911C318.801 109.911 317.958 110.277 317.318 111.008C316.669 111.729 316.345 112.726 316.345 114C316.345 115.23 316.669 116.222 317.318 116.975C317.958 117.717 318.816 118.089 319.895 118.089C320.274 118.089 320.684 118.011 321.123 117.856C321.563 117.69 321.877 117.501 322.067 117.291V115.463Z" fill="#5599FF"/>
<path d="M351 119.817H344.784V108.183H350.85V110.094H346.626V112.986H350.401V114.898H346.626V117.906H351V119.817Z" fill="#5599FF"/>
<path d="M141 137.355V129.142H142.073V136.845C142.073 137.686 142.31 138.106 142.784 138.106C143.016 138.106 143.271 138.011 143.548 137.822L143.79 138.686C143.405 139.007 142.931 139.168 142.368 139.168C141.456 139.168 141 138.564 141 137.355Z" fill="#083751"/>
<path d="M146.178 138.261C145.588 137.619 145.293 136.822 145.293 135.868C145.293 134.905 145.588 134.112 146.178 133.489C146.777 132.857 147.555 132.54 148.512 132.54C149.469 132.54 150.242 132.857 150.832 133.489C151.431 134.112 151.731 134.905 151.731 135.868C151.731 136.831 151.431 137.629 150.832 138.261C150.242 138.885 149.469 139.196 148.512 139.196C147.564 139.196 146.786 138.885 146.178 138.261ZM147.023 134.24C146.63 134.655 146.433 135.198 146.433 135.868C146.433 136.538 146.625 137.081 147.01 137.497C147.403 137.922 147.904 138.134 148.512 138.134C149.12 138.134 149.616 137.926 150.001 137.511C150.394 137.086 150.591 136.538 150.591 135.868C150.591 135.217 150.394 134.674 150.001 134.24C149.616 133.815 149.12 133.602 148.512 133.602C147.904 133.602 147.408 133.815 147.023 134.24Z" fill="#083751"/>
<path d="M154.406 134.027L154.124 133.121C154.723 132.734 155.394 132.54 156.136 132.54C156.95 132.54 157.54 132.753 157.907 133.178C158.273 133.602 158.457 134.259 158.457 135.146V139.054H157.437V138.233C156.963 138.847 156.32 139.154 155.506 139.154C154.951 139.154 154.504 138.979 154.165 138.63C153.825 138.271 153.655 137.789 153.655 137.185C153.655 136.562 153.865 136.071 154.285 135.712C154.706 135.344 155.255 135.16 155.935 135.16C156.57 135.16 157.071 135.297 157.437 135.571C157.437 134.853 157.343 134.339 157.156 134.027C156.968 133.716 156.606 133.56 156.069 133.56C155.524 133.56 154.969 133.716 154.406 134.027ZM155.881 138.134C156.481 138.134 156.999 137.86 157.437 137.313V136.505C157.062 136.222 156.61 136.081 156.083 136.081C155.716 136.081 155.407 136.175 155.157 136.364C154.916 136.543 154.795 136.798 154.795 137.129C154.795 137.44 154.889 137.686 155.077 137.865C155.273 138.044 155.542 138.134 155.881 138.134Z" fill="#083751"/>
<path d="M166.558 139.054H165.485V138.247C164.948 138.861 164.309 139.168 163.567 139.168C162.681 139.168 161.975 138.87 161.447 138.276C160.92 137.671 160.656 136.883 160.656 135.911C160.656 134.919 160.964 134.112 161.581 133.489C162.207 132.857 162.999 132.54 163.956 132.54C164.564 132.54 165.073 132.691 165.485 132.993V129.142H166.558V139.054ZM163.768 138.106C164.43 138.106 165.002 137.822 165.485 137.256V134.098C164.984 133.768 164.488 133.602 163.996 133.602C163.379 133.602 162.856 133.815 162.427 134.24C162.006 134.655 161.796 135.203 161.796 135.882C161.796 136.562 161.975 137.105 162.333 137.511C162.699 137.907 163.178 138.106 163.768 138.106Z" fill="#083751"/>
<path d="M170.658 139.054H169.585V132.682H170.658V139.054ZM169.451 130.289C169.451 130.09 169.518 129.93 169.652 129.807C169.786 129.675 169.952 129.609 170.149 129.609C170.336 129.609 170.493 129.675 170.618 129.807C170.743 129.93 170.806 130.09 170.806 130.289C170.806 130.506 170.743 130.685 170.618 130.827C170.493 130.959 170.336 131.025 170.149 131.025C169.952 131.025 169.786 130.959 169.652 130.827C169.518 130.685 169.451 130.506 169.451 130.289Z" fill="#083751"/>
<path d="M174.757 139.054H173.684V132.682H174.757V133.461C174.981 133.196 175.271 132.984 175.629 132.824C175.996 132.654 176.362 132.569 176.729 132.569C178.401 132.569 179.237 133.503 179.237 135.373V139.054H178.164V135.585C178.164 134.282 177.596 133.631 176.46 133.631C175.781 133.631 175.213 133.905 174.757 134.452V139.054Z" fill="#083751"/>
<path d="M181.019 139.975C181.019 139.484 181.189 139.073 181.528 138.743C181.868 138.412 182.342 138.176 182.95 138.035C182.852 137.903 182.803 137.728 182.803 137.511C182.803 137.294 182.856 137.114 182.964 136.973C182.534 136.793 182.199 136.52 181.958 136.151C181.725 135.783 181.609 135.358 181.609 134.877C181.609 134.216 181.832 133.664 182.279 133.22C182.736 132.767 183.335 132.54 184.077 132.54C184.649 132.54 185.159 132.696 185.606 133.008L187.376 132.554L187.403 133.475L186.263 133.772C186.451 134.103 186.545 134.471 186.545 134.877C186.545 135.528 186.317 136.076 185.861 136.52C185.414 136.954 184.819 137.171 184.077 137.171C183.871 137.171 183.737 137.166 183.674 137.157C183.63 137.27 183.607 137.388 183.607 137.511C183.607 137.681 183.648 137.822 183.728 137.936C183.746 137.936 183.8 137.936 183.889 137.936C183.987 137.926 184.054 137.922 184.09 137.922C185.029 137.922 185.776 138.101 186.33 138.46C186.885 138.809 187.162 139.314 187.162 139.975C187.162 140.617 186.885 141.113 186.33 141.462C185.776 141.821 185.029 142 184.09 142C183.142 142 182.391 141.825 181.837 141.476C181.291 141.136 181.019 140.636 181.019 139.975ZM186.156 139.975C186.156 139.626 185.973 139.347 185.606 139.139C185.239 138.941 184.734 138.842 184.09 138.842C183.446 138.842 182.941 138.941 182.575 139.139C182.208 139.347 182.025 139.626 182.025 139.975C182.025 140.324 182.208 140.593 182.575 140.782C182.941 140.98 183.446 141.08 184.09 141.08C184.734 141.08 185.239 140.985 185.606 140.796C185.973 140.607 186.156 140.334 186.156 139.975ZM182.615 134.877C182.615 135.273 182.749 135.604 183.017 135.868C183.294 136.123 183.648 136.251 184.077 136.251C184.506 136.251 184.855 136.123 185.123 135.868C185.4 135.613 185.539 135.283 185.539 134.877C185.539 134.471 185.405 134.136 185.136 133.871C184.859 133.598 184.506 133.461 184.077 133.461C183.648 133.461 183.294 133.598 183.017 133.871C182.749 134.136 182.615 134.471 182.615 134.877Z" fill="#083751"/>
<path d="M193.101 137.355V129.142H194.174V136.845C194.174 137.686 194.411 138.106 194.884 138.106C195.117 138.106 195.372 138.011 195.649 137.822L195.89 138.686C195.506 139.007 195.032 139.168 194.469 139.168C193.557 139.168 193.101 138.564 193.101 137.355Z" fill="#083751"/>
<path d="M198.118 134.027L197.836 133.121C198.435 132.734 199.106 132.54 199.848 132.54C200.662 132.54 201.252 132.753 201.618 133.178C201.985 133.602 202.168 134.259 202.168 135.146V139.054H201.149V138.233C200.675 138.847 200.031 139.154 199.217 139.154C198.663 139.154 198.216 138.979 197.876 138.63C197.536 138.271 197.366 137.789 197.366 137.185C197.366 136.562 197.577 136.071 197.997 135.712C198.417 135.344 198.967 135.16 199.647 135.16C200.282 135.16 200.782 135.297 201.149 135.571C201.149 134.853 201.055 134.339 200.867 134.027C200.679 133.716 200.317 133.56 199.781 133.56C199.235 133.56 198.681 133.716 198.118 134.027ZM199.593 138.134C200.192 138.134 200.711 137.86 201.149 137.313V136.505C200.773 136.222 200.322 136.081 199.794 136.081C199.428 136.081 199.119 136.175 198.869 136.364C198.627 136.543 198.507 136.798 198.507 137.129C198.507 137.44 198.6 137.686 198.788 137.865C198.985 138.044 199.253 138.134 199.593 138.134Z" fill="#083751"/>
<path d="M204.636 136.633V130.912H205.709V132.682H207.922V133.744H205.709V136.52C205.709 137.577 206.067 138.106 206.782 138.106C207.131 138.106 207.448 137.988 207.734 137.752L208.07 138.63C207.649 138.988 207.135 139.168 206.527 139.168C205.874 139.168 205.396 138.96 205.092 138.545C204.788 138.129 204.636 137.492 204.636 136.633Z" fill="#083751"/>
<path d="M214.829 137.468L215.165 138.361C214.583 138.918 213.828 139.196 212.898 139.196C211.914 139.196 211.132 138.894 210.55 138.29C209.96 137.686 209.665 136.878 209.665 135.868C209.665 134.915 209.942 134.122 210.497 133.489C211.042 132.857 211.802 132.54 212.777 132.54C213.582 132.54 214.248 132.814 214.776 133.362C215.312 133.9 215.58 134.598 215.58 135.458C215.58 135.731 215.558 135.986 215.513 136.222H210.872C210.917 136.817 211.127 137.284 211.503 137.624C211.887 137.964 212.379 138.134 212.978 138.134C213.765 138.134 214.382 137.912 214.829 137.468ZM212.723 133.602C212.196 133.602 211.758 133.758 211.409 134.07C211.069 134.381 210.868 134.792 210.805 135.302H214.467C214.44 134.773 214.27 134.358 213.957 134.056C213.653 133.753 213.242 133.602 212.723 133.602Z" fill="#083751"/>
<path d="M220.899 137.327C220.899 137.1 220.787 136.911 220.564 136.76C220.34 136.609 220.067 136.487 219.746 136.392C219.433 136.288 219.115 136.17 218.793 136.038C218.471 135.906 218.199 135.698 217.975 135.415C217.751 135.122 217.64 134.764 217.64 134.339C217.64 133.801 217.827 133.366 218.203 133.036C218.579 132.706 219.075 132.54 219.692 132.54C220.577 132.54 221.27 132.79 221.771 133.291L221.261 134.155C220.814 133.739 220.309 133.532 219.746 133.532C219.459 133.532 219.227 133.607 219.048 133.758C218.869 133.909 218.78 134.098 218.78 134.325C218.78 134.57 218.892 134.773 219.115 134.934C219.339 135.085 219.607 135.212 219.92 135.316C220.242 135.41 220.564 135.524 220.886 135.656C221.208 135.779 221.48 135.977 221.704 136.251C221.927 136.524 222.039 136.864 222.039 137.27C222.039 137.903 221.816 138.384 221.369 138.715C220.93 139.036 220.376 139.196 219.705 139.196C219.231 139.196 218.78 139.092 218.351 138.885C217.912 138.667 217.622 138.441 217.479 138.205L218.082 137.398C218.261 137.615 218.521 137.804 218.86 137.964C219.218 138.125 219.54 138.205 219.826 138.205C220.139 138.205 220.394 138.129 220.591 137.978C220.796 137.818 220.899 137.601 220.899 137.327Z" fill="#083751"/>
<path d="M224.275 136.633V130.912H225.348V132.682H227.561V133.744H225.348V136.52C225.348 137.577 225.706 138.106 226.421 138.106C226.77 138.106 227.087 137.988 227.373 137.752L227.709 138.63C227.288 138.988 226.774 139.168 226.166 139.168C225.513 139.168 225.035 138.96 224.731 138.545C224.427 138.129 224.275 137.492 224.275 136.633Z" fill="#083751"/>
<path d="M237.972 132.682H239.112L236.443 139.111H235.665L232.861 132.682H234.122L235.584 136.123C235.754 136.52 235.924 136.992 236.094 137.539C236.219 137.095 236.385 136.614 236.59 136.095L237.972 132.682Z" fill="#083751"/>
<path d="M245.47 137.468L245.805 138.361C245.224 138.918 244.468 139.196 243.538 139.196C242.555 139.196 241.772 138.894 241.191 138.29C240.601 137.686 240.306 136.878 240.306 135.868C240.306 134.915 240.583 134.122 241.137 133.489C241.683 132.857 242.443 132.54 243.418 132.54C244.222 132.54 244.889 132.814 245.416 133.362C245.953 133.9 246.221 134.598 246.221 135.458C246.221 135.731 246.199 135.986 246.154 136.222H241.513C241.558 136.817 241.768 137.284 242.143 137.624C242.528 137.964 243.02 138.134 243.619 138.134C244.406 138.134 245.023 137.912 245.47 137.468ZM243.364 133.602C242.836 133.602 242.398 133.758 242.049 134.07C241.71 134.381 241.508 134.792 241.446 135.302H245.108C245.081 134.773 244.911 134.358 244.598 134.056C244.294 133.753 243.883 133.602 243.364 133.602Z" fill="#083751"/>
<path d="M249.555 139.054H248.481V132.682H249.555V133.432C249.912 132.857 250.417 132.569 251.07 132.569C251.49 132.569 251.803 132.649 252.009 132.809L251.634 133.871C251.374 133.711 251.102 133.631 250.815 133.631C250.27 133.631 249.85 133.933 249.555 134.537V139.054Z" fill="#083751"/>
<path d="M256.903 137.327C256.903 137.1 256.791 136.911 256.567 136.76C256.344 136.609 256.071 136.487 255.749 136.392C255.436 136.288 255.119 136.17 254.797 136.038C254.475 135.906 254.202 135.698 253.979 135.415C253.755 135.122 253.643 134.764 253.643 134.339C253.643 133.801 253.831 133.366 254.207 133.036C254.582 132.706 255.079 132.54 255.696 132.54C256.581 132.54 257.274 132.79 257.775 133.291L257.265 134.155C256.818 133.739 256.313 133.532 255.749 133.532C255.463 133.532 255.231 133.607 255.052 133.758C254.873 133.909 254.784 134.098 254.784 134.325C254.784 134.57 254.895 134.773 255.119 134.934C255.342 135.085 255.611 135.212 255.924 135.316C256.246 135.41 256.567 135.524 256.889 135.656C257.211 135.779 257.484 135.977 257.708 136.251C257.931 136.524 258.043 136.864 258.043 137.27C258.043 137.903 257.819 138.384 257.372 138.715C256.934 139.036 256.38 139.196 255.709 139.196C255.235 139.196 254.784 139.092 254.354 138.885C253.916 138.667 253.626 138.441 253.482 138.205L254.086 137.398C254.265 137.615 254.524 137.804 254.864 137.964C255.222 138.125 255.544 138.205 255.83 138.205C256.143 138.205 256.398 138.129 256.594 137.978C256.8 137.818 256.903 137.601 256.903 137.327Z" fill="#083751"/>
<path d="M261.781 139.054H260.708V132.682H261.781V139.054ZM260.574 130.289C260.574 130.09 260.641 129.93 260.775 129.807C260.909 129.675 261.075 129.609 261.271 129.609C261.459 129.609 261.616 129.675 261.741 129.807C261.866 129.93 261.929 130.09 261.929 130.289C261.929 130.506 261.866 130.685 261.741 130.827C261.616 130.959 261.459 131.025 261.271 131.025C261.075 131.025 260.909 130.959 260.775 130.827C260.641 130.685 260.574 130.506 260.574 130.289Z" fill="#083751"/>
<path d="M265.29 138.261C264.699 137.619 264.404 136.822 264.404 135.868C264.404 134.905 264.699 134.112 265.29 133.489C265.889 132.857 266.667 132.54 267.623 132.54C268.58 132.54 269.354 132.857 269.944 133.489C270.543 134.112 270.843 134.905 270.843 135.868C270.843 136.831 270.543 137.629 269.944 138.261C269.354 138.885 268.58 139.196 267.623 139.196C266.676 139.196 265.898 138.885 265.29 138.261ZM266.135 134.24C265.741 134.655 265.544 135.198 265.544 135.868C265.544 136.538 265.737 137.081 266.121 137.497C266.515 137.922 267.015 138.134 267.623 138.134C268.232 138.134 268.728 137.926 269.112 137.511C269.506 137.086 269.702 136.538 269.702 135.868C269.702 135.217 269.506 134.674 269.112 134.24C268.728 133.815 268.232 133.602 267.623 133.602C267.015 133.602 266.519 133.815 266.135 134.24Z" fill="#083751"/>
<path d="M274.269 139.054H273.196V132.682H274.269V133.461C274.492 133.196 274.783 132.984 275.141 132.824C275.507 132.654 275.874 132.569 276.24 132.569C277.913 132.569 278.749 133.503 278.749 135.373V139.054H277.676V135.585C277.676 134.282 277.108 133.631 275.972 133.631C275.293 133.631 274.725 133.905 274.269 134.452V139.054Z" fill="#083751"/>
<path d="M285.662 138.261C285.072 137.619 284.777 136.822 284.777 135.868C284.777 134.905 285.072 134.112 285.662 133.489C286.261 132.857 287.039 132.54 287.996 132.54C288.953 132.54 289.726 132.857 290.317 133.489C290.916 134.112 291.215 134.905 291.215 135.868C291.215 136.831 290.916 137.629 290.317 138.261C289.726 138.885 288.953 139.196 287.996 139.196C287.048 139.196 286.27 138.885 285.662 138.261ZM286.507 134.24C286.114 134.655 285.917 135.198 285.917 135.868C285.917 136.538 286.109 137.081 286.494 137.497C286.887 137.922 287.388 138.134 287.996 138.134C288.604 138.134 289.101 137.926 289.485 137.511C289.878 137.086 290.075 136.538 290.075 135.868C290.075 135.217 289.878 134.674 289.485 134.24C289.101 133.815 288.604 133.602 287.996 133.602C287.388 133.602 286.892 133.815 286.507 134.24Z" fill="#083751"/>
<path d="M294.776 139.054H293.703V131.648C293.703 130.78 293.886 130.123 294.252 129.68C294.619 129.227 295.142 129 295.822 129C296.528 129 297.065 129.189 297.431 129.566L297.056 130.43C296.77 130.185 296.416 130.062 295.996 130.062C295.182 130.062 294.776 130.633 294.776 131.776V132.682H296.788V133.744H294.776V139.054Z" fill="#083751"/>
<path d="M302.685 131.846L302.122 130.926L304.375 129.085H305.126V139.054H304.053V130.714L302.685 131.846Z" fill="#083751"/>
<path d="M309.873 139.054H308.8V132.682H309.873V139.054ZM308.666 130.289C308.666 130.09 308.733 129.93 308.867 129.807C309.001 129.675 309.167 129.609 309.364 129.609C309.551 129.609 309.708 129.675 309.833 129.807C309.958 129.93 310.021 130.09 310.021 130.289C310.021 130.506 309.958 130.685 309.833 130.827C309.708 130.959 309.551 131.025 309.364 131.025C309.167 131.025 309.001 130.959 308.867 130.827C308.733 130.685 308.666 130.506 308.666 130.289Z" fill="#083751"/>
<path d="M313.972 139.054H312.899V132.682H313.972V133.461C314.196 133.196 314.486 132.984 314.844 132.824C315.211 132.654 315.577 132.569 315.944 132.569C317.616 132.569 318.452 133.503 318.452 135.373V139.054H317.379V135.585C317.379 134.282 316.811 133.631 315.676 133.631C314.996 133.631 314.428 133.905 313.972 134.452V139.054Z" fill="#083751"/>
<path d="M325.706 137.313L326.216 138.134C325.697 138.842 324.924 139.196 323.895 139.196C322.93 139.196 322.147 138.894 321.548 138.29C320.958 137.686 320.663 136.878 320.663 135.868C320.663 134.934 320.954 134.145 321.535 133.503C322.116 132.861 322.845 132.54 323.721 132.54C324.776 132.54 325.568 132.819 326.095 133.376L325.599 134.268C325.134 133.824 324.557 133.602 323.869 133.602C323.305 133.602 322.818 133.82 322.407 134.254C322.004 134.679 321.803 135.217 321.803 135.868C321.803 136.557 322.009 137.105 322.42 137.511C322.84 137.926 323.359 138.134 323.976 138.134C324.673 138.134 325.25 137.86 325.706 137.313Z" fill="#083751"/>
<path d="M329.492 139.054H328.419V129.142H329.492V133.418C330.029 132.852 330.686 132.569 331.464 132.569C333.136 132.569 333.972 133.513 333.972 135.401V139.054H332.899V135.557C332.899 134.273 332.336 133.631 331.209 133.631C330.896 133.631 330.579 133.706 330.257 133.857C329.944 134.008 329.689 134.202 329.492 134.438V139.054Z" fill="#083751"/>
<path d="M339.506 138.29C339.506 138.092 339.577 137.917 339.72 137.766C339.872 137.615 340.056 137.539 340.27 137.539C340.458 137.539 340.623 137.615 340.766 137.766C340.909 137.917 340.981 138.092 340.981 138.29C340.981 138.516 340.914 138.71 340.78 138.87C340.646 139.021 340.476 139.097 340.27 139.097C340.056 139.097 339.872 139.021 339.72 138.87C339.577 138.71 339.506 138.516 339.506 138.29Z" fill="#083751"/>
<path d="M344.515 138.29C344.515 138.092 344.587 137.917 344.73 137.766C344.882 137.615 345.065 137.539 345.28 137.539C345.467 137.539 345.633 137.615 345.776 137.766C345.919 137.917 345.991 138.092 345.991 138.29C345.991 138.516 345.923 138.71 345.789 138.87C345.655 139.021 345.485 139.097 345.28 139.097C345.065 139.097 344.882 139.021 344.73 138.87C344.587 138.71 344.515 138.516 344.515 138.29Z" fill="#083751"/>
<path d="M349.525 138.29C349.525 138.092 349.596 137.917 349.739 137.766C349.891 137.615 350.075 137.539 350.289 137.539C350.477 137.539 350.642 137.615 350.785 137.766C350.928 137.917 351 138.092 351 138.29C351 138.516 350.933 138.71 350.799 138.87C350.665 139.021 350.495 139.097 350.289 139.097C350.075 139.097 349.891 139.021 349.739 138.87C349.596 138.71 349.525 138.516 349.525 138.29Z" fill="#083751"/>
</svg>
