<svg id="mask" width="78" height="97" viewBox="0 0 78 97" fill="none" xmlns="http://www.w3.org/2000/svg">
    <g>
        <path
            d="M24.2845 51.2175C24.2845 50.8127 24.2813 50.5359 24.2849 50.2594C24.3148 48.115 24.6598 46.0256 25.4068 44.01C25.5809 43.5398 25.7936 43.0837 25.9947 42.6237C26.0422 42.515 26.1077 42.3917 26.2401 42.3863C26.3772 42.3805 26.4329 42.5057 26.4811 42.6154C26.5635 42.8037 26.5862 43.0242 26.7996 43.2013C26.8982 42.9005 26.9755 42.6316 27.0752 42.3712C27.163 42.1424 27.3105 42.0833 27.5336 42.1837C27.7293 42.2723 27.9186 42.3777 28.1035 42.4878C29.5449 43.3455 30.9823 44.2097 32.4258 45.0642C33.4207 45.653 34.4753 46.1041 35.5971 46.3978C36.1394 46.5398 36.6873 46.5581 37.2396 46.5129C37.8808 46.4602 38.3709 46.1468 38.7134 45.6082C38.9206 45.2826 39.0624 44.9287 39.1462 44.5511C39.1927 44.3416 39.2455 44.1333 39.3056 43.9278C39.3128 43.9035 39.3826 43.8923 39.4251 43.8852C39.4413 43.8823 39.4737 43.9042 39.4798 43.9214C39.519 44.0322 39.5708 44.1423 39.5859 44.257C39.6323 44.617 39.737 44.9588 39.8946 45.2829C40.271 46.0575 40.8773 46.495 41.7573 46.533C42.4118 46.5613 43.0472 46.4756 43.6718 46.2787C44.5696 45.9962 45.4068 45.5892 46.2113 45.1058C47.7106 44.2047 49.2135 43.31 50.7164 42.415C50.8809 42.3171 51.0503 42.2256 51.2252 42.1482C51.4472 42.0496 51.6001 42.1059 51.6919 42.3207C51.757 42.4738 51.7973 42.6373 51.8487 42.7961C51.898 42.9485 51.8894 43.1239 52.029 43.2483C52.201 43.0934 52.1927 42.855 52.3035 42.6739C52.3658 42.5724 52.4097 42.4458 52.5543 42.4519C52.6889 42.4576 52.7555 42.5702 52.8123 42.6735C52.8929 42.8202 52.9667 42.9708 53.0332 43.1239C53.665 44.5808 54.0824 46.0958 54.2968 47.6693C54.439 48.7103 54.5163 49.7559 54.5545 50.8367C54.806 50.3749 54.9049 49.9822 55.0384 48.2025C55.1082 47.2752 55.0812 46.339 55.0704 45.4074C55.0564 44.2294 54.9204 43.3193 54.7106 42.7388C54.5098 42.7667 54.5181 42.9952 54.3803 43.0819C54.285 43.1418 54.2015 43.1196 54.1295 43.0407C54.1137 43.0235 54.1026 43.0009 54.0936 42.9787C53.878 42.4469 53.6593 41.9165 53.4495 41.3826C53.3578 41.1492 53.4035 41.0294 53.6071 40.8978C53.6672 40.8587 53.7302 40.8225 53.7953 40.7924C55.1722 40.163 56.5712 39.5958 58.0856 39.3878C59.2294 39.2307 60.3228 39.3982 61.385 39.8694C62.1668 40.2161 62.3813 40.8605 62.2866 41.5558C62.232 41.9588 62.1291 42.3536 61.9751 42.732C61.8128 43.1303 61.6473 43.528 61.4713 43.9203C61.3346 44.2258 61.1946 44.5317 61.0299 44.8225C60.4473 45.8509 60.3484 46.9421 60.5488 48.086C60.6639 48.7444 60.7712 49.4038 60.7622 50.0787C60.7373 51.967 59.8116 53.2894 58.1896 54.168C57.6337 54.4688 57.0123 54.5617 56.383 54.5933C55.4198 54.6413 54.4631 54.5592 53.5164 54.4061C51.9283 54.1497 50.3653 53.7803 48.8433 53.2532C47.3375 52.7318 45.9379 52.0068 44.6484 51.0719C44.5325 50.988 44.4134 50.9084 44.2936 50.8299C44.2799 50.8209 44.2522 50.8328 44.2231 50.836C44.2062 51.0364 44.3814 51.1117 44.4897 51.2182C46.1405 52.8365 48.0668 54.0163 50.2483 54.7833C51.9722 55.3897 53.7348 55.8372 55.5526 56.0574C56.198 56.1355 56.8461 56.1384 57.4919 56.085C58.5461 55.9978 59.4086 55.5098 60.1303 54.7604C60.9964 53.8614 61.4422 52.7666 61.5505 51.542C61.6199 50.7567 61.5814 49.9689 61.472 49.1822C61.367 48.4263 61.2468 47.67 61.2662 46.8998C61.2814 46.2945 61.3814 45.7111 61.6052 45.1503C61.8797 44.4618 62.1632 43.7769 62.4388 43.0884C62.6878 42.4662 62.9026 41.8326 63.0599 41.1804C63.1678 40.7336 63.1757 40.2814 63.1523 39.8263C63.1268 39.3279 62.8814 38.979 62.4471 38.738C61.3548 38.1317 60.1912 37.9631 58.9675 38.1618C57.9168 38.3321 56.9299 38.6982 55.9732 39.1525C55.6727 39.2953 55.3727 39.4391 55.0747 39.5811C54.9373 39.3849 55.0895 39.3301 55.1719 39.277C56.723 38.2808 58.3983 37.6013 60.2286 37.3148C61.0644 37.1839 61.8963 37.1409 62.7314 37.3162C62.9915 37.3707 63.243 37.4414 63.479 37.564C63.7762 37.7189 64.0749 37.8713 64.3717 38.0269C65.0492 38.3823 65.4795 38.9313 65.6364 39.6786C65.7447 40.1946 65.7811 40.7106 65.7059 41.2442C65.585 42.1001 65.3979 42.9371 65.1309 43.7568C64.6901 45.1105 64.4879 46.4985 64.4937 47.9196C64.5005 49.5691 64.5063 51.2186 64.5135 52.8677C64.516 53.4673 64.4617 54.0608 64.3404 54.6485C63.963 56.478 62.939 57.7621 61.154 58.4014C59.8285 58.8762 58.4698 59.0637 57.0562 58.9504C54.8207 58.7715 52.7407 58.0844 50.7305 57.1435C49.5356 56.5841 48.3792 55.9523 47.2594 55.2538C47.1796 55.2039 47.095 55.1613 47.0026 55.11C46.9515 55.309 47.1148 55.3689 47.2055 55.4481C47.6919 55.8734 48.1762 56.3023 48.7163 56.6627C48.8329 56.7405 48.9297 56.8477 49.0322 56.9449C49.043 56.9549 49.0365 56.9933 49.0261 57.0123C49.0157 57.0316 48.9894 57.0575 48.9725 57.0557C48.8778 57.0467 48.7789 57.0453 48.6911 57.0137C46.3153 56.1631 44.4393 54.7385 43.3462 52.4062C43.1742 52.039 42.9627 51.6901 42.7626 51.3366C42.7191 51.2598 42.6705 51.1616 42.5431 51.1931C42.442 51.3567 42.5399 51.5162 42.559 51.6769C42.5759 51.8221 42.5683 51.9609 42.5133 52.0986C42.4352 52.294 42.2121 52.3912 42.0441 52.2746C41.9092 52.1807 41.7822 52.0638 41.6811 51.9343C41.1036 51.1946 40.643 50.3856 40.2674 49.5275C40.1508 49.2607 40.1242 48.9746 40.0681 48.6938C40.0119 48.4145 39.8327 48.2284 39.5435 48.1674C39.1434 48.0835 38.8264 48.2646 38.7458 48.6859C38.5238 49.8477 37.8959 50.8066 37.2425 51.754C37.1216 51.929 36.9694 52.0885 36.8082 52.228C36.5913 52.4156 36.3232 52.3127 36.2599 52.0369C36.2106 51.8217 36.2361 51.6102 36.2818 51.3979C36.3056 51.2867 36.3786 51.1741 36.2944 51.0583C36.1678 51.045 36.1314 51.149 36.0879 51.2265C35.8648 51.622 35.6248 52.0107 35.4338 52.4213C34.3447 54.7618 32.4507 56.1635 30.0795 57.0155C30.0141 57.0392 29.9392 57.0402 29.8687 57.046C29.8489 57.0474 29.8137 57.0316 29.8093 57.0169C29.7982 56.9768 29.7798 56.9115 29.7993 56.8943C29.9223 56.7824 30.0504 56.6749 30.185 56.5766C30.63 56.2514 31.0776 55.9293 31.4655 55.5349C31.5299 55.4693 31.5839 55.3933 31.649 55.314C31.4551 55.2237 31.3579 55.3628 31.2464 55.4291C29.9255 56.2108 28.5846 56.951 27.1648 57.5451C25.7439 58.14 24.2885 58.6062 22.7604 58.8378C21.4198 59.0412 20.086 59.0394 18.7594 58.741C17.9581 58.5607 17.1935 58.2845 16.5078 57.8238C15.646 57.2446 15.0293 56.4776 14.6911 55.4876C14.3781 54.5707 14.2719 53.6208 14.2417 52.6659C14.21 51.6636 14.219 50.6603 14.3047 49.657C14.372 48.8727 14.3687 48.0817 14.2709 47.2946C14.1971 46.7026 14.2147 46.1034 14.1035 45.5114C13.9974 44.9459 13.8668 44.3901 13.6894 43.8436C13.4455 43.092 13.2569 42.3271 13.1267 41.5472C13.0472 41.0717 13.0281 40.5933 13.0774 40.1179C13.1774 39.1526 13.5825 38.3798 14.5281 37.9767C14.6382 37.9298 14.7523 37.8853 14.8509 37.8193C15.7831 37.199 16.8298 37.1212 17.8955 37.2234C19.6618 37.3926 21.3169 37.9384 22.8597 38.8108C23.5031 39.1748 24.1518 39.5348 24.7062 40.021C24.6573 40.1957 24.5533 40.1265 24.4842 40.0928C24.2694 39.9873 24.0618 39.8669 23.8503 39.7543C22.5769 39.0762 21.2705 38.4809 19.8428 38.1991C18.6551 37.9649 17.5091 38.0707 16.407 38.605C15.7317 38.9324 15.3837 39.4272 15.4096 40.1928C15.4269 40.7013 15.5276 41.1879 15.6712 41.6698C15.9238 42.519 16.244 43.3433 16.5912 44.1577C16.7226 44.4657 16.8539 44.7737 16.9773 45.0846C17.191 45.6232 17.2928 46.1815 17.3094 46.7632C17.3367 47.7245 17.1921 48.6691 17.0741 49.6175C16.9672 50.4756 16.9521 51.3312 17.1349 52.1846C17.4289 53.5569 18.1398 54.6506 19.297 55.4521C19.9277 55.8888 20.6419 56.0649 21.3975 56.1065C22.5816 56.1721 23.7438 55.9921 24.8951 55.7554C26.1408 55.499 27.3602 55.1408 28.5558 54.7044C30.448 54.0138 32.1434 52.999 33.6416 51.6568C33.8733 51.4492 34.105 51.2416 34.3324 51.0296C34.3609 51.0031 34.3648 50.9504 34.381 50.9077C34.2144 50.8812 34.1302 51.0192 34.0234 51.096C32.2672 52.3535 30.3239 53.2009 28.2391 53.7491C26.8687 54.1095 25.4841 54.3957 24.0748 54.5413C23.1918 54.6323 22.3049 54.6578 21.4241 54.476C19.7532 54.1307 18.0214 52.559 17.9423 50.3361C17.9139 49.5408 18.024 48.7609 18.1582 47.9849C18.3481 46.8865 18.2294 45.8502 17.6908 44.8591C17.3371 44.2083 17.0269 43.5334 16.7629 42.8392C16.6092 42.435 16.4948 42.0216 16.4178 41.5974C16.3703 41.3349 16.3872 41.076 16.4495 40.8157C16.5524 40.385 16.8262 40.1132 17.2137 39.9228C18.2787 39.3989 19.4027 39.2182 20.5725 39.382C22.157 39.604 23.6268 40.1864 25.0606 40.8687C25.125 40.8996 25.1862 40.9387 25.2445 40.9803C25.3794 41.076 25.4179 41.2119 25.3596 41.3589C25.1484 41.8921 24.9326 42.4232 24.7109 42.9521C24.6249 43.1572 24.49 43.1687 24.3317 42.9962C24.2554 42.913 24.2407 42.7685 24.0924 42.7563C23.8913 43.2146 23.7931 43.9088 23.756 45.1313C23.67 47.9157 23.8391 50.0051 24.2845 51.2175Z"
            fill="currentColor"/>
        <path
            d="M27.4339 66.1128C27.6523 65.7091 27.7549 65.2967 27.943 64.9252C28.1481 64.52 28.341 64.1076 28.5684 63.715C28.7839 63.3435 29.0214 62.982 29.2786 62.6378C29.5499 62.2742 29.8428 61.9242 30.1508 61.5911C30.4426 61.2755 30.7535 60.9739 31.0809 60.695C31.4267 60.4006 31.7915 60.1255 32.1664 59.8688C32.5215 59.6257 32.8921 59.4023 33.271 59.1979C33.6499 58.9935 34.0395 58.8041 34.4386 58.6435C34.8599 58.4739 35.2935 58.3279 35.7306 58.2046C36.1448 58.0877 36.5682 57.9966 36.9928 57.9245C37.4411 57.8485 37.8948 57.804 38.3471 57.7538C38.7771 57.7061 39.2078 57.7219 39.6395 57.7503C44.8006 58.0884 49.1542 61.4444 50.6884 66.5851C50.8161 66.4495 50.7276 66.3061 50.6963 66.1724C50.3736 64.7846 49.8177 63.4934 49.0257 62.3097C48.363 61.3189 48.2971 60.2112 48.3313 59.0781C48.3331 59.0196 48.3853 58.9429 48.4371 58.9099C48.5324 58.8493 48.626 58.9096 48.6926 58.977C49.0117 59.3004 49.346 59.6124 49.637 59.9595C51.3717 62.0278 52.4626 64.3974 52.7936 67.0721C53.2711 70.9286 52.3266 74.4263 49.8947 77.4814C47.4976 80.4928 44.3429 82.2166 40.5268 82.6612C38.0301 82.952 35.6022 82.5777 33.2987 81.5227C31.7357 80.807 30.3224 79.8703 29.1232 78.6425C26.9111 76.3781 25.5021 73.6747 25.1985 70.5299C24.6706 65.0622 26.6672 60.6552 31.1744 57.4483C33.1256 56.0599 35.332 55.3172 37.7243 55.0831C40.6142 54.8002 43.2926 55.4374 45.8195 56.8093C45.9865 56.9 46.1397 57.0173 46.293 57.131C46.3214 57.1521 46.3394 57.2253 46.3243 57.2558C46.3092 57.287 46.247 57.3106 46.2056 57.3106C46.1351 57.3106 46.0627 57.2959 45.9944 57.2762C44.9081 56.9667 43.7992 56.7702 42.6774 56.6573C41.6256 56.5515 40.5667 56.5472 39.5168 56.6433C37.9373 56.7878 36.3761 57.0829 34.8934 57.6516C31.087 59.1122 28.5889 61.8012 27.4292 65.7091C27.3961 65.8213 27.3486 65.935 27.4339 66.1128ZM49.1682 73.972C49.9814 72.5606 50.2919 69.9346 49.8749 67.7634C49.3726 65.1475 48.0834 62.9806 46.0296 61.297C41.685 57.7363 35.5288 58.0178 31.5292 61.6771C29.4452 63.5841 28.2841 65.9655 27.9761 68.7635C27.7955 70.4033 28.1809 73.0224 28.8361 73.9562C28.8465 73.9354 28.8688 73.9124 28.8656 73.8941C28.8415 73.7536 28.8166 73.6127 28.7846 73.4735C28.4597 72.0589 28.4025 70.6389 28.6616 69.2056C29.4312 64.9485 32.8583 61.5531 37.059 60.7785C38.0049 60.6042 38.1215 60.6838 38.124 61.6237C38.1291 63.5601 38.1143 65.4964 38.1323 67.4324C38.1377 67.989 37.9704 68.3443 37.4526 68.6412C36.5891 69.1368 36.1372 69.94 36.121 70.9563C36.1196 71.052 36.1117 71.1481 36.1189 71.2431C36.143 71.5723 35.9875 71.7882 35.7008 71.928C35.6148 71.97 35.5335 72.0213 35.4503 72.0693C33.7679 73.0371 32.0811 73.9971 30.4055 74.9767C29.4128 75.5569 29.3653 75.3231 30.1299 76.4053C30.521 76.9586 30.5818 76.9576 31.1784 76.6137C32.6939 75.7402 34.2083 74.8652 35.7234 73.991C36.0138 73.8235 36.3106 73.6654 36.5949 73.4879C36.9093 73.2914 36.9183 73.2272 36.7525 72.9145C36.6406 72.7036 36.5161 72.4971 36.4283 72.2762C35.8044 70.711 36.8935 69.1282 38.1266 68.7355C39.224 68.3863 40.3696 68.7104 41.1154 69.6001C41.8487 70.4743 42.0009 71.7068 41.3885 72.6775C40.9686 73.3434 41.1442 73.3183 41.6555 73.6317C41.676 73.6442 41.6962 73.6571 41.7167 73.6693C43.3988 74.6378 45.0808 75.6064 46.7629 76.5742C46.8874 76.6459 47.0148 76.7126 47.1404 76.7829C47.3069 76.8761 47.4642 76.8693 47.5973 76.727C47.8934 76.4111 48.137 76.0561 48.3421 75.6763C48.4065 75.5573 48.3712 75.4414 48.2539 75.3672C48.1125 75.2776 47.9668 75.1944 47.8218 75.1108C46.0987 74.1175 44.3753 73.1253 42.6522 72.1321C41.9095 71.7043 41.8728 71.7294 41.8664 70.8544C41.8606 70.0652 41.5231 69.4226 40.9298 68.9141C40.7308 68.7438 40.5149 68.5849 40.2847 68.4619C39.9929 68.3056 39.8824 68.0696 39.8727 67.762C39.8691 67.6426 39.8651 67.5232 39.8651 67.4034C39.8648 65.467 39.8608 63.531 39.8666 61.5947C39.8694 60.696 39.9975 60.5967 40.8891 60.7695C43.3045 61.2375 45.3334 62.3792 46.9414 64.2425C48.7433 66.3305 49.5723 68.7646 49.5021 71.507C49.4838 72.2253 49.3366 72.9299 49.1844 73.6313C49.1614 73.7421 49.0822 73.8533 49.1682 73.972Z"
            fill="currentColor"/>
        <path
            d="M39.4524 0.0132555C39.6924 0.0132555 39.932 0.0139727 40.172 0.0132555C43.3326 0.00429087 46.4333 0.437104 49.4827 1.25755C51.0381 1.67602 52.5442 2.22752 54.0108 2.88876C54.1831 2.96657 54.3742 3.02143 54.4911 3.18853C54.503 3.20539 54.503 3.23766 54.4958 3.25846C54.4893 3.27782 54.4688 3.30149 54.4498 3.30687C54.2778 3.35743 54.1205 3.27567 53.9608 3.23981C53.0253 3.0304 52.0959 2.79015 51.1561 2.6026C49.5334 2.27844 47.8956 2.06222 46.2441 1.92524C45.1668 1.83595 44.086 1.85388 43.0127 1.76567C41.3543 1.6294 39.7014 1.75132 38.0553 1.84527C34.3324 2.0572 30.6761 2.68185 27.131 3.88563C25.5852 4.41059 24.2111 5.21383 22.9777 6.26377C21.5695 7.46252 20.2781 8.7753 19.2005 10.2832C18.1038 11.8175 17.2889 13.4828 16.8708 15.3303C16.2383 18.1258 16.624 20.799 17.8916 23.3457C19.0113 25.5955 20.6088 27.4479 22.7324 28.8221C23.706 29.4524 24.7505 29.9046 25.9231 30.0556C28.0877 30.3346 30.1101 31.0854 32.0563 32.0368C34.1943 33.0817 36.2099 34.3292 38.0488 35.845C38.3989 36.1336 38.7242 36.4535 39.0512 36.769C39.6708 37.3679 40.403 37.7494 41.2439 37.9337C41.4328 37.9753 41.6174 38.0062 41.812 37.9646C42.6475 37.7853 43.4027 37.4597 44.036 36.8637C47.0137 34.0621 50.493 32.0931 54.3375 30.738C55.2449 30.4181 56.1829 30.2069 57.1346 30.0825C57.9542 29.9753 58.7278 29.7533 59.4625 29.3825C59.587 29.3198 59.7425 29.2011 59.858 29.3104C60.0336 29.4768 59.8328 29.6178 59.7443 29.7354C58.7865 31.0091 57.6765 32.1221 56.2851 32.93C55.6371 33.3062 54.9492 33.5561 54.2019 33.6802C52.65 33.9376 51.1943 34.496 49.8148 35.2364C47.2429 36.6173 44.9157 38.3292 42.8792 40.4245C42.5619 40.7508 42.2549 41.0843 41.9747 41.4446C41.4299 42.1457 40.7186 42.6118 39.8702 42.8783C39.5604 42.9754 39.2639 42.9744 38.9537 42.8793C38.1024 42.6179 37.4016 42.1374 36.8316 41.4633C34.4285 38.6208 31.4896 36.4736 28.1593 34.8406C26.9701 34.2575 25.7212 33.8448 24.4051 33.6425C23.4333 33.493 22.592 33.0365 21.8015 32.4803C20.9333 31.8697 20.1792 31.1303 19.5085 30.3163C17.3551 27.7025 16.0544 24.7141 15.6198 21.357C15.1812 17.9687 15.7446 14.7389 17.1914 11.6551C18.2683 9.35944 19.7183 7.31407 21.4918 5.50679C23.0555 3.91324 24.8948 2.73277 27.0155 1.97902C29.5373 1.08292 32.1311 0.518503 34.7833 0.215498C36.3333 0.0376394 37.8916 -0.0315677 39.4524 0.0132555Z"
            fill="currentColor"/>
        <path
            d="M73.6604 74.9441C73.4506 75.3819 73.2981 75.7047 73.1419 76.0256C70.1555 82.1764 67.0548 88.2706 63.9946 94.3848C63.7593 94.8553 63.5255 95.3261 63.2858 95.7944C63.2099 95.9429 63.1297 96.0924 63.0296 96.2247C62.8587 96.4503 62.6619 96.5095 62.3953 96.4148C62.2154 96.351 62.0427 96.2645 61.8714 96.1792C58.8692 94.6835 55.8677 93.1868 52.8666 91.6897C52.7382 91.6255 52.6076 91.5631 52.486 91.4875C52.1531 91.2802 52.088 91.0737 52.2334 90.6982C52.2765 90.5871 52.3338 90.4813 52.3874 90.3744C54.6081 85.952 56.8295 81.5295 59.0506 77.1071C59.0614 77.0856 59.0714 77.0641 59.0826 77.0429C59.3985 76.4476 59.4388 76.4272 60.0864 76.7101C60.8107 77.0268 61.5267 77.362 62.2474 77.6873C64.6275 78.7612 67.008 79.8345 69.3892 80.907C69.5417 80.9759 69.6964 81.0422 69.8548 81.0956C69.9803 81.1383 70.0951 81.0974 70.1656 80.983C70.2656 80.8202 70.3581 80.6528 70.4495 80.485C71.3879 78.7637 72.3248 77.0415 73.2657 75.3217C73.3319 75.2008 73.3668 75.0481 73.6604 74.9441Z"
            fill="currentColor"/>
        <path
            d="M4.622 75.1463C4.79147 75.4311 4.97101 75.7104 5.12896 76.0016C5.94896 77.5148 6.76319 79.0313 7.57995 80.5463C7.64795 80.6725 7.71199 80.8012 7.78827 80.9224C7.90917 81.115 7.99912 81.1523 8.20816 81.077C8.43304 80.9959 8.65396 80.9016 8.872 80.803C11.6871 79.5293 14.5015 78.2535 17.3166 76.9801C17.6221 76.8421 17.9293 76.7069 18.2424 76.5871C18.5101 76.4849 18.6191 76.5315 18.7745 76.7876C18.8612 76.9303 18.9346 77.0813 19.0095 77.2308C21.1974 81.5891 23.385 85.9477 25.5708 90.307C25.6669 90.4985 25.7561 90.6957 25.8252 90.8979C25.8947 91.1013 25.8184 91.2805 25.6475 91.4014C25.5115 91.4975 25.3596 91.5724 25.21 91.6474C22.1667 93.1667 19.1224 94.6846 16.0785 96.2021C15.9501 96.2663 15.8216 96.3323 15.6878 96.3836C15.3161 96.527 15.1221 96.4621 14.9073 96.1107C14.7954 95.9275 14.7055 95.731 14.6091 95.5388C12.4531 91.2447 10.2947 86.9517 8.14412 82.6551C7.02045 80.4107 5.9101 78.1595 4.79614 75.9105C4.68245 75.6806 4.58494 75.4432 4.47988 75.2091C4.52737 75.1876 4.57451 75.1671 4.622 75.1463Z"
            fill="currentColor"/>
        <path
            d="M39.94 32.3645C39.188 32.4183 38.4601 32.282 37.7448 32.0647C36.8266 31.7858 35.9292 31.4505 35.0617 31.0395C34.1093 30.5881 33.1584 30.1341 32.2078 29.6794C30.8643 29.0372 29.4905 28.485 28.0218 28.1874C27.3148 28.0443 26.6427 27.7861 25.9965 27.4641C24.503 26.7207 23.4171 25.5736 22.696 24.0884C22.1167 22.895 21.8116 21.6234 21.6724 20.3028C21.5795 19.4206 21.5338 18.5396 21.5695 17.6568C21.6119 16.6072 21.6796 15.5558 21.8728 14.5224C22.1743 12.9091 22.9256 11.5127 24.014 10.2878C25.3035 8.83662 26.8679 7.74509 28.5651 6.82962C29.2819 6.44306 30.0137 6.08447 30.774 5.789C30.883 5.74669 31.0035 5.73306 31.1197 5.7119C31.1338 5.70939 31.1611 5.73916 31.1698 5.75924C31.1784 5.77896 31.1813 5.81625 31.1694 5.82701C30.9931 5.9855 30.8193 6.14759 30.6344 6.29604C29.6604 7.07883 28.7616 7.93693 28.0136 8.93989C26.8546 10.4936 26.2275 12.2385 26.0533 14.1713C25.9202 15.6505 25.8551 17.1286 25.9339 18.6077C26.0336 20.4813 26.3826 22.3055 27.2616 23.9937C28.2438 25.8806 29.7399 27.1908 31.7375 27.9256C32.2085 28.0988 32.6917 28.2537 33.1825 28.3559C34.671 28.6668 36.0793 29.1986 37.4501 29.8376C38.731 30.4346 40.0026 31.0514 41.2781 31.6603C41.386 31.7119 41.4936 31.765 41.5987 31.8216C41.6836 31.8675 41.7656 31.926 41.7642 32.0328C41.7627 32.1458 41.6699 32.2014 41.5778 32.2214C41.3209 32.2774 41.0629 32.3387 40.8021 32.3602C40.5164 32.3828 40.2275 32.3645 39.94 32.3645Z"
            fill="currentColor"/>
        <path
            d="M19.2959 68.8169C18.6112 68.8485 18.0376 68.5928 17.5368 68.1403C16.9769 67.6347 16.5639 67.0254 16.2519 66.3459C16.0763 65.9629 16.0958 65.8593 16.4347 65.6201C17.1187 65.1375 17.8056 64.6577 18.5072 64.2012C19.8913 63.3008 21.2928 62.4273 22.782 61.7062C23.602 61.3092 24.4418 60.9625 25.3427 60.785C25.6522 60.724 25.9584 60.6921 26.2667 60.7807C26.4776 60.8413 26.6672 60.9341 26.8097 61.1095C27.0036 61.3479 26.9996 61.5875 26.7899 61.8102C26.7409 61.8622 26.6855 61.9088 26.6312 61.9554C26.0242 62.4782 25.5953 63.128 25.1995 63.8197C24.2777 65.4315 23.1037 66.8386 21.6134 67.9678C21.2676 68.2296 20.8891 68.4329 20.4879 68.595C20.1069 68.7495 19.7118 68.8377 19.2959 68.8169Z"
            fill="currentColor"/>
        <path
            d="M58.7361 68.8176C58.0273 68.8471 57.4091 68.6068 56.8273 68.2514C55.8976 67.6834 55.1248 66.9372 54.4289 66.1107C53.7661 65.3236 53.1422 64.5089 52.6756 63.5837C52.382 63.0017 51.9711 62.5055 51.4864 62.0691C51.3799 61.973 51.2691 61.8804 51.1716 61.7757C51.0064 61.5979 50.9967 61.3921 51.1284 61.1891C51.2511 61.0005 51.4253 60.8839 51.635 60.8097C51.9387 60.7025 52.2452 60.7089 52.5565 60.7663C53.3632 60.9144 54.1249 61.1934 54.8664 61.5366C56.2383 62.172 57.5286 62.9523 58.8034 63.7562C59.5924 64.2539 60.361 64.7846 61.1356 65.3042C61.3141 65.424 61.4886 65.552 61.6534 65.6901C61.8747 65.8758 61.9013 65.9791 61.7811 66.2548C61.4426 67.0319 60.9766 67.7197 60.3149 68.2626C59.8547 68.6402 59.3291 68.8431 58.7361 68.8176Z"
            fill="currentColor"/>
        <path
            d="M53.6204 67.0082C53.6582 67.033 53.7143 67.0491 53.7302 67.0839C53.8107 67.2567 53.8813 67.4342 53.9547 67.6106C54.4051 68.6939 54.902 69.7532 55.5727 70.7232C55.8188 71.0793 56.0973 71.4066 56.4226 71.6924C56.6942 71.9313 56.9947 72.1267 57.3429 72.2396C57.8071 72.3906 58.2396 72.3142 58.6541 72.0693C58.7026 72.0406 58.8081 72.0442 58.8451 72.0783C58.884 72.1138 58.8966 72.212 58.8779 72.2694C58.8336 72.4049 58.7674 72.5337 58.7048 72.6624C57.6142 74.8971 56.5233 77.1318 55.4295 79.3651C55.3352 79.5573 55.2284 79.7448 55.1096 79.9227C55.055 80.0048 54.9456 80.0252 54.8506 79.979C54.7657 79.9374 54.6854 79.8829 54.612 79.823C53.5736 78.975 52.5363 78.1251 51.5001 77.2745C51.4076 77.1989 51.3177 77.1189 51.236 77.0321C51.0932 76.8804 51.0842 76.7553 51.2076 76.5839C51.3054 76.4483 51.4127 76.3189 51.5224 76.1927C52.5899 74.9681 53.194 73.5291 53.4963 71.952C53.7733 70.5055 53.715 69.0514 53.5772 67.5967C53.5614 67.4314 53.5434 67.266 53.5377 67.1004C53.5362 67.0703 53.5913 67.0387 53.6204 67.0082Z"
            fill="currentColor"/>
        <path
            d="M24.4659 67.3661C24.2694 68.4483 24.2716 69.5488 24.341 70.6446C24.4709 72.6983 25.1038 74.5712 26.4624 76.1644C27.0295 76.8292 27.0219 76.8539 26.3588 77.3975C25.4151 78.1714 24.4677 78.9405 23.521 79.7104C23.4099 79.8008 23.299 79.8951 23.1756 79.9654C23.0623 80.0299 22.9335 80.0141 22.8601 79.8958C22.7471 79.7136 22.6442 79.5243 22.5503 79.3314C21.8271 77.8497 21.1057 76.367 20.3864 74.8831C20.0007 74.0878 19.6183 73.2906 19.2376 72.4928C19.1868 72.3867 19.1437 72.273 19.1217 72.1582C19.1066 72.079 19.1678 72.0245 19.2559 72.0374C19.302 72.0442 19.3484 72.0632 19.3891 72.0865C20.1482 72.5244 20.8204 72.2959 21.4457 71.804C21.7659 71.5519 22.0333 71.2442 22.2833 70.9208C23.0076 69.9838 23.4948 68.9206 23.9535 67.8412C24.0377 67.6436 24.1147 67.4425 24.209 67.2495C24.2356 67.1954 24.3101 67.1352 24.3659 67.1319C24.4454 67.1276 24.458 67.2173 24.4666 67.2861C24.4684 67.3105 24.4659 67.3349 24.4659 67.3661Z"
            fill="currentColor"/>
        <path
            d="M12.4161 64.7782C12.5773 64.7857 12.7107 64.8456 12.8 64.9639C12.9 65.097 12.9882 65.2415 13.0626 65.3903C13.8654 66.9939 14.6652 68.5989 15.4625 70.2054C15.5143 70.3101 15.5399 70.4281 15.5726 70.541C15.5766 70.555 15.5521 70.5848 15.5338 70.5952C15.5158 70.6052 15.4776 70.6106 15.4679 70.5998C15.3715 70.4962 15.2664 70.3976 15.1884 70.281C14.7343 69.6062 14.2867 68.927 13.8373 68.2493C13.7581 68.1299 13.6847 68.0062 13.6023 67.8885C13.4944 67.734 13.3526 67.6705 13.1673 67.7505C13.0572 67.7978 12.9471 67.8444 12.8378 67.8939C10.2191 69.0808 7.60045 70.2681 4.98144 71.4547C4.43598 71.7018 3.89196 71.9535 3.34218 72.1901C3.06981 72.3074 2.9302 72.2712 2.79779 72.0259C2.53694 71.5422 2.28256 71.0538 2.06092 70.5514C1.88857 70.1609 1.985 69.9508 2.36891 69.7216C2.51247 69.6359 2.66503 69.5646 2.81507 69.4896C5.77409 68.0141 8.73312 66.5381 11.6932 65.0643C11.9282 64.9474 12.1545 64.8054 12.4161 64.7782Z"
            fill="currentColor"/>
        <path
            d="M76.006 70.3223C75.984 70.3918 75.961 70.5112 75.9099 70.6174C75.6911 71.0692 75.4749 71.5228 75.2363 71.9642C75.0629 72.2852 74.9417 72.3164 74.5869 72.1633C74.1249 71.9642 73.6683 71.7527 73.2103 71.5443C70.7463 70.4227 68.2831 69.2996 65.8185 68.179C65.4914 68.0302 65.1586 67.8943 64.8283 67.7526C64.675 67.687 64.5415 67.7275 64.4437 67.8513C64.3253 68.0011 64.2188 68.1607 64.1126 68.3199C63.6877 68.9568 63.266 69.5954 62.8404 70.2316C62.7879 70.3101 62.7198 70.3786 62.6551 70.4478C62.6418 70.4621 62.5979 70.4715 62.5896 70.4625C62.5615 70.4327 62.5176 70.3857 62.5256 70.3599C62.5687 70.2244 62.6166 70.0888 62.6796 69.9612C63.4279 68.4375 64.1724 66.9121 64.9326 65.3946C65.2874 64.6864 65.4457 64.6408 66.1696 65.0009C69.2377 66.5263 72.3032 68.0567 75.3688 69.5872C75.5181 69.6618 75.6645 69.746 75.8016 69.8403C75.9498 69.9422 76.0124 70.0953 76.006 70.3223Z"
            fill="currentColor"/>
        <path
            d="M59.7587 21.1888C59.5978 20.9611 59.5863 20.7252 59.577 20.4946C59.5518 19.8499 59.4852 19.2098 59.4161 18.5683C59.2085 16.6387 58.4871 14.9236 57.3062 13.3928C55.9408 11.6221 54.2069 10.2806 52.2945 9.15254C49.6773 7.60882 46.8565 6.54956 43.9518 5.69433C42.5496 5.28124 41.1313 4.92947 39.6949 4.65192C39.5158 4.61714 39.2074 4.62037 39.2063 4.4357C39.2045 4.16317 39.5233 4.23453 39.7165 4.18612C40.19 4.06743 40.6585 4.09791 41.1385 4.18361C44.5016 4.78317 47.7718 5.69003 50.8953 7.08636C52.6964 7.89175 54.3947 8.86854 55.9073 10.1444C57.0331 11.0943 57.9852 12.1898 58.6929 13.4878C59.2744 14.5543 59.5788 15.7025 59.7148 16.8991C59.8551 18.134 59.9382 19.373 59.8817 20.6169C59.8738 20.7951 59.9181 20.9898 59.7587 21.1888Z"
            fill="currentColor"/>
        <path
            d="M64.3616 96.9867C64.3102 96.9785 64.2389 96.9699 64.1688 96.9552C63.8309 96.8845 63.7219 96.7009 63.8521 96.3911C63.9536 96.1494 64.0752 95.9156 64.1929 95.6808C66.3319 91.41 68.4792 87.1432 70.6064 82.8663C71.2231 81.6267 71.7703 80.353 72.377 79.1084C72.5101 78.8351 72.5159 78.4518 72.8951 78.3331C72.9649 78.6558 72.7933 78.9309 72.7094 79.2202C72.4975 79.955 72.3086 80.6937 72.1906 81.4499C72.1276 81.8537 72.078 82.256 72.2323 82.6505C72.3187 82.8714 72.264 83.0704 72.1589 83.2669C71.9337 83.6882 71.7059 84.1081 71.4883 84.533C69.7878 87.8482 68.0903 91.1647 66.3898 94.4795C66.1063 95.0321 65.8149 95.58 65.5216 96.1276C65.4432 96.2742 65.3576 96.4209 65.2532 96.5493C65.0291 96.8243 64.688 96.9864 64.3616 96.9867Z"
            fill="currentColor"/>
        <path
            d="M13.6491 97C13.2587 96.9663 12.9608 96.8196 12.7514 96.5371C12.596 96.3269 12.4603 96.0992 12.3405 95.8665C11.137 93.53 9.93918 91.1906 8.73779 88.8529C7.86419 87.1529 6.98735 85.4542 6.11231 83.7549C6.03567 83.6061 5.96047 83.4569 5.88491 83.3078C5.77409 83.0897 5.71976 82.8749 5.79316 82.6211C5.91441 82.2004 5.8644 81.7701 5.79928 81.3423C5.66579 80.466 5.40961 79.6204 5.16242 78.772C5.12285 78.6361 5.10522 78.4934 5.08219 78.3532C5.07967 78.3378 5.10558 78.3105 5.12464 78.3008C5.14263 78.2919 5.17286 78.2915 5.19013 78.3012C5.30419 78.3639 5.33297 78.4848 5.38262 78.5913C5.83814 79.5648 6.28645 80.5423 6.75132 81.5116C7.30901 82.6748 7.87247 83.8352 8.44887 84.9895C10.2529 88.6023 12.0642 92.2118 13.8718 95.8224C13.9679 96.0146 14.0683 96.2057 14.1496 96.404C14.2665 96.6884 14.1773 96.8691 13.8931 96.9494C13.802 96.9753 13.707 96.9882 13.6491 97Z"
            fill="currentColor"/>
        <path
            d="M51.0075 89.5913C51.0338 89.4901 51.0676 89.3015 51.1324 89.1237C51.2137 88.8995 51.3134 88.6815 51.4173 88.4667C52.3863 86.4669 53.361 84.4699 54.3274 82.469C55.3043 80.4466 56.2729 78.4202 57.2476 76.3967C57.3408 76.2034 57.4415 76.0127 57.5556 75.8312C57.6401 75.6964 57.7808 75.6458 57.9309 75.7133C58.214 75.8406 58.4968 75.9711 58.7678 76.1213C58.9351 76.2142 58.9703 76.3598 58.8901 76.5577C58.8005 76.7786 58.6929 76.9927 58.5864 77.2064C57.1159 80.1579 55.6418 83.108 54.1734 86.061C53.5247 87.3662 52.8889 88.6776 52.2438 89.9846C52.1488 90.1768 52.0438 90.3651 51.9275 90.5451C51.8437 90.6753 51.6814 90.7 51.5454 90.6247C51.1737 90.4185 51.0079 90.0958 51.0075 89.5913Z"
            fill="currentColor"/>
        <path
            d="M27.0147 89.6881C26.9917 90.0718 26.842 90.3572 26.551 90.5662C26.3628 90.7011 26.1757 90.6781 26.0544 90.4917C25.9638 90.3518 25.8889 90.2016 25.8144 90.052C23.7891 85.9921 21.7641 81.9322 19.7417 77.8712C19.5395 77.4653 19.3473 77.054 19.1617 76.6402C19.0203 76.3247 19.0595 76.2146 19.3351 76.0478C19.3556 76.0356 19.3768 76.0245 19.3984 76.0138C20.362 75.5279 20.3245 75.5164 20.7736 76.4459C22.7471 80.5305 24.7196 84.6155 26.6942 88.6998C26.851 89.024 26.9946 89.3499 27.0147 89.6881Z"
            fill="currentColor"/>
        <path
            d="M10.2252 24.4875C10.25 22.7429 10.2986 20.9952 10.7343 19.2941C11.0844 17.9268 11.5327 16.5889 12.1638 15.3191C12.2059 15.2345 12.2563 15.1538 12.3074 15.0739C12.3175 15.0581 12.3603 15.0423 12.3679 15.0491C12.3977 15.0753 12.4459 15.1165 12.4402 15.1416C12.4085 15.2804 12.3664 15.4174 12.3222 15.5529C11.7616 17.2623 11.3856 19.0061 11.2068 20.8001C11.0736 22.1384 11.0654 23.4748 11.1265 24.8098C11.1657 25.6658 11.3399 26.5153 11.4486 27.3683C11.6601 29.0268 11.8929 30.6813 11.9969 32.3534C12.0509 33.2212 12.0307 34.0692 11.844 34.9155C11.8285 34.9854 11.822 35.0586 11.7976 35.1253C11.7335 35.2999 11.7386 35.5993 11.5518 35.6033C11.2611 35.6097 11.3277 35.2881 11.2931 35.098C11.0035 33.4991 10.7768 31.8915 10.5908 30.2765C10.4181 28.7797 10.3454 27.2769 10.2295 25.7769C10.1972 25.3499 10.2252 24.9178 10.2252 24.4875Z"
            fill="currentColor"/>
        <path
            d="M66.4193 15.0699C66.5626 15.0918 66.6011 15.2162 66.6468 15.3206C67.4973 17.253 68.2112 19.2227 68.4091 21.3477C68.607 23.4719 68.5742 25.5926 68.4281 27.7176C68.3493 28.8622 68.2173 30.0004 68.0978 31.1403C67.9532 32.5194 67.7017 33.8824 67.48 35.2501C67.4577 35.3878 67.4358 35.5889 67.2865 35.6036C67.0706 35.6248 67.0605 35.3992 67.0206 35.2461C66.7576 34.2414 66.6806 33.219 66.7896 32.1885C66.9533 30.6451 67.1289 29.1025 67.3203 27.5623C67.4408 26.5909 67.6042 25.626 67.6718 24.6467C67.7344 23.7384 67.7621 22.8344 67.6618 21.9282C67.588 21.2638 67.5887 20.595 67.4916 19.9295C67.2872 18.5299 66.9853 17.1572 66.5428 15.814C66.4686 15.5888 66.3596 15.3711 66.3726 15.1248C66.374 15.1061 66.4024 15.0889 66.4193 15.0699Z"
            fill="currentColor"/>
        <path
            d="M4.56875 83.2934C4.61264 83.3189 4.70979 83.3497 4.7688 83.415C4.86415 83.5197 4.93971 83.6434 5.01454 83.7649C6.11267 85.5536 7.21007 87.3433 8.30603 89.1333C8.38051 89.2549 8.45283 89.3793 8.50896 89.5098C8.59315 89.7064 8.43052 89.8853 8.206 89.8627C8.00343 89.8423 7.83972 89.7508 7.71307 89.6006C7.60621 89.4733 7.51086 89.3352 7.42199 89.1943C6.41454 87.6018 5.40853 86.0083 4.40396 84.414C4.30213 84.2526 4.20139 84.0898 4.11612 83.9195C3.95636 83.5996 4.15641 83.2959 4.56875 83.2934Z"
            fill="currentColor"/>
        <path
            d="M74.0062 83.6875C73.9688 83.7693 73.9302 83.8819 73.8694 83.9808C73.6323 84.3674 73.3887 84.7503 73.147 85.1337C72.3316 86.426 71.5174 87.7187 70.6996 89.0093C70.5722 89.2104 70.4366 89.408 70.2887 89.5945C70.1671 89.748 70.0023 89.8412 69.7979 89.8595C69.5752 89.8792 69.4136 89.6938 69.5036 89.5002C69.5838 89.3277 69.6799 89.1617 69.7796 88.9989C70.8388 87.268 71.8995 85.5385 72.9609 83.8091C73.0232 83.7076 73.0862 83.6054 73.1581 83.5103C73.3668 83.2353 73.7187 83.2411 73.9403 83.5222C73.9677 83.5577 73.9752 83.6083 74.0062 83.6875Z"
            fill="currentColor"/>
        <path
            d="M14.9297 68.0241C14.78 68.0072 14.7605 67.8713 14.712 67.7727C14.2572 66.8537 13.8071 65.9325 13.3573 65.0109C13.3051 64.904 13.2558 64.7947 13.2177 64.6824C13.1652 64.5279 13.2127 64.3927 13.3534 64.3145C13.6513 64.1492 13.9722 64.0596 14.3169 64.0961C14.5904 64.1252 14.8411 64.2234 14.9739 64.4745C15.2078 64.9166 15.4201 65.3702 15.6349 65.822C15.7007 65.9608 15.6896 66.1107 15.5787 66.2218C15.1081 66.6952 14.9221 67.26 15.0027 67.9183C15.0067 67.9502 14.9563 67.9879 14.9297 68.0241Z"
            fill="currentColor"/>
        <path
            d="M63.0307 68.1894C63.0088 67.9287 62.9897 67.8362 62.9955 67.7448C63.03 67.1943 62.903 66.7027 62.4889 66.3111C62.3072 66.1394 62.2895 65.9439 62.3957 65.7263C62.5734 65.3616 62.736 64.9894 62.9282 64.6326C63.1707 64.1819 63.4855 64.0355 63.9954 64.103C64.09 64.1155 64.1853 64.1324 64.276 64.1611C64.7959 64.3253 64.9136 64.4529 64.6538 64.979C64.1889 65.9199 63.7442 66.8709 63.288 67.8161C63.2484 67.8982 63.1844 67.9685 63.0307 68.1894Z"
            fill="currentColor"/>
        <path
            d="M1.07506 73.3556C0.884359 73.3595 0.79189 73.3204 0.737919 73.2401C0.44396 72.8023 0.201452 72.3368 0.0280266 71.8387C-0.0392567 71.6458 0.0237089 71.4583 0.120496 71.289C0.303996 70.9685 0.578166 70.7404 0.905947 70.5769C1.05563 70.5023 1.20602 70.5414 1.27978 70.6819C1.59029 71.2736 1.88965 71.8714 2.18361 72.4716C2.23578 72.5785 2.24118 72.718 2.13791 72.8051C1.8033 73.0873 1.3996 73.2336 1.07506 73.3556Z"
            fill="currentColor"/>
        <path
            d="M78 71.7484C77.9874 71.8018 77.9816 71.9015 77.9413 71.985C77.7546 72.3712 77.5715 72.7603 77.361 73.1336C77.225 73.3746 77.0775 73.4058 76.8134 73.319C76.768 73.3039 76.7234 73.286 76.6799 73.2659C75.5537 72.7445 75.6469 72.8231 76.1337 71.8398C76.3136 71.4762 76.4953 71.113 76.6925 70.7587C76.8105 70.546 76.9702 70.5084 77.175 70.6149C77.4329 70.7494 77.6589 70.924 77.819 71.1707C77.9241 71.3331 77.9939 71.5099 78 71.7484Z"
            fill="currentColor"/>
    </g>
</svg>
