<svg id="attention" viewBox="0 0 40 35" fill="none" xmlns="http://www.w3.org/2000/svg">
    <path d="M4.74018 35H35.2597C38.1737 35 40 33.0033 40 30.4888C40 29.7305 39.8057 28.9725 39.3782 28.27L24.0894 2.29266C23.2151 0.795035 21.6027 0 20.0097 0C18.3973 0 16.7849 0.795035 15.9106 2.29266L0.641088 28.2885C0.233123 28.991 0 29.7305 0 30.4888C0 33.0033 1.82613 35 4.74018 35ZM20.0097 22.6492C18.9995 22.6492 18.4556 22.0946 18.4361 21.1146L18.1641 11.0565C18.1447 10.0766 18.9024 9.374 19.9903 9.374C21.0588 9.374 21.8553 10.0951 21.8358 11.075L21.5639 21.1146C21.5445 22.1131 20.9811 22.6492 20.0097 22.6492ZM20.0097 28.843C18.8635 28.843 17.8533 27.9558 17.8533 26.8648C17.8533 25.7555 18.8441 24.8679 20.0097 24.8679C21.1948 24.8679 22.1855 25.737 22.1855 26.8648C22.1855 27.974 21.1753 28.843 20.0097 28.843Z" fill="currentColor"/>
</svg>
