<svg id="chi" width="24" height="24" viewBox="0 0 24 24" fill="none" xmlns="http://www.w3.org/2000/svg">
<path fill-rule="evenodd" clip-rule="evenodd" d="M6.92981 17.9596C5.85214 17.9371 3.83907 17.5555 4.40807 16.2087C5.11933 14.5252 7.4471 14.4579 8.35234 14.7273C8.30061 14.404 8.33078 14.0539 8.35234 13.9192L10.9387 14.1212C10.4861 13.56 10.0594 12.303 11.9733 11.7643C10.7447 10.8889 13.3796 9.23084 15.7235 11.3603C18.7625 14.1212 17.922 20.2492 9.06359 22C22.1559 19.9123 20.9864 14.3484 20.4892 11.9826C20.4731 11.9065 20.4578 11.8336 20.4437 11.7643C22.2025 12.6801 23.5474 12.1459 24 11.7643C22.7715 11.5623 20.0945 10.6599 19.2152 8.66667C19.6807 8.55892 20.3575 8.84624 20.6377 9.00337C19.7756 7.25253 16.7581 4.02022 11.5853 5.09766C12.5552 2.74076 14.495 2.53872 18.2453 3.6835C21.2455 4.59933 22.2973 3.75084 22.4482 3.21212C22.1464 3.54882 20.8187 3.96633 17.922 2.94276C14.301 1.6633 10.2921 2 9.77485 4.96296C9.64553 3.54882 8.86961 4.15491 8.22302 5.09766C8.27474 4.28957 8.37389 3.81818 8.417 3.6835C8.00748 3.95286 7.11087 4.73401 6.8005 5.7037C7.43876 2.77894 9.21108 2.47877 11.9309 2.01814C11.9664 2.01212 12.0021 2.00608 12.0379 2C6.60652 2.40404 5.05469 3.07744 5.31333 7.58923C4.84778 8.45118 3.61062 9.25028 3.05023 9.54209L4.14945 9.87879C3.78305 10.8216 2.84332 12.7879 2.01568 13.1111C1.18803 13.4343 1.15355 12.752 1.23976 12.3704C0.657819 13.0887 -0.376746 14.9966 0.140533 16.8822C0.347444 16.5589 0.700914 16.4332 0.851785 16.4108C1.34751 17.4433 3.25713 19.1986 6.92981 17.9596ZM5.50708 10.6194C5.87349 10.5296 6.70975 10.0942 7.12357 9.07059C5.9597 9.47463 5.6364 9.81133 5.50708 10.6194Z" fill="currentColor"/>
</svg>
