<svg id="discord" viewBox="0 0 40 40" fill="none" xmlns="http://www.w3.org/2000/svg">
    <path
        d="M25.7112 28L25.3305 28.3241C25.429 28.4399 25.5749 28.5045 25.7269 28.4998C28.1114 28.4248 29.781 27.6154 30.8586 26.81C31.3953 26.4088 31.7825 26.0108 32.0378 25.7094C32.1655 25.5586 32.2605 25.4316 32.325 25.34C32.3572 25.2942 32.3819 25.2571 32.3992 25.2303C32.4079 25.2169 32.4147 25.206 32.4198 25.1979L32.426 25.1877L32.4281 25.1842L32.4289 25.1829L32.4293 25.1823C32.4294 25.1821 32.4296 25.1818 32 24.926L32.4296 25.1818C32.4757 25.1044 32.5 25.016 32.5 24.926C32.5 21.595 31.7443 18.5884 30.9927 16.4197C30.6164 15.334 30.2398 14.4544 29.9564 13.8446C29.8146 13.5396 29.696 13.3018 29.6122 13.1391C29.5703 13.0577 29.5371 12.9951 29.5141 12.9523L29.4873 12.9029L29.4799 12.8896L29.4778 12.8858L29.4771 12.8846L29.4769 12.8842C29.4768 12.8841 29.4767 12.8839 29.0406 13.1283L29.4767 12.8839C29.4421 12.8222 29.3948 12.7685 29.3379 12.7264C27.7957 11.5854 26.2877 11.0294 25.1614 10.7587C24.5983 10.6234 24.1298 10.5592 23.7985 10.5289C23.6328 10.5138 23.5012 10.507 23.409 10.5042C23.3629 10.5027 23.3267 10.5022 23.3009 10.5022L23.2702 10.5022L23.2609 10.5023L23.2577 10.5024L23.2566 10.5024L23.2561 10.5024C23.2559 10.5024 23.2557 10.5024 23.2642 10.8904L23.2557 10.5024C23.1167 10.5055 22.9852 10.5663 22.8929 10.6702L22.6051 10.994C22.4918 11.1216 22.4513 11.2981 22.4978 11.4623C22.5041 11.4845 22.5118 11.506 22.5209 11.5268C20.9412 11.2974 19.3272 11.2835 17.7247 11.4933C17.5925 11.4966 17.4713 11.5167 17.3829 11.5313C17.3712 11.5332 17.3601 11.5351 17.3496 11.5368C17.3474 11.537 17.3453 11.5372 17.3431 11.5374C17.3755 11.4929 17.4008 11.4427 17.4172 11.3886C17.4667 11.2261 17.4303 11.0497 17.3206 10.92L17.115 10.6772C17.0225 10.5678 16.8875 10.5034 16.7443 10.5003L16.7382 10.7804C16.7382 10.7804 16.7382 10.7804 16.7382 10.7804C16.7443 10.5003 16.7441 10.5003 16.7439 10.5003L16.7434 10.5003L16.7423 10.5003L16.7391 10.5002L16.7298 10.5001L16.6991 10.5C16.6734 10.5001 16.6371 10.5006 16.591 10.502C16.4989 10.5049 16.3674 10.5116 16.2018 10.5268C15.8707 10.5571 15.4023 10.6213 14.8393 10.7566C13.7134 11.0272 12.2054 11.5833 10.6622 12.7242C10.6052 12.7663 10.5579 12.82 10.5233 12.8818L10.9594 13.1262C10.5233 12.8818 10.5232 12.8819 10.5231 12.8821L10.5229 12.8825L10.5222 12.8837L10.5201 12.8875L10.5127 12.9008L10.4859 12.9501C10.4629 12.993 10.4297 13.0556 10.3878 13.1369C10.304 13.2996 10.1854 13.5374 10.0436 13.8425C9.76017 14.4523 9.38357 15.3318 9.00729 16.4176C8.25571 18.5862 7.5 21.5929 7.5 24.9238C7.5 25.0129 7.5238 25.1004 7.56894 25.1772L8 24.9238C7.56894 25.1772 7.56909 25.1775 7.56924 25.1777L7.56959 25.1783L7.57039 25.1796L7.57249 25.1832L7.57866 25.1933C7.58366 25.2015 7.59043 25.2124 7.59902 25.2259C7.61618 25.2527 7.6406 25.2899 7.67255 25.3358C7.73644 25.4276 7.8306 25.5548 7.9573 25.7058C8.21057 26.0077 8.59509 26.4063 9.12913 26.808C10.2015 27.6146 11.8656 28.4248 14.2493 28.4998C14.4031 28.5046 14.5506 28.4383 14.6491 28.3201L14.265 28L14.6492 28.3201L14.6492 28.32L14.6493 28.3199L14.6497 28.3194L14.6514 28.3173L14.658 28.3094L14.6834 28.2789L14.7784 28.1645C14.8597 28.0665 14.9745 27.9279 15.1086 27.7653C15.3766 27.4403 15.7226 27.0183 16.0327 26.6325C16.1272 26.515 16.1631 26.362 16.1323 26.2161C16.5226 26.3194 16.9165 26.4095 17.3134 26.4863L17.3154 26.4867C19.4946 26.8987 21.7304 26.8261 23.8622 26.285C23.8424 26.4204 23.8788 26.5595 23.9655 26.6686C24.2762 27.0596 24.6176 27.4736 24.8804 27.7889C25.0121 27.9468 25.1244 28.0804 25.2039 28.1746L25.2968 28.2845L25.3217 28.3138L25.3282 28.3214L25.3298 28.3234L25.3303 28.3239L25.3304 28.324L25.3304 28.3241L25.7112 28Z"
        stroke="currentColor" stroke-linecap="round" stroke-linejoin="round"/>
    <path
        d="M26.2525 20.7975L26.2525 20.7966C26.2499 19.3209 25.1409 18.05 23.6584 18.05C22.1745 18.05 21.0621 19.3223 21.0621 20.7975C21.0621 22.2712 22.1988 23.5449 23.6584 23.5449C25.141 23.5449 26.2525 22.2673 26.2525 20.7975ZM16.156 18.05C14.6721 18.05 13.5597 19.3223 13.5597 20.7975C13.5597 22.2712 14.6963 23.5449 16.156 23.5449C17.637 23.5449 18.7476 22.2701 18.7501 20.8023C18.7762 19.3105 17.6278 18.05 16.156 18.05Z"
        stroke="currentColor" stroke-linecap="round" stroke-linejoin="round"/>
</svg>
