<svg id="fire" viewBox="0 0 24 24" fill="none" xmlns="http://www.w3.org/2000/svg">
    <path
        d="M5.61062 11.7377L4.70025 11.3239L5.61062 11.7377ZM12.1362 3.41386L11.1363 3.42519L12.1362 3.41386ZM13.7552 2.76251L13.0028 3.42116L13.7552 2.76251ZM9.99393 7.785L9.0706 8.16902L9.99393 7.785ZM12.1024 20.4755C7.54689 20.4755 4.79664 15.9451 6.52098 12.1515L4.70025 11.3239C2.3672 16.4566 6.10878 22.4755 12.1024 22.4755V20.4755ZM6.52098 12.1515C7.31336 10.4083 8.0517 8.87695 8.60676 7.70345L6.79881 6.84829C6.25111 8.00621 5.50099 9.56231 4.70025 11.3239L6.52098 12.1515ZM8.82753 7.60003C8.90943 7.78683 8.99106 7.97776 9.0706 8.16902L10.9173 7.40098C10.8327 7.19767 10.7461 6.99504 10.6592 6.79692L8.82753 7.60003ZM12.8675 8.03868C13.1319 6.55626 13.1528 4.87831 13.1361 3.40254L11.1363 3.42519C11.1529 4.89373 11.127 6.4066 10.8986 7.68744L12.8675 8.03868ZM13.0028 3.42116C17.1283 8.13417 18 11.915 18 14.5779H20C20 11.3888 18.9239 7.14893 14.5077 2.10386L13.0028 3.42116ZM18 14.5779C18 16.0545 17.6283 17.5297 16.7512 18.6156C15.9043 19.6642 14.4856 20.4755 12.1024 20.4755V22.4755C14.9939 22.4755 17.024 21.4609 18.3071 19.8722C19.5602 18.3208 20 16.3472 20 14.5779H18ZM13.1361 3.40254C13.136 3.38991 13.1377 3.38644 13.1367 3.38962C13.1358 3.39259 13.1336 3.39795 13.1295 3.40407C13.1215 3.41577 13.1108 3.42409 13.0986 3.42907C13.0861 3.43416 13.0644 3.4386 13.0367 3.43245C13.0228 3.42938 13.0114 3.42441 13.0034 3.41965C12.9953 3.41483 12.9958 3.41319 13.0028 3.42116L14.5077 2.10386C13.256 0.673895 11.1166 1.68679 11.1363 3.42519L13.1361 3.40254ZM9.0706 8.16902C9.41718 9.00232 10.2135 9.44987 10.9466 9.49814C11.3244 9.52301 11.7503 9.44741 12.1241 9.1979C12.5164 8.93598 12.7802 8.528 12.8675 8.03868L10.8986 7.68744C10.8992 7.6837 10.905 7.65746 10.928 7.62181C10.951 7.58596 10.9816 7.55587 11.0136 7.53449C11.0744 7.49395 11.1064 7.50433 11.078 7.50246C11.0519 7.50074 11.0112 7.48932 10.9741 7.46458C10.9407 7.44226 10.9249 7.41942 10.9173 7.40098L9.0706 8.16902ZM8.60676 7.70345C8.60864 7.69949 8.61609 7.68503 8.64661 7.66671C8.68037 7.64645 8.729 7.63054 8.78118 7.62796C8.80573 7.62675 8.82597 7.62878 8.8407 7.63179C8.85535 7.63479 8.86163 7.63812 8.86118 7.63788C8.86021 7.63737 8.85326 7.6334 8.84446 7.62416C8.83513 7.61437 8.82962 7.60481 8.82753 7.60003L10.6592 6.79692C10.2709 5.9113 9.39699 5.59505 8.68236 5.63041C7.97477 5.66541 7.17802 6.04658 6.79881 6.84829L8.60676 7.70345Z"
        fill="currentColor"/>
</svg>
