<svg id="github" viewBox="0 0 40 40" fill="none" xmlns="http://www.w3.org/2000/svg">
    <path
        d="M24.3171 25.6634C24.3175 25.1519 24.218 24.6452 24.0241 24.1729C23.9394 23.9665 23.8374 23.7684 23.7195 23.5808C25.2279 23.1827 26.3707 22.4805 27.1635 21.5475C28.0905 20.4564 28.5 19.0952 28.5 17.6528C28.5 16.3256 28.0939 15.0786 27.2889 14.0504C27.6827 12.497 27.1876 11.206 27.0773 10.9185C27.0717 10.9038 27.067 10.8916 27.0636 10.8823C26.9969 10.7016 26.8324 10.5753 26.6406 10.5576C25.8115 10.4808 25.0035 10.7565 24.396 11.0505C23.9515 11.2656 23.5853 11.5048 23.3555 11.6682C22.5072 11.4578 21.5647 11.3462 20.5282 11.3462C19.5 11.3462 18.5615 11.4527 17.7197 11.6598C17.516 11.5124 17.1799 11.2869 16.7649 11.0746C16.14 10.7548 15.2727 10.4314 14.3828 10.5127C14.1928 10.53 14.0292 10.654 13.9612 10.8322C13.9582 10.84 13.9545 10.8495 13.9501 10.8608C13.8417 11.1378 13.3209 12.4698 13.747 14.0631C12.954 15.0868 12.5538 16.3223 12.5538 17.6449C12.5538 19.0841 12.9604 20.443 13.8831 21.5341C14.6717 22.4666 15.809 23.17 17.3114 23.5722C17.142 23.8398 17.0048 24.1301 16.9044 24.4371C16.6385 24.485 16.3276 24.5122 16.0264 24.4738C15.624 24.4226 15.2727 24.2615 15.0338 23.9005L15.0334 23.9C14.5495 23.1708 14.061 22.6105 13.545 22.2964C12.9936 21.9608 12.4033 21.9063 11.8293 22.2076C11.7725 22.2374 11.7221 22.2778 11.6806 22.3266C11.5871 22.4367 11.5021 22.5918 11.5 22.7862C11.498 22.9766 11.5766 23.1253 11.6491 23.2228C11.7704 23.3863 11.9649 23.5201 12.0932 23.6085C12.0974 23.6113 12.1015 23.6142 12.1055 23.6169L12.1288 23.633C12.4421 23.8487 12.7251 24.0436 12.8915 24.3332L12.8914 24.3333L12.8953 24.3398C12.8936 24.3369 12.8939 24.3377 12.8966 24.3448C12.9016 24.3582 12.9152 24.394 12.9403 24.4709C12.9454 24.4865 12.9508 24.5032 12.9566 24.521C12.9858 24.6112 13.0233 24.7273 13.0695 24.851C13.1816 25.1511 13.356 25.5304 13.66 25.8861C14.2301 26.5532 15.1677 27.0385 16.7082 26.9704V29C16.7082 29.2761 16.9321 29.5 17.2082 29.5H23.8171C24.0933 29.5 24.3171 29.2761 24.3171 29V25.6634ZM24.3171 25.6634L23.8171 25.6631H24.3171V25.6634ZM23.2003 23.7027C23.0906 23.5465 22.9677 23.3999 22.8328 23.2645C23.0284 23.2294 23.2179 23.1896 23.4015 23.1454L23.2003 23.7027Z"
        stroke="currentColor" stroke-linecap="round" stroke-linejoin="round"/>
</svg>
