<svg id="graphic" width="24" height="24" viewBox="0 0 24 24" fill="none" xmlns="http://www.w3.org/2000/svg">
<path fill-rule="evenodd" clip-rule="evenodd" d="M4 3C4 2.44772 3.55228 2 3 2C2.44772 2 2 2.44772 2 3V15C2 18.866 5.13401 22 9 22H21C21.5523 22 22 21.5523 22 21C22 20.4477 21.5523 20 21 20H9C6.23858 20 4 17.7614 4 15V3ZM15 5C15 4.44772 15.4477 4 16 4H21C21.5523 4 22 4.44772 22 5V10C22 10.5523 21.5523 11 21 11C20.4477 11 20 10.5523 20 10V7.41421L15.7071 11.7071C15.3166 12.0976 14.6834 12.0976 14.2929 11.7071L13 10.4142L7.70711 15.7071C7.31658 16.0976 6.68342 16.0976 6.29289 15.7071C5.90237 15.3166 5.90237 14.6834 6.29289 14.2929L12.2929 8.29289C12.6834 7.90237 13.3166 7.90237 13.7071 8.29289L15 9.58579L18.5858 6H16C15.4477 6 15 5.55228 15 5Z" fill="currentColor"/>
</svg>
