<svg id="lock_on" width="24" height="24" viewBox="0 0 24 24" fill="none" xmlns="http://www.w3.org/2000/svg">
    <rect x="5" y="11.0001" width="14" height="10" rx="2" stroke="currentColor" stroke-width="2" stroke-linecap="round"/>
    <path d="M8 11.0001V6.00006C8 3.79092 9.79086 2.00006 12 2.00006V2.00006C14.2091 2.00006 16 3.79061 16 5.99975C16 8.03105 16 10.2298 16 11.0001" stroke="currentColor" stroke-width="2" stroke-linecap="round"/>
    <path d="M10.8785 13.3434C10.4756 13.6158 10.1856 14.0255 10.0626 14.4961C9.95414 14.9185 9.98724 15.3648 10.1569 15.7665C10.2507 15.9888 10.3835 16.1907 10.5475 16.3634C10.7943 16.6233 11.0016 16.9412 11.0016 17.2996V17.9971C11.0016 18.5494 11.4494 18.9971 12.0016 18.9971C12.5539 18.9971 13.0016 18.5494 13.0016 17.9971V17.2994C13.0016 16.9411 13.2089 16.6233 13.4554 16.3633C13.5615 16.2515 13.6547 16.1272 13.7328 15.9927C13.9083 15.6902 14.0011 15.3468 14.0016 14.9971C14.0004 14.5107 13.8222 14.0414 13.5003 13.6769C13.1784 13.3123 12.7347 13.0774 12.2522 13.0161C11.7698 12.9547 11.2815 13.0711 10.8785 13.3434Z" fill="currentColor"/>
</svg>
