<svg id="magic" width="24" height="24" viewBox="0 0 24 24" fill="none" xmlns="http://www.w3.org/2000/svg">
    <path d="M3 21L14 10" stroke="currentColor" stroke-width="2" stroke-linecap="round"/>
    <path d="M9.5 4.75C8.40845 4.75 7 6 7 6C7 6 8.25 4.59155 8.25 3.5C8.25 2.40845 7 1 7 1C7 1 8.40845 2.25 9.5 2.25C10.5915 2.25 12 1 12 1C12 1 10.75 2.40845 10.75 3.5C10.75 4.59155 12 6 12 6C12 6 10.5915 4.75 9.5 4.75Z" fill="currentColor"/>
    <path d="M16 18.5C14.6901 18.5 13 20 13 20C13 20 14.5 18.3099 14.5 17C14.5 15.6901 13 14 13 14C13 14 14.6901 15.5 16 15.5C17.3099 15.5 19 14 19 14C19 14 17.5 15.6901 17.5 17C17.5 18.3099 19 20 19 20C19 20 17.3099 18.5 16 18.5Z" fill="currentColor"/>
    <path d="M6 12C5.12676 12 4 13 4 13C4 13 5 11.8732 5 11C5 10.1268 4 9 4 9C4 9 5.12676 10 6 10C6.87324 10 8 9 8 9C8 9 7 10.1268 7 11C7 11.8732 8 13 8 13C8 13 6.87324 12 6 12Z" fill="currentColor"/>
    <path d="M19.6775 4.08019C19.8238 4.04383 19.9562 4.17624 19.9198 4.32254L19.2582 6.9842C19.2451 7.03675 19.2539 7.09236 19.2826 7.13831L20.7344 9.46524C20.8142 9.59314 20.7292 9.75998 20.5788 9.77061L17.8429 9.96383C17.7889 9.96764 17.7387 9.99321 17.7039 10.0347L15.9395 12.1344C15.8425 12.2499 15.6575 12.2206 15.601 12.0808L14.5718 9.53859C14.5515 9.48839 14.5116 9.44858 14.4614 9.42826L11.9192 8.39906C11.7795 8.34249 11.7502 8.15754 11.8656 8.06056L13.9654 6.29614C14.0068 6.2613 14.0324 6.21114 14.0362 6.15712L14.2294 3.42126C14.2401 3.27089 14.4069 3.18587 14.5348 3.26567L16.8617 4.71744C16.9077 4.74611 16.9633 4.75492 17.0158 4.74185L19.6775 4.08019Z" stroke="currentColor" stroke-width="2" stroke-linecap="round"/>
</svg>
