<svg id="medium" viewBox="0 0 40 40" fill="none" xmlns="http://www.w3.org/2000/svg">
<path d="M30.3788 13.5193C30.3932 13.5089 30.4069 13.4977 30.42 13.4858L32.3357 11.7506C32.4403 11.6558 32.5 11.5212 32.5 11.38V11C32.5 10.7239 32.2761 10.5 32 10.5H25.3656C25.1649 10.5 24.9837 10.62 24.9053 10.8048L20.6082 20.9362L15.7097 10.7827C15.6263 10.6099 15.4513 10.5 15.2594 10.5H8.30312C8.02698 10.5 7.80312 10.7239 7.80312 11V11.38C7.80312 11.5013 7.84723 11.6185 7.92721 11.7097L10.1647 14.2609C10.18 14.2784 10.1966 14.2948 10.2142 14.31C10.3139 14.3959 10.3573 14.5146 10.3463 14.6231C10.3446 14.6399 10.3438 14.6568 10.3438 14.6737V24.6989C10.3438 24.7301 10.3467 24.7613 10.3525 24.7921C10.3886 24.9823 10.327 25.1833 10.1727 25.3338C10.163 25.3432 10.1537 25.3531 10.1448 25.3633L7.62294 28.2592C7.54367 28.3502 7.5 28.4669 7.5 28.5876V28.9617C7.5 29.2378 7.72386 29.4617 8 29.4617H15.1438C15.4199 29.4617 15.6438 29.2378 15.6438 28.9617V28.5817C15.6438 28.4608 15.6 28.344 15.5205 28.253L13.0018 25.3659C12.9919 25.3546 12.9816 25.3438 12.9707 25.3334C12.8913 25.2574 12.8339 25.1674 12.8004 25.0715C12.7669 24.9758 12.7576 24.8751 12.7725 24.7765C12.7762 24.7518 12.7781 24.7268 12.7781 24.7018V18.2066L18.1001 29.1857C18.1836 29.3581 18.3584 29.4676 18.55 29.4676H19.2781C19.4799 29.4676 19.662 29.3463 19.7396 29.16L24.1719 18.5277V26.3368C24.1719 26.3912 24.1718 26.4254 24.171 26.4503C24.1637 26.4579 24.1543 26.4673 24.1423 26.4788L22.2061 28.2512C22.1027 28.3459 22.0438 28.4797 22.0438 28.62V29C22.0438 29.2761 22.2676 29.5 22.5438 29.5H31.9562C32.2324 29.5 32.4562 29.2761 32.4562 29V28.62C32.4562 28.4808 32.3982 28.3479 32.2962 28.2533L30.4243 26.5181C30.4096 26.5045 30.3941 26.4918 30.3779 26.48C30.3706 26.4747 30.3667 26.4688 30.365 26.4648C30.3635 26.4611 30.3648 26.4618 30.364 26.4664C30.3692 26.4373 30.3719 26.4077 30.3719 26.3781V13.6219C30.3719 13.5937 30.3695 13.5655 30.3647 13.5377L30.3647 13.5376C30.3647 13.5373 30.3645 13.5365 30.3654 13.5344C30.3664 13.532 30.3698 13.5259 30.3788 13.5193Z" stroke="currentColor" stroke-linecap="round" stroke-linejoin="round"/>
</svg>
