<svg width="60" height="60" viewBox="0 0 60 60" fill="none" xmlns="http://www.w3.org/2000/svg">
<path fill-rule="evenodd" clip-rule="evenodd" d="M40 4C40 1.79086 41.7909 0 44 0H56C58.2091 0 60 1.79086 60 4V10C60 12.2091 58.2091 14 56 14H44C41.7909 14 40 12.2091 40 10V8H33C30.2386 8 28 10.2386 28 13V29H40V27C40 24.7909 41.7909 23 44 23H56C58.2091 23 60 24.7909 60 27V33C60 35.2091 58.2091 37 56 37H44C41.7909 37 40 35.2091 40 33V31H28V47C28 49.7614 30.2386 52 33 52H40V50C40 47.7909 41.7909 46 44 46H56C58.2091 46 60 47.7909 60 50V56C60 58.2091 58.2091 60 56 60H44C41.7909 60 40 58.2091 40 56V54H33C29.134 54 26 50.866 26 47V31H13.9291C13.4439 34.3923 10.5265 37 7 37C3.13401 37 0 33.866 0 30C0 26.134 3.13401 23 7 23C10.5265 23 13.4439 25.6077 13.9291 29H26V13C26 9.13401 29.134 6 33 6H40V4ZM44 2H56C57.1046 2 58 2.89543 58 4V10C58 11.1046 57.1046 12 56 12H44C42.8954 12 42 11.1046 42 10V4C42 2.89543 42.8954 2 44 2ZM7 35C9.76142 35 12 32.7614 12 30C12 27.2386 9.76142 25 7 25C4.23858 25 2 27.2386 2 30C2 32.7614 4.23858 35 7 35ZM56 25H44C42.8954 25 42 25.8954 42 27V33C42 34.1046 42.8954 35 44 35H56C57.1046 35 58 34.1046 58 33V27C58 25.8954 57.1046 25 56 25ZM44 48H56C57.1046 48 58 48.8954 58 50V56C58 57.1046 57.1046 58 56 58H44C42.8954 58 42 57.1046 42 56V50C42 48.8954 42.8954 48 44 48Z" fill="#5599FF"/>
</svg>
