<svg id="routing" width="24" height="24" viewBox="0 0 24 24" fill="none" xmlns="http://www.w3.org/2000/svg">
    <path fill-rule="evenodd" clip-rule="evenodd" d="M3 4C2.44772 4 2 4.44772 2 5C2 5.55228 2.44772 6 3 6C3.55228 6 4 5.55228 4 5C4 4.44772 3.55228 4 3 4ZM3 2C4.30622 2 5.41746 2.83481 5.82929 4H15.5C17.9853 4 20 6.01472 20 8.5C20 10.9853 17.9853 13 15.5 13H8.5C7.11929 13 6 14.1193 6 15.5C6 16.8807 7.11929 18 8.5 18H13.5858L12.2929 16.7071C11.9024 16.3166 11.9024 15.6834 12.2929 15.2929C12.6834 14.9024 13.3166 14.9024 13.7071 15.2929L16 17.5858C16.781 18.3668 16.781 19.6332 16 20.4142L13.7071 22.7071C13.3166 23.0976 12.6834 23.0976 12.2929 22.7071C11.9024 22.3166 11.9024 21.6834 12.2929 21.2929L13.5858 20H8.5C6.01472 20 4 17.9853 4 15.5C4 13.0147 6.01472 11 8.5 11H15.5C16.8807 11 18 9.88071 18 8.5C18 7.11929 16.8807 6 15.5 6H5.82929C5.41746 7.16519 4.30622 8 3 8C1.34315 8 0 6.65685 0 5C0 3.34315 1.34315 2 3 2ZM20 19C20 18.4477 20.4477 18 21 18C21.5523 18 22 18.4477 22 19C22 19.5523 21.5523 20 21 20C20.4477 20 20 19.5523 20 19ZM21 16C19.3431 16 18 17.3431 18 19C18 20.6569 19.3431 22 21 22C22.6569 22 24 20.6569 24 19C24 17.3431 22.6569 16 21 16Z" fill="currentColor"/>
</svg>
