<svg id="star" width="24" height="24" viewBox="0 0 24 24" fill="none" xmlns="http://www.w3.org/2000/svg">
<path d="M11.731 3.5451C11.841 3.32212 12.159 3.32212 12.269 3.5451L14.5752 8.21799C14.6189 8.30653 14.7034 8.3679 14.8011 8.3821L19.958 9.13144C20.204 9.16719 20.3023 9.46958 20.1242 9.64315L16.3927 13.2805C16.322 13.3494 16.2897 13.4487 16.3064 13.546L17.1873 18.682C17.2293 18.9271 16.9721 19.114 16.752 18.9983L12.1396 16.5734C12.0522 16.5274 11.9478 16.5274 11.8604 16.5734L7.24797 18.9983C7.02789 19.114 6.77066 18.9271 6.81269 18.682L7.69358 13.546C7.71028 13.4487 7.67801 13.3494 7.60731 13.2805L3.87578 9.64314C3.69772 9.46958 3.79597 9.16719 4.04204 9.13144L9.19889 8.3821C9.2966 8.3679 9.38107 8.30653 9.42477 8.21799L11.731 3.5451Z" stroke="currentColor" stroke-width="2" stroke-linecap="round"/>
</svg>
