<svg id="telegram" viewBox="0 0 40 40" fill="none" xmlns="http://www.w3.org/2000/svg">
    <path
        d="M15.0378 21.3867L24.3444 15.9765L17.328 21.811C17.2296 21.881 17.1569 21.9864 17.1295 22.1112C17.1208 22.151 17.1171 22.1909 17.118 22.2302L16.7763 26.9348C16.7663 27.0733 16.8143 27.2098 16.9089 27.3115C17.0035 27.4132 17.1361 27.471 17.275 27.471C17.6066 27.471 17.8725 27.3988 18.1054 27.2707C18.302 27.1626 18.463 27.0187 18.5871 26.9078C18.5982 26.8978 18.609 26.8882 18.6196 26.8788L18.621 26.8776L20.7597 24.9613L25.4911 28.1814C25.5088 28.1934 25.5272 28.2043 25.5462 28.2139C26.0691 28.4792 26.6345 28.6051 27.1433 28.3941C27.6664 28.1771 27.9589 27.6773 28.0933 27.0843C28.0934 27.084 28.0934 27.0837 28.0935 27.0834L31.4093 12.6851C31.6067 11.9462 31.4816 11.2724 31.0129 10.855C30.5542 10.4464 29.9065 10.4116 29.3359 10.6448L9.85987 17.5646L9.85985 17.5646L9.85373 17.5668C9.49092 17.7011 9.1873 17.8596 8.96061 18.0442C8.73991 18.2241 8.53996 18.4731 8.50513 18.792C8.46766 19.1353 8.63492 19.4143 8.851 19.6026C9.05886 19.7837 9.33853 19.9101 9.6461 19.9972C9.64648 19.9973 9.64686 19.9974 9.64723 19.9975L14.6484 21.435C14.7794 21.4726 14.92 21.4552 15.0378 21.3867Z"
        stroke="currentColor" stroke-linecap="round" stroke-linejoin="round"/>
</svg>
