<svg id="twitter" fill="none" xmlns="http://www.w3.org/2000/svg" x="0px"
     y="0px" viewBox="0 0 40 40">
    <path stroke="currentColor" stroke-width="1" stroke-linecap="round" stroke-linejoin="round"
          d="M32.4,12.4c-0.9,0.4-1.9,0.7-2.9,0.8c1.1-0.6,1.9-1.6,2.2-2.8c-1,0.6-2.1,1-3.2,1.2c-0.5-0.5-1.1-0.9-1.7-1.2
	c-0.6-0.3-1.3-0.4-2-0.4c-2.8,0-5.1,2.3-5.1,5c0,0.4,0,0.8,0.1,1.2C15.6,16,11.8,14,9.3,11c-0.5,0.8-0.7,1.6-0.7,2.5
	c0,1.7,0.9,3.3,2.3,4.2c-0.8,0-1.6-0.3-2.3-0.6v0.1c0,2.4,1.8,4.5,4.1,4.9c-0.4,0.1-0.9,0.2-1.3,0.2c-0.3,0-0.6,0-1-0.1
	c0.6,2,2.5,3.4,4.8,3.5c-1.8,1.4-3.9,2.1-6.3,2.1c-0.4,0-0.8,0-1.2-0.1c2.3,1.4,4.9,2.3,7.8,2.3c9.4,0,14.5-7.6,14.5-14.3
	c0-0.2,0-0.4,0-0.7C30.9,14.3,31.7,13.4,32.4,12.4z"/>
</svg>
