<svg id="youtube" xmlns="http://www.w3.org/2000/svg" xmlns:xlink="http://www.w3.org/1999/xlink" x="0px" y="0px"
	 viewBox="0 0 40 40" fill="none">
<path stroke="currentColor" stroke-width="1" stroke-linecap="round" stroke-linejoin="round"
    d="M32,14.3c-0.1-0.5-0.4-1-0.8-1.3c-0.4-0.4-0.9-0.6-1.4-0.8c-2-0.5-9.8-0.5-9.8-0.5s-7.8,0-9.8,0.5
	c-0.5,0.1-1,0.4-1.4,0.8c-0.4,0.4-0.7,0.8-0.8,1.3C7.5,16.1,7.5,20,7.5,20s0,3.9,0.5,5.7c0.3,1,1.1,1.8,2.2,2.1
	c2,0.5,9.8,0.5,9.8,0.5s7.8,0,9.8-0.5c1.1-0.3,1.9-1.1,2.2-2.1c0.5-1.9,0.5-5.7,0.5-5.7S32.5,16.1,32,14.3z M17.5,23.6v-7.1L24,20
	L17.5,23.6z"/>
</svg>
