<svg width="32" height="32" viewBox="0 0 32 32" fill="none" xmlns="http://www.w3.org/2000/svg">
    <path fill-rule="evenodd" clip-rule="evenodd"
          d="M13.5 6.5L12 9L9 10.244V16C9 17.8675 9.34825 19.076 9.82129 19.9696C10.304 20.8814 10.9484 21.5342 11.7071 22.2928C12.672 23.2578 14.6775 24.7951 15.9768 25.7482C17.6259 24.4501 20.2792 22.3065 21.2929 21.2928C22.5238 20.062 23 18.3782 23 16V10.244L20 9L18.5 6.5L25 8.75593V16C25 18.6217 24.4762 20.9379 22.7071 22.7071C21.4536 23.9605 18.0979 26.6352 16.6139 27.7893L16.0254 28.247L15.4188 27.8137C14.2603 26.9862 11.5602 24.9744 10.2929 23.7071L10.2613 23.6755C9.52736 22.9416 8.68685 22.1013 8.05371 20.9053C7.40175 19.6739 7 18.1324 7 16V8.75593L13.5 6.5Z"
          fill="#FC354A"/>
    <path d="M16 23L13.5 21L16 16L18.5 21L16 23Z" fill="#FC354A"/>
    <path
        d="M16 12L12 19.5C10.8 18.3 10.5 17.5 10.5 16L16 6.5C17.3333 8.66667 20.3 13.6 21.5 16C21.5 18 20.5 18.8333 20 19.5L16 12Z"
        fill="#FC354A"/>
</svg>
