<svg width="32" height="32" viewBox="0 0 32 32" fill="none" xmlns="http://www.w3.org/2000/svg">
    <g clip-path="url(#clip0)">
        <path fill-rule="evenodd" clip-rule="evenodd"
              d="M19.3204 25.1884C19.1642 25.3446 18.9109 25.3446 18.7547 25.1884L6.56605 12.9998C6.40984 12.8436 6.40984 12.5903 6.56605 12.4341L10.3871 8.61303C12.8029 6.1972 16.4607 5.81336 19.0349 9.78695C19.1248 9.92581 19.2892 9.99982 19.4536 9.98133C23.5967 9.51516 29.2001 15.3087 24.783 19.7258L19.3204 25.1884ZM14.5404 14.6631C14.3842 14.8194 14.1309 14.8194 13.9747 14.6631L12.8398 13.5282C12.6836 13.372 12.6836 13.1188 12.8398 12.9626L13.7882 12.0142C14.6089 11.1935 16.3095 12.894 15.4887 13.7148L14.5404 14.6631ZM18.7919 18.9146C18.6357 19.0708 18.3824 19.0708 18.2262 18.9146L17.0913 17.7797C16.9351 17.6235 16.9351 17.3702 17.0913 17.214L19.6812 14.6241C20.5019 13.8034 22.2025 15.5039 21.3818 16.3247L18.7919 18.9146Z"
              fill="#2926CF"/>
        <path
            d="M8.32576 18.0423L17.1133 26.8298C17.2695 26.986 17.2695 27.2393 17.1133 27.3955L16.0374 28.4713C15.8812 28.6276 15.6279 28.6276 15.4717 28.4713L6.68421 19.6838C6.528 19.5276 6.528 19.2744 6.68421 19.1182L7.76008 18.0423C7.91629 17.8861 8.16955 17.8861 8.32576 18.0423Z"
            fill="url(#paint0_linear)"/>
    </g>
    <defs>
        <linearGradient id="paint0_linear" x1="7.22214" y1="18.5802" x2="16.5753" y2="27.9334"
                        gradientUnits="userSpaceOnUse">
            <stop stop-color="#CA0FC0"/>
            <stop offset="1" stop-color="#FB3568"/>
        </linearGradient>
        <clipPath id="clip0">
            <rect width="32" height="32" fill="white"/>
        </clipPath>
    </defs>
</svg>
