<svg width="32" height="32" viewBox="0 0 32 32" fill="none" xmlns="http://www.w3.org/2000/svg">
    <path d="M15.9998 12.4407V2L7.47363 16.2373L15.9998 12.4407Z" fill="#6CB3DB"/>
    <path d="M16.0002 12.4407V2L24.5264 16.2373L16.0002 12.4407Z" fill="#4A6C9B"/>
    <path d="M15.9998 23.8304L7.47363 18.1355L15.9998 14.1333L24.526 18.1355L15.9998 23.8304Z" fill="#133444"/>
    <path d="M15.9998 21.4576V12.4407L7.47363 16.2373L15.9998 21.4576Z" fill="#3D5578"/>
    <path d="M16.0002 21.4576V12.4407L24.5264 16.2373L16.0002 21.4576Z" fill="#1A425A"/>
    <path
        d="M7 20.5084C7 19.3694 7.31578 18.2937 7.47368 18.1355L15.9998 23.8304C15.9998 24.7796 15.7314 25.7841 15.0999 26.7333C13.2052 29.5807 9.84206 28.1016 8.42103 25.7287C7 23.3558 7 21.9321 7 20.5084Z"
        fill="#6CB3DB"/>
    <path
        d="M25 20.5084C25 19.3694 24.6842 18.2937 24.5263 18.1355L16.0002 23.8304C16.0002 24.7796 16.2686 25.7841 16.9001 26.7333C18.7948 29.5807 22.1579 28.1016 23.579 25.7287C25 23.3558 25 21.9321 25 20.5084Z"
        fill="#4A6C9B"/>
    <path
        d="M12.2103 28.1017C15.0524 28.1017 15.9997 25.2543 15.9997 23.8306C15.9997 25.2543 16.9471 28.1017 19.7891 28.1017C21.6838 28.1017 23.1049 26.2034 23.5785 25.7289C22.1575 28.1017 19.4102 30 15.9997 30C12.5892 30 9.84193 28.1017 8.4209 25.7289C8.89457 26.2034 10.3156 28.1017 12.2103 28.1017Z"
        fill="#509CBA"/>
</svg>
